G04*
G04 #@! TF.GenerationSoftware,Altium Limited,Altium Designer,18.1.4 (159)*
G04*
G04 Layer_Color=2752767*
%FSLAX24Y24*%
%MOIN*%
G70*
G01*
G75*
%ADD147C,0.0020*%
%ADD148C,0.0027*%
D147*
X46770Y14876D02*
Y15036D01*
X46930D01*
Y14876D01*
X46770D01*
Y16844D02*
Y17004D01*
X46930D01*
Y16844D01*
X46770D01*
X42990Y29790D02*
Y29950D01*
X43150D01*
Y29790D01*
X42990D01*
Y33790D02*
Y33950D01*
X43150D01*
Y33790D01*
X42990D01*
Y36790D02*
Y36950D01*
X43150D01*
Y36790D01*
X42990D01*
X38990Y29790D02*
Y29950D01*
X39150D01*
Y29790D01*
X38990D01*
Y33790D02*
Y33950D01*
X39150D01*
Y33790D01*
X38990D01*
Y36790D02*
Y36950D01*
X39150D01*
Y36790D01*
X38990D01*
X42160Y18083D02*
X42080Y18243D01*
X42240D01*
X42160Y18083D01*
Y15209D02*
X42080Y15369D01*
X42240D01*
X42160Y15209D01*
X12770Y24417D02*
X12810Y24457D01*
X12850D01*
X12810Y24497D01*
X12850Y24537D01*
X12810D01*
X12770Y24577D01*
X12730Y24537D01*
X12690D01*
X12730Y24497D01*
X12690Y24457D01*
X12730D01*
X12770Y24417D01*
Y22448D02*
X12810Y22489D01*
X12850D01*
X12810Y22529D01*
X12850Y22569D01*
X12810D01*
X12770Y22608D01*
X12730Y22569D01*
X12690D01*
X12730Y22529D01*
X12690Y22489D01*
X12730D01*
X12770Y22448D01*
Y20480D02*
X12810Y20520D01*
X12850D01*
X12810Y20560D01*
X12850Y20600D01*
X12810D01*
X12770Y20640D01*
X12730Y20600D01*
X12690D01*
X12730Y20560D01*
X12690Y20520D01*
X12730D01*
X12770Y20480D01*
X21591Y39036D02*
Y39196D01*
X21751D01*
Y39036D01*
X21591D01*
X20591D02*
Y39196D01*
X20751D01*
Y39036D01*
X20591D01*
X27720Y37670D02*
X27760Y37750D01*
X27720Y37830D01*
X27800Y37790D01*
X27880Y37830D01*
X27840Y37750D01*
X27880Y37670D01*
X27800Y37710D01*
X27720Y37670D01*
Y38170D02*
X27760Y38250D01*
X27720Y38330D01*
X27800Y38290D01*
X27880Y38330D01*
X27840Y38250D01*
X27880Y38170D01*
X27800Y38210D01*
X27720Y38170D01*
X28220Y37670D02*
X28260Y37750D01*
X28220Y37830D01*
X28300Y37790D01*
X28380Y37830D01*
X28340Y37750D01*
X28380Y37670D01*
X28300Y37710D01*
X28220Y37670D01*
Y38170D02*
X28260Y38250D01*
X28220Y38330D01*
X28300Y38290D01*
X28380Y38330D01*
X28340Y38250D01*
X28380Y38170D01*
X28300Y38210D01*
X28220Y38170D01*
X28720Y37670D02*
X28760Y37750D01*
X28720Y37830D01*
X28800Y37790D01*
X28880Y37830D01*
X28840Y37750D01*
X28880Y37670D01*
X28800Y37710D01*
X28720Y37670D01*
Y38170D02*
X28760Y38250D01*
X28720Y38330D01*
X28800Y38290D01*
X28880Y38330D01*
X28840Y38250D01*
X28880Y38170D01*
X28800Y38210D01*
X28720Y38170D01*
X29220Y37670D02*
X29260Y37750D01*
X29220Y37830D01*
X29300Y37790D01*
X29380Y37830D01*
X29340Y37750D01*
X29380Y37670D01*
X29300Y37710D01*
X29220Y37670D01*
Y38170D02*
X29260Y38250D01*
X29220Y38330D01*
X29300Y38290D01*
X29380Y38330D01*
X29340Y38250D01*
X29380Y38170D01*
X29300Y38210D01*
X29220Y38170D01*
X29720Y37670D02*
X29760Y37750D01*
X29720Y37830D01*
X29800Y37790D01*
X29880Y37830D01*
X29840Y37750D01*
X29880Y37670D01*
X29800Y37710D01*
X29720Y37670D01*
Y38170D02*
X29760Y38250D01*
X29720Y38330D01*
X29800Y38290D01*
X29880Y38330D01*
X29840Y38250D01*
X29880Y38170D01*
X29800Y38210D01*
X29720Y38170D01*
X34617Y38851D02*
Y38811D01*
X34697D01*
Y38851D01*
X34737D01*
Y38931D01*
X34697D01*
Y38971D01*
X34617D01*
Y38931D01*
X34577D01*
Y38851D01*
X34617D01*
X32472D02*
Y38811D01*
X32552D01*
Y38851D01*
X32592D01*
Y38931D01*
X32552D01*
Y38971D01*
X32472D01*
Y38931D01*
X32432D01*
Y38851D01*
X32472D01*
X34459Y37618D02*
X34499D01*
X34539Y37658D01*
X34579Y37618D01*
X34619D01*
Y37658D01*
X34579Y37698D01*
X34619Y37738D01*
Y37778D01*
X34579D01*
X34539Y37738D01*
X34499Y37778D01*
X34459D01*
Y37738D01*
X34499Y37698D01*
X34459Y37658D01*
Y37618D01*
X32550D02*
X32590D01*
X32630Y37658D01*
X32670Y37618D01*
X32710D01*
Y37658D01*
X32670Y37698D01*
X32710Y37738D01*
Y37778D01*
X32670D01*
X32630Y37738D01*
X32590Y37778D01*
X32550D01*
Y37738D01*
X32590Y37698D01*
X32550Y37658D01*
Y37618D01*
X46901Y20544D02*
X46941Y20584D01*
X46981D01*
X46941Y20624D01*
X46981Y20664D01*
X46941D01*
X46901Y20704D01*
X46861Y20664D01*
X46821D01*
X46861Y20624D01*
X46821Y20584D01*
X46861D01*
X46901Y20544D01*
Y22513D02*
X46941Y22553D01*
X46981D01*
X46941Y22593D01*
X46981Y22633D01*
X46941D01*
X46901Y22673D01*
X46861Y22633D01*
X46821D01*
X46861Y22593D01*
X46821Y22553D01*
X46861D01*
X46901Y22513D01*
Y24481D02*
X46941Y24521D01*
X46981D01*
X46941Y24561D01*
X46981Y24601D01*
X46941D01*
X46901Y24641D01*
X46861Y24601D01*
X46821D01*
X46861Y24561D01*
X46821Y24521D01*
X46861D01*
X46901Y24481D01*
X41828Y12930D02*
X41869Y12970D01*
X41908D01*
X41869Y13010D01*
X41908Y13050D01*
X41869D01*
X41828Y13090D01*
X41789Y13050D01*
X41748D01*
X41789Y13010D01*
X41748Y12970D01*
X41789D01*
X41828Y12930D01*
X39860D02*
X39900Y12970D01*
X39940D01*
X39900Y13010D01*
X39940Y13050D01*
X39900D01*
X39860Y13090D01*
X39820Y13050D01*
X39780D01*
X39820Y13010D01*
X39780Y12970D01*
X39820D01*
X39860Y12930D01*
X37891D02*
X37931Y12970D01*
X37971D01*
X37931Y13010D01*
X37971Y13050D01*
X37931D01*
X37891Y13090D01*
X37852Y13050D01*
X37812D01*
X37852Y13010D01*
X37812Y12970D01*
X37852D01*
X37891Y12930D01*
X24711Y39046D02*
Y39206D01*
X24871D01*
Y39046D01*
X24711D01*
X23711D02*
Y39206D01*
X23871D01*
Y39046D01*
X23711D01*
X31614Y12891D02*
Y13051D01*
X31774D01*
Y12891D01*
X31614D01*
X29646D02*
Y13051D01*
X29806D01*
Y12891D01*
X29646D01*
X47350Y35434D02*
Y35594D01*
X47510D01*
Y35434D01*
X47350D01*
Y33466D02*
Y33626D01*
X47510D01*
Y33466D01*
X47350D01*
X11720Y38420D02*
X11800Y38500D01*
X11880Y38420D01*
X11800Y38340D01*
X11720Y38420D01*
X11830Y11840D02*
X11910Y11920D01*
X11990Y11840D01*
X11910Y11760D01*
X11830Y11840D01*
X48070D02*
X48150Y11920D01*
X48230Y11840D01*
X48150Y11760D01*
X48070Y11840D01*
Y38420D02*
X48150Y38500D01*
X48230Y38420D01*
X48150Y38340D01*
X48070Y38420D01*
X30735Y23620D02*
Y23780D01*
X30895D01*
Y23620D01*
X30735D01*
X30775Y23660D02*
Y23740D01*
X30855D01*
Y23660D01*
X30775D01*
X20283Y30640D02*
Y30800D01*
X20443D01*
Y30640D01*
X20283D01*
X20323Y30680D02*
Y30760D01*
X20403D01*
Y30680D01*
X20323D01*
X20603Y30950D02*
Y31110D01*
X20763D01*
Y30950D01*
X20603D01*
X20643Y30990D02*
Y31070D01*
X20723D01*
Y30990D01*
X20643D01*
X20603Y30640D02*
Y30800D01*
X20763D01*
Y30640D01*
X20603D01*
X20643Y30680D02*
Y30760D01*
X20723D01*
Y30680D01*
X20643D01*
X20283Y30950D02*
Y31110D01*
X20443D01*
Y30950D01*
X20283D01*
X20323Y30990D02*
Y31070D01*
X20403D01*
Y30990D01*
X20323D01*
X18840Y34910D02*
Y35070D01*
X19000D01*
Y34910D01*
X18840D01*
X18880Y34950D02*
Y35030D01*
X18960D01*
Y34950D01*
X18880D01*
X18520Y35220D02*
Y35380D01*
X18680D01*
Y35220D01*
X18520D01*
X18560Y35260D02*
Y35340D01*
X18640D01*
Y35260D01*
X18560D01*
X18520Y34910D02*
Y35070D01*
X18680D01*
Y34910D01*
X18520D01*
X18560Y34950D02*
Y35030D01*
X18640D01*
Y34950D01*
X18560D01*
X18840Y35220D02*
Y35380D01*
X19000D01*
Y35220D01*
X18840D01*
X18880Y35260D02*
Y35340D01*
X18960D01*
Y35260D01*
X18880D01*
X26240Y35100D02*
Y35260D01*
X26400D01*
Y35100D01*
X26240D01*
X26280Y35140D02*
Y35220D01*
X26360D01*
Y35140D01*
X26280D01*
X26560Y35410D02*
Y35570D01*
X26720D01*
Y35410D01*
X26560D01*
X26600Y35450D02*
Y35530D01*
X26680D01*
Y35450D01*
X26600D01*
X26560Y35100D02*
Y35260D01*
X26720D01*
Y35100D01*
X26560D01*
X26600Y35140D02*
Y35220D01*
X26680D01*
Y35140D01*
X26600D01*
X26240Y35410D02*
Y35570D01*
X26400D01*
Y35410D01*
X26240D01*
X26280Y35450D02*
Y35530D01*
X26360D01*
Y35450D01*
X26280D01*
X33236Y26604D02*
Y26764D01*
X33396D01*
Y26604D01*
X33236D01*
X33276Y26644D02*
Y26724D01*
X33356D01*
Y26644D01*
X33276D01*
X15947Y27880D02*
Y28040D01*
X16107D01*
Y27880D01*
X15947D01*
X15987Y27920D02*
Y28000D01*
X16067D01*
Y27920D01*
X15987D01*
X15944Y28190D02*
Y28350D01*
X16104D01*
Y28190D01*
X15944D01*
X15984Y28230D02*
Y28310D01*
X16064D01*
Y28230D01*
X15984D01*
X15360Y27257D02*
Y27417D01*
X15520D01*
Y27257D01*
X15360D01*
X15400Y27297D02*
Y27377D01*
X15480D01*
Y27297D01*
X15400D01*
X30450Y29300D02*
Y29460D01*
X30610D01*
Y29300D01*
X30450D01*
X30490Y29340D02*
Y29420D01*
X30570D01*
Y29340D01*
X30490D01*
X47540Y32830D02*
Y32990D01*
X47700D01*
Y32830D01*
X47540D01*
X47580Y32870D02*
Y32950D01*
X47660D01*
Y32870D01*
X47580D01*
X48190Y33950D02*
Y34110D01*
X48350D01*
Y33950D01*
X48190D01*
X48230Y33990D02*
Y34070D01*
X48310D01*
Y33990D01*
X48230D01*
X48330Y32950D02*
Y33110D01*
X48490D01*
Y32950D01*
X48330D01*
X48370Y32990D02*
Y33070D01*
X48450D01*
Y32990D01*
X48370D01*
X45230Y32870D02*
Y33030D01*
X45390D01*
Y32870D01*
X45230D01*
X45270Y32910D02*
Y32990D01*
X45350D01*
Y32910D01*
X45270D01*
X44050Y32810D02*
Y32970D01*
X44210D01*
Y32810D01*
X44050D01*
X44090Y32850D02*
Y32930D01*
X44170D01*
Y32850D01*
X44090D01*
X43110Y32280D02*
Y32440D01*
X43270D01*
Y32280D01*
X43110D01*
X43150Y32320D02*
Y32400D01*
X43230D01*
Y32320D01*
X43150D01*
X42170Y32890D02*
Y33050D01*
X42330D01*
Y32890D01*
X42170D01*
X42210Y32930D02*
Y33010D01*
X42290D01*
Y32930D01*
X42210D01*
X43840Y34310D02*
Y34470D01*
X44000D01*
Y34310D01*
X43840D01*
X43880Y34350D02*
Y34430D01*
X43960D01*
Y34350D01*
X43880D01*
X42010Y34310D02*
Y34470D01*
X42170D01*
Y34310D01*
X42010D01*
X42050Y34350D02*
Y34430D01*
X42130D01*
Y34350D01*
X42050D01*
X43340Y35790D02*
Y35950D01*
X43500D01*
Y35790D01*
X43340D01*
X43380Y35830D02*
Y35910D01*
X43460D01*
Y35830D01*
X43380D01*
X41970Y36830D02*
Y36990D01*
X42130D01*
Y36830D01*
X41970D01*
X42010Y36870D02*
Y36950D01*
X42090D01*
Y36870D01*
X42010D01*
X43430Y37640D02*
Y37800D01*
X43590D01*
Y37640D01*
X43430D01*
X43470Y37680D02*
Y37760D01*
X43550D01*
Y37680D01*
X43470D01*
X47380Y36080D02*
Y36240D01*
X47540D01*
Y36080D01*
X47380D01*
X47420Y36120D02*
Y36200D01*
X47500D01*
Y36120D01*
X47420D01*
X45540Y35610D02*
Y35770D01*
X45700D01*
Y35610D01*
X45540D01*
X45580Y35650D02*
Y35730D01*
X45660D01*
Y35650D01*
X45580D01*
X45380Y36700D02*
Y36860D01*
X45540D01*
Y36700D01*
X45380D01*
X45420Y36740D02*
Y36820D01*
X45500D01*
Y36740D01*
X45420D01*
X15540Y20420D02*
Y20580D01*
X15700D01*
Y20420D01*
X15540D01*
X15580Y20460D02*
Y20540D01*
X15660D01*
Y20460D01*
X15580D01*
X39160Y17410D02*
Y17570D01*
X39320D01*
Y17410D01*
X39160D01*
X39200Y17450D02*
Y17530D01*
X39280D01*
Y17450D01*
X39200D01*
X29220Y38681D02*
Y38841D01*
X29380D01*
Y38681D01*
X29220D01*
X29260Y38721D02*
Y38801D01*
X29340D01*
Y38721D01*
X29260D01*
X16800Y38187D02*
Y38347D01*
X16960D01*
Y38187D01*
X16800D01*
X16840Y38227D02*
Y38307D01*
X16920D01*
Y38227D01*
X16840D01*
X17169Y39320D02*
Y39480D01*
X17329D01*
Y39320D01*
X17169D01*
X17209Y39360D02*
Y39440D01*
X17289D01*
Y39360D01*
X17209D01*
X14910Y39320D02*
Y39480D01*
X15070D01*
Y39320D01*
X14910D01*
X14950Y39360D02*
Y39440D01*
X15030D01*
Y39360D01*
X14950D01*
X13180Y35770D02*
Y35930D01*
X13340D01*
Y35770D01*
X13180D01*
X13220Y35810D02*
Y35890D01*
X13300D01*
Y35810D01*
X13220D01*
X12960Y29290D02*
Y29450D01*
X13120D01*
Y29290D01*
X12960D01*
X13000Y29330D02*
Y29410D01*
X13080D01*
Y29330D01*
X13000D01*
X13710Y31910D02*
Y32070D01*
X13870D01*
Y31910D01*
X13710D01*
X13750Y31950D02*
Y32030D01*
X13830D01*
Y31950D01*
X13750D01*
X13730Y32970D02*
Y33130D01*
X13890D01*
Y32970D01*
X13730D01*
X13770Y33010D02*
Y33090D01*
X13850D01*
Y33010D01*
X13770D01*
X13950Y26752D02*
Y26912D01*
X14110D01*
Y26752D01*
X13950D01*
X13990Y26792D02*
Y26872D01*
X14070D01*
Y26792D01*
X13990D01*
Y27450D02*
Y27610D01*
X14150D01*
Y27450D01*
X13990D01*
X14030Y27490D02*
Y27570D01*
X14110D01*
Y27490D01*
X14030D01*
X13990Y28010D02*
Y28170D01*
X14150D01*
Y28010D01*
X13990D01*
X14030Y28050D02*
Y28130D01*
X14110D01*
Y28050D01*
X14030D01*
X15690Y26800D02*
Y26960D01*
X15850D01*
Y26800D01*
X15690D01*
X15730Y26840D02*
Y26920D01*
X15810D01*
Y26840D01*
X15730D01*
X16024Y26800D02*
Y26960D01*
X16184D01*
Y26800D01*
X16024D01*
X16064Y26840D02*
Y26920D01*
X16144D01*
Y26840D01*
X16064D01*
X14718Y28370D02*
Y28530D01*
X14878D01*
Y28370D01*
X14718D01*
X14758Y28410D02*
Y28490D01*
X14838D01*
Y28410D01*
X14758D01*
X14243Y28394D02*
Y28554D01*
X14403D01*
Y28394D01*
X14243D01*
X14283Y28434D02*
Y28514D01*
X14363D01*
Y28434D01*
X14283D01*
X14240Y29000D02*
Y29160D01*
X14400D01*
Y29000D01*
X14240D01*
X14280Y29040D02*
Y29120D01*
X14360D01*
Y29040D01*
X14280D01*
X14260Y29520D02*
Y29680D01*
X14420D01*
Y29520D01*
X14260D01*
X14300Y29560D02*
Y29640D01*
X14380D01*
Y29560D01*
X14300D01*
X13740Y29600D02*
Y29760D01*
X13900D01*
Y29600D01*
X13740D01*
X13780Y29640D02*
Y29720D01*
X13860D01*
Y29640D01*
X13780D01*
X13750Y30155D02*
Y30315D01*
X13910D01*
Y30155D01*
X13750D01*
X13790Y30195D02*
Y30275D01*
X13870D01*
Y30195D01*
X13790D01*
X15850Y30320D02*
Y30480D01*
X16010D01*
Y30320D01*
X15850D01*
X15890Y30360D02*
Y30440D01*
X15970D01*
Y30360D01*
X15890D01*
X15480Y30420D02*
Y30580D01*
X15640D01*
Y30420D01*
X15480D01*
X15520Y30460D02*
Y30540D01*
X15600D01*
Y30460D01*
X15520D01*
X14070Y30570D02*
Y30730D01*
X14230D01*
Y30570D01*
X14070D01*
X14110Y30610D02*
Y30690D01*
X14190D01*
Y30610D01*
X14110D01*
X14130Y31135D02*
Y31295D01*
X14290D01*
Y31135D01*
X14130D01*
X14170Y31175D02*
Y31255D01*
X14250D01*
Y31175D01*
X14170D01*
X14520Y31510D02*
Y31670D01*
X14680D01*
Y31510D01*
X14520D01*
X14560Y31550D02*
Y31630D01*
X14640D01*
Y31550D01*
X14560D01*
X14530Y32101D02*
Y32261D01*
X14690D01*
Y32101D01*
X14530D01*
X14570Y32141D02*
Y32221D01*
X14650D01*
Y32141D01*
X14570D01*
X14530Y32790D02*
Y32950D01*
X14690D01*
Y32790D01*
X14530D01*
X14570Y32830D02*
Y32910D01*
X14650D01*
Y32830D01*
X14570D01*
X14540Y33240D02*
Y33400D01*
X14700D01*
Y33240D01*
X14540D01*
X14580Y33280D02*
Y33360D01*
X14660D01*
Y33280D01*
X14580D01*
X14100Y33700D02*
Y33860D01*
X14260D01*
Y33700D01*
X14100D01*
X14140Y33740D02*
Y33820D01*
X14220D01*
Y33740D01*
X14140D01*
X13950Y34120D02*
Y34280D01*
X14110D01*
Y34120D01*
X13950D01*
X13990Y34160D02*
Y34240D01*
X14070D01*
Y34160D01*
X13990D01*
X13960Y34690D02*
Y34850D01*
X14120D01*
Y34690D01*
X13960D01*
X14000Y34730D02*
Y34810D01*
X14080D01*
Y34730D01*
X14000D01*
Y35270D02*
Y35430D01*
X14160D01*
Y35270D01*
X14000D01*
X14040Y35310D02*
Y35390D01*
X14120D01*
Y35310D01*
X14040D01*
X14030Y35840D02*
Y36000D01*
X14190D01*
Y35840D01*
X14030D01*
X14070Y35880D02*
Y35960D01*
X14150D01*
Y35880D01*
X14070D01*
X16670Y35670D02*
Y35830D01*
X16830D01*
Y35670D01*
X16670D01*
X16710Y35710D02*
Y35790D01*
X16790D01*
Y35710D01*
X16710D01*
X16610Y34250D02*
Y34410D01*
X16770D01*
Y34250D01*
X16610D01*
X16650Y34290D02*
Y34370D01*
X16730D01*
Y34290D01*
X16650D01*
X15560Y31050D02*
Y31210D01*
X15720D01*
Y31050D01*
X15560D01*
X15600Y31090D02*
Y31170D01*
X15680D01*
Y31090D01*
X15600D01*
X16580Y31048D02*
Y31208D01*
X16740D01*
Y31048D01*
X16580D01*
X16620Y31088D02*
Y31168D01*
X16700D01*
Y31088D01*
X16620D01*
X16340Y31280D02*
Y31440D01*
X16500D01*
Y31280D01*
X16340D01*
X16380Y31320D02*
Y31400D01*
X16460D01*
Y31320D01*
X16380D01*
X16553Y31600D02*
Y31760D01*
X16713D01*
Y31600D01*
X16553D01*
X16593Y31640D02*
Y31720D01*
X16673D01*
Y31640D01*
X16593D01*
X17047Y31660D02*
Y31820D01*
X17207D01*
Y31660D01*
X17047D01*
X17087Y31700D02*
Y31780D01*
X17167D01*
Y31700D01*
X17087D01*
X17230Y31980D02*
Y32140D01*
X17390D01*
Y31980D01*
X17230D01*
X17270Y32020D02*
Y32100D01*
X17350D01*
Y32020D01*
X17270D01*
X17210Y32590D02*
Y32750D01*
X17370D01*
Y32590D01*
X17210D01*
X17250Y32630D02*
Y32710D01*
X17330D01*
Y32630D01*
X17250D01*
X17170Y33080D02*
Y33240D01*
X17330D01*
Y33080D01*
X17170D01*
X17210Y33120D02*
Y33200D01*
X17290D01*
Y33120D01*
X17210D01*
X16550Y33250D02*
Y33410D01*
X16710D01*
Y33250D01*
X16550D01*
X16590Y33290D02*
Y33370D01*
X16670D01*
Y33290D01*
X16590D01*
X15700Y33250D02*
Y33410D01*
X15860D01*
Y33250D01*
X15700D01*
X15740Y33290D02*
Y33370D01*
X15820D01*
Y33290D01*
X15740D01*
X15660Y31690D02*
Y31850D01*
X15820D01*
Y31690D01*
X15660D01*
X15700Y31730D02*
Y31810D01*
X15780D01*
Y31730D01*
X15700D01*
X15360Y31290D02*
Y31450D01*
X15520D01*
Y31290D01*
X15360D01*
X15400Y31330D02*
Y31410D01*
X15480D01*
Y31330D01*
X15400D01*
X15360Y32000D02*
Y32160D01*
X15520D01*
Y32000D01*
X15360D01*
X15400Y32040D02*
Y32120D01*
X15480D01*
Y32040D01*
X15400D01*
X15360Y32960D02*
Y33120D01*
X15520D01*
Y32960D01*
X15360D01*
X15400Y33000D02*
Y33080D01*
X15480D01*
Y33000D01*
X15400D01*
X15360Y33533D02*
Y33693D01*
X15520D01*
Y33533D01*
X15360D01*
X15400Y33573D02*
Y33653D01*
X15480D01*
Y33573D01*
X15400D01*
X15670Y33880D02*
Y34040D01*
X15830D01*
Y33880D01*
X15670D01*
X15710Y33920D02*
Y34000D01*
X15790D01*
Y33920D01*
X15710D01*
X15950Y34230D02*
Y34390D01*
X16110D01*
Y34230D01*
X15950D01*
X15990Y34270D02*
Y34350D01*
X16070D01*
Y34270D01*
X15990D01*
X15950Y34741D02*
Y34901D01*
X16110D01*
Y34741D01*
X15950D01*
X15990Y34781D02*
Y34861D01*
X16070D01*
Y34781D01*
X15990D01*
X15950Y35300D02*
Y35460D01*
X16110D01*
Y35300D01*
X15950D01*
X15990Y35340D02*
Y35420D01*
X16070D01*
Y35340D01*
X15990D01*
X15950Y35810D02*
Y35970D01*
X16110D01*
Y35810D01*
X15950D01*
X15990Y35850D02*
Y35930D01*
X16070D01*
Y35850D01*
X15990D01*
X15320Y36134D02*
Y36294D01*
X15480D01*
Y36134D01*
X15320D01*
X15360Y36174D02*
Y36254D01*
X15440D01*
Y36174D01*
X15360D01*
X14480Y36134D02*
Y36294D01*
X14640D01*
Y36134D01*
X14480D01*
X14520Y36174D02*
Y36254D01*
X14600D01*
Y36174D01*
X14520D01*
X14300Y37860D02*
Y38020D01*
X14460D01*
Y37860D01*
X14300D01*
X14340Y37900D02*
Y37980D01*
X14420D01*
Y37900D01*
X14340D01*
X15545Y37860D02*
Y38020D01*
X15705D01*
Y37860D01*
X15545D01*
X15585Y37900D02*
Y37980D01*
X15665D01*
Y37900D01*
X15585D01*
X37380Y11180D02*
Y11340D01*
X37540D01*
Y11180D01*
X37380D01*
X37420Y11220D02*
Y11300D01*
X37500D01*
Y11220D01*
X37420D01*
X43045Y12420D02*
Y12580D01*
X43205D01*
Y12420D01*
X43045D01*
X43085Y12460D02*
Y12540D01*
X43165D01*
Y12460D01*
X43085D01*
X42420Y11170D02*
Y11330D01*
X42580D01*
Y11170D01*
X42420D01*
X42460Y11210D02*
Y11290D01*
X42540D01*
Y11210D01*
X42460D01*
X41170Y11170D02*
Y11330D01*
X41330D01*
Y11170D01*
X41170D01*
X41210Y11210D02*
Y11290D01*
X41290D01*
Y11210D01*
X41210D01*
X39920Y26170D02*
Y26330D01*
X40080D01*
Y26170D01*
X39920D01*
X39960Y26210D02*
Y26290D01*
X40040D01*
Y26210D01*
X39960D01*
X40545Y24920D02*
Y25080D01*
X40705D01*
Y24920D01*
X40545D01*
X40585Y24960D02*
Y25040D01*
X40665D01*
Y24960D01*
X40585D01*
X39920Y23670D02*
Y23830D01*
X40080D01*
Y23670D01*
X39920D01*
X39960Y23710D02*
Y23790D01*
X40040D01*
Y23710D01*
X39960D01*
X40545Y22420D02*
Y22580D01*
X40705D01*
Y22420D01*
X40545D01*
X40585Y22460D02*
Y22540D01*
X40665D01*
Y22460D01*
X40585D01*
X40545Y19920D02*
Y20080D01*
X40705D01*
Y19920D01*
X40545D01*
X40585Y19960D02*
Y20040D01*
X40665D01*
Y19960D01*
X40585D01*
X40270Y17430D02*
Y17590D01*
X40430D01*
Y17430D01*
X40270D01*
X40310Y17470D02*
Y17550D01*
X40390D01*
Y17470D01*
X40310D01*
X40545Y12420D02*
Y12580D01*
X40705D01*
Y12420D01*
X40545D01*
X40585Y12460D02*
Y12540D01*
X40665D01*
Y12460D01*
X40585D01*
X39920Y11170D02*
Y11330D01*
X40080D01*
Y11170D01*
X39920D01*
X39960Y11210D02*
Y11290D01*
X40040D01*
Y11210D01*
X39960D01*
X38670Y26170D02*
Y26330D01*
X38830D01*
Y26170D01*
X38670D01*
X38710Y26210D02*
Y26290D01*
X38790D01*
Y26210D01*
X38710D01*
X39295Y24920D02*
Y25080D01*
X39455D01*
Y24920D01*
X39295D01*
X39335Y24960D02*
Y25040D01*
X39415D01*
Y24960D01*
X39335D01*
X38670Y23670D02*
Y23830D01*
X38830D01*
Y23670D01*
X38670D01*
X38710Y23710D02*
Y23790D01*
X38790D01*
Y23710D01*
X38710D01*
X39295Y22420D02*
Y22580D01*
X39455D01*
Y22420D01*
X39295D01*
X39335Y22460D02*
Y22540D01*
X39415D01*
Y22460D01*
X39335D01*
X39295Y19920D02*
Y20080D01*
X39455D01*
Y19920D01*
X39295D01*
X39335Y19960D02*
Y20040D01*
X39415D01*
Y19960D01*
X39335D01*
X38670Y18670D02*
Y18830D01*
X38830D01*
Y18670D01*
X38670D01*
X38710Y18710D02*
Y18790D01*
X38790D01*
Y18710D01*
X38710D01*
X38670Y16170D02*
Y16330D01*
X38830D01*
Y16170D01*
X38670D01*
X38710Y16210D02*
Y16290D01*
X38790D01*
Y16210D01*
X38710D01*
X39295Y14920D02*
Y15080D01*
X39455D01*
Y14920D01*
X39295D01*
X39335Y14960D02*
Y15040D01*
X39415D01*
Y14960D01*
X39335D01*
X38580Y12930D02*
Y13090D01*
X38740D01*
Y12930D01*
X38580D01*
X38620Y12970D02*
Y13050D01*
X38700D01*
Y12970D01*
X38620D01*
X38670Y11170D02*
Y11330D01*
X38830D01*
Y11170D01*
X38670D01*
X38710Y11210D02*
Y11290D01*
X38790D01*
Y11210D01*
X38710D01*
X37420Y26170D02*
Y26330D01*
X37580D01*
Y26170D01*
X37420D01*
X37460Y26210D02*
Y26290D01*
X37540D01*
Y26210D01*
X37460D01*
X38045Y24920D02*
Y25080D01*
X38205D01*
Y24920D01*
X38045D01*
X38085Y24960D02*
Y25040D01*
X38165D01*
Y24960D01*
X38085D01*
X37420Y21170D02*
Y21330D01*
X37580D01*
Y21170D01*
X37420D01*
X37460Y21210D02*
Y21290D01*
X37540D01*
Y21210D01*
X37460D01*
X38045Y19920D02*
Y20080D01*
X38205D01*
Y19920D01*
X38045D01*
X38085Y19960D02*
Y20040D01*
X38165D01*
Y19960D01*
X38085D01*
X38045Y17420D02*
Y17580D01*
X38205D01*
Y17420D01*
X38045D01*
X38085Y17460D02*
Y17540D01*
X38165D01*
Y17460D01*
X38085D01*
X38045Y14920D02*
Y15080D01*
X38205D01*
Y14920D01*
X38045D01*
X38085Y14960D02*
Y15040D01*
X38165D01*
Y14960D01*
X38085D01*
X37812Y13720D02*
Y13880D01*
X37971D01*
Y13720D01*
X37812D01*
X37852Y13760D02*
Y13840D01*
X37931D01*
Y13760D01*
X37852D01*
X37830Y12060D02*
Y12220D01*
X37990D01*
Y12060D01*
X37830D01*
X37870Y12100D02*
Y12180D01*
X37950D01*
Y12100D01*
X37870D01*
X36795Y22420D02*
Y22580D01*
X36955D01*
Y22420D01*
X36795D01*
X36835Y22460D02*
Y22540D01*
X36915D01*
Y22460D01*
X36835D01*
X36170Y21170D02*
Y21330D01*
X36330D01*
Y21170D01*
X36170D01*
X36210Y21210D02*
Y21290D01*
X36290D01*
Y21210D01*
X36210D01*
X36170Y18670D02*
Y18830D01*
X36330D01*
Y18670D01*
X36170D01*
X36210Y18710D02*
Y18790D01*
X36290D01*
Y18710D01*
X36210D01*
X36170Y16170D02*
Y16330D01*
X36330D01*
Y16170D01*
X36170D01*
X36210Y16210D02*
Y16290D01*
X36290D01*
Y16210D01*
X36210D01*
X36795Y14920D02*
Y15080D01*
X36955D01*
Y14920D01*
X36795D01*
X36835Y14960D02*
Y15040D01*
X36915D01*
Y14960D01*
X36835D01*
X36170Y13670D02*
Y13830D01*
X36330D01*
Y13670D01*
X36170D01*
X36210Y13710D02*
Y13790D01*
X36290D01*
Y13710D01*
X36210D01*
X37020Y12945D02*
Y13105D01*
X37180D01*
Y12945D01*
X37020D01*
X37060Y12985D02*
Y13065D01*
X37140D01*
Y12985D01*
X37060D01*
X36170Y11170D02*
Y11330D01*
X36330D01*
Y11170D01*
X36170D01*
X36210Y11210D02*
Y11290D01*
X36290D01*
Y11210D01*
X36210D01*
X35545Y37420D02*
Y37580D01*
X35705D01*
Y37420D01*
X35545D01*
X35585Y37460D02*
Y37540D01*
X35665D01*
Y37460D01*
X35585D01*
X34920Y36170D02*
Y36330D01*
X35080D01*
Y36170D01*
X34920D01*
X34960Y36210D02*
Y36290D01*
X35040D01*
Y36210D01*
X34960D01*
X11840Y20450D02*
Y20610D01*
X12000D01*
Y20450D01*
X11840D01*
X11880Y20490D02*
Y20570D01*
X11960D01*
Y20490D01*
X11880D01*
X34920Y33670D02*
Y33830D01*
X35080D01*
Y33670D01*
X34920D01*
X34960Y33710D02*
Y33790D01*
X35040D01*
Y33710D01*
X34960D01*
X35545Y32420D02*
Y32580D01*
X35705D01*
Y32420D01*
X35545D01*
X35585Y32460D02*
Y32540D01*
X35665D01*
Y32460D01*
X35585D01*
X34920Y26170D02*
Y26330D01*
X35080D01*
Y26170D01*
X34920D01*
X34960Y26210D02*
Y26290D01*
X35040D01*
Y26210D01*
X34960D01*
X35545Y24920D02*
Y25080D01*
X35705D01*
Y24920D01*
X35545D01*
X35585Y24960D02*
Y25040D01*
X35665D01*
Y24960D01*
X35585D01*
X35545Y22420D02*
Y22580D01*
X35705D01*
Y22420D01*
X35545D01*
X35585Y22460D02*
Y22540D01*
X35665D01*
Y22460D01*
X35585D01*
X34920Y21170D02*
Y21330D01*
X35080D01*
Y21170D01*
X34920D01*
X34960Y21210D02*
Y21290D01*
X35040D01*
Y21210D01*
X34960D01*
X34920Y18670D02*
Y18830D01*
X35080D01*
Y18670D01*
X34920D01*
X34960Y18710D02*
Y18790D01*
X35040D01*
Y18710D01*
X34960D01*
X34920Y16170D02*
Y16330D01*
X35080D01*
Y16170D01*
X34920D01*
X34960Y16210D02*
Y16290D01*
X35040D01*
Y16210D01*
X34960D01*
X34920Y13670D02*
Y13830D01*
X35080D01*
Y13670D01*
X34920D01*
X34960Y13710D02*
Y13790D01*
X35040D01*
Y13710D01*
X34960D01*
X35545Y12420D02*
Y12580D01*
X35705D01*
Y12420D01*
X35545D01*
X35585Y12460D02*
Y12540D01*
X35665D01*
Y12460D01*
X35585D01*
X34920Y11170D02*
Y11330D01*
X35080D01*
Y11170D01*
X34920D01*
X34960Y11210D02*
Y11290D01*
X35040D01*
Y11210D01*
X34960D01*
X34295Y34920D02*
Y35080D01*
X34455D01*
Y34920D01*
X34295D01*
X34335Y34960D02*
Y35040D01*
X34415D01*
Y34960D01*
X34335D01*
X33940Y33650D02*
Y33810D01*
X34100D01*
Y33650D01*
X33940D01*
X33980Y33690D02*
Y33770D01*
X34060D01*
Y33690D01*
X33980D01*
X34295Y32420D02*
Y32580D01*
X34455D01*
Y32420D01*
X34295D01*
X34335Y32460D02*
Y32540D01*
X34415D01*
Y32460D01*
X34335D01*
X33793Y30870D02*
Y31030D01*
X33953D01*
Y30870D01*
X33793D01*
X33833Y30910D02*
Y30990D01*
X33913D01*
Y30910D01*
X33833D01*
X34295Y24920D02*
Y25080D01*
X34455D01*
Y24920D01*
X34295D01*
X34335Y24960D02*
Y25040D01*
X34415D01*
Y24960D01*
X34335D01*
X33670Y23670D02*
Y23830D01*
X33830D01*
Y23670D01*
X33670D01*
X33710Y23710D02*
Y23790D01*
X33790D01*
Y23710D01*
X33710D01*
X34295Y22420D02*
Y22580D01*
X34455D01*
Y22420D01*
X34295D01*
X34335Y22460D02*
Y22540D01*
X34415D01*
Y22460D01*
X34335D01*
X34010Y20160D02*
Y20320D01*
X34170D01*
Y20160D01*
X34010D01*
X34050Y20200D02*
Y20280D01*
X34130D01*
Y20200D01*
X34050D01*
X34295Y17420D02*
Y17580D01*
X34455D01*
Y17420D01*
X34295D01*
X34335Y17460D02*
Y17540D01*
X34415D01*
Y17460D01*
X34335D01*
X33670Y16170D02*
Y16330D01*
X33830D01*
Y16170D01*
X33670D01*
X33710Y16210D02*
Y16290D01*
X33790D01*
Y16210D01*
X33710D01*
X34295Y14920D02*
Y15080D01*
X34455D01*
Y14920D01*
X34295D01*
X34335Y14960D02*
Y15040D01*
X34415D01*
Y14960D01*
X34335D01*
X33670Y13670D02*
Y13830D01*
X33830D01*
Y13670D01*
X33670D01*
X33710Y13710D02*
Y13790D01*
X33790D01*
Y13710D01*
X33710D01*
X34295Y12420D02*
Y12580D01*
X34455D01*
Y12420D01*
X34295D01*
X34335Y12460D02*
Y12540D01*
X34415D01*
Y12460D01*
X34335D01*
X33670Y11170D02*
Y11330D01*
X33830D01*
Y11170D01*
X33670D01*
X33710Y11210D02*
Y11290D01*
X33790D01*
Y11210D01*
X33710D01*
X33045Y34920D02*
Y35080D01*
X33205D01*
Y34920D01*
X33045D01*
X33085Y34960D02*
Y35040D01*
X33165D01*
Y34960D01*
X33085D01*
X32420Y33670D02*
Y33830D01*
X32580D01*
Y33670D01*
X32420D01*
X32460Y33710D02*
Y33790D01*
X32540D01*
Y33710D01*
X32460D01*
X32420Y31170D02*
Y31330D01*
X32580D01*
Y31170D01*
X32420D01*
X32460Y31210D02*
Y31290D01*
X32540D01*
Y31210D01*
X32460D01*
X33045Y22420D02*
Y22580D01*
X33205D01*
Y22420D01*
X33045D01*
X33085Y22460D02*
Y22540D01*
X33165D01*
Y22460D01*
X33085D01*
X33160Y20140D02*
Y20300D01*
X33320D01*
Y20140D01*
X33160D01*
X33200Y20180D02*
Y20260D01*
X33280D01*
Y20180D01*
X33200D01*
X33045Y17420D02*
Y17580D01*
X33205D01*
Y17420D01*
X33045D01*
X33085Y17460D02*
Y17540D01*
X33165D01*
Y17460D01*
X33085D01*
X32420Y16170D02*
Y16330D01*
X32580D01*
Y16170D01*
X32420D01*
X32460Y16210D02*
Y16290D01*
X32540D01*
Y16210D01*
X32460D01*
X33045Y14920D02*
Y15080D01*
X33205D01*
Y14920D01*
X33045D01*
X33085Y14960D02*
Y15040D01*
X33165D01*
Y14960D01*
X33085D01*
X33045Y12420D02*
Y12580D01*
X33205D01*
Y12420D01*
X33045D01*
X33085Y12460D02*
Y12540D01*
X33165D01*
Y12460D01*
X33085D01*
X32334Y12880D02*
Y13040D01*
X32494D01*
Y12880D01*
X32334D01*
X32374Y12920D02*
Y13000D01*
X32454D01*
Y12920D01*
X32374D01*
X24200Y34744D02*
Y34904D01*
X24360D01*
Y34744D01*
X24200D01*
X24240Y34784D02*
Y34864D01*
X24320D01*
Y34784D01*
X24240D01*
X31560Y37408D02*
Y37568D01*
X31720D01*
Y37408D01*
X31560D01*
X31600Y37448D02*
Y37528D01*
X31680D01*
Y37448D01*
X31600D01*
X31060Y36310D02*
Y36470D01*
X31220D01*
Y36310D01*
X31060D01*
X31100Y36350D02*
Y36430D01*
X31180D01*
Y36350D01*
X31100D01*
X31795Y34920D02*
Y35080D01*
X31955D01*
Y34920D01*
X31795D01*
X31835Y34960D02*
Y35040D01*
X31915D01*
Y34960D01*
X31835D01*
X31370Y33550D02*
Y33710D01*
X31530D01*
Y33550D01*
X31370D01*
X31410Y33590D02*
Y33670D01*
X31490D01*
Y33590D01*
X31410D01*
X31795Y32420D02*
Y32580D01*
X31955D01*
Y32420D01*
X31795D01*
X31835Y32460D02*
Y32540D01*
X31915D01*
Y32460D01*
X31835D01*
X31170Y31170D02*
Y31330D01*
X31330D01*
Y31170D01*
X31170D01*
X31210Y31210D02*
Y31290D01*
X31290D01*
Y31210D01*
X31210D01*
X31243Y26200D02*
Y26360D01*
X31403D01*
Y26200D01*
X31243D01*
X31283Y26240D02*
Y26320D01*
X31363D01*
Y26240D01*
X31283D01*
X30289Y24111D02*
Y24271D01*
X30449D01*
Y24111D01*
X30289D01*
X30329Y24151D02*
Y24231D01*
X30409D01*
Y24151D01*
X30329D01*
X31795Y22420D02*
Y22580D01*
X31955D01*
Y22420D01*
X31795D01*
X31835Y22460D02*
Y22540D01*
X31915D01*
Y22460D01*
X31835D01*
X31170Y21170D02*
Y21330D01*
X31330D01*
Y21170D01*
X31170D01*
X31210Y21210D02*
Y21290D01*
X31290D01*
Y21210D01*
X31210D01*
X31795Y19920D02*
Y20080D01*
X31955D01*
Y19920D01*
X31795D01*
X31835Y19960D02*
Y20040D01*
X31915D01*
Y19960D01*
X31835D01*
X31170Y16170D02*
Y16330D01*
X31330D01*
Y16170D01*
X31170D01*
X31210Y16210D02*
Y16290D01*
X31290D01*
Y16210D01*
X31210D01*
X31795Y14920D02*
Y15080D01*
X31955D01*
Y14920D01*
X31795D01*
X31835Y14960D02*
Y15040D01*
X31915D01*
Y14960D01*
X31835D01*
X31630Y13570D02*
Y13730D01*
X31790D01*
Y13570D01*
X31630D01*
X31670Y13610D02*
Y13690D01*
X31750D01*
Y13610D01*
X31670D01*
X31170Y11170D02*
Y11330D01*
X31330D01*
Y11170D01*
X31170D01*
X31210Y11210D02*
Y11290D01*
X31290D01*
Y11210D01*
X31210D01*
X29920Y38670D02*
Y38830D01*
X30080D01*
Y38670D01*
X29920D01*
X29960Y38710D02*
Y38790D01*
X30040D01*
Y38710D01*
X29960D01*
X30990Y38060D02*
Y38220D01*
X31150D01*
Y38060D01*
X30990D01*
X31030Y38100D02*
Y38180D01*
X31110D01*
Y38100D01*
X31030D01*
X29920Y36170D02*
Y36330D01*
X30080D01*
Y36170D01*
X29920D01*
X29960Y36210D02*
Y36290D01*
X30040D01*
Y36210D01*
X29960D01*
X30545Y34920D02*
Y35080D01*
X30705D01*
Y34920D01*
X30545D01*
X30585Y34960D02*
Y35040D01*
X30665D01*
Y34960D01*
X30585D01*
X30545Y22420D02*
Y22580D01*
X30705D01*
Y22420D01*
X30545D01*
X30585Y22460D02*
Y22540D01*
X30665D01*
Y22460D01*
X30585D01*
X29920Y21170D02*
Y21330D01*
X30080D01*
Y21170D01*
X29920D01*
X29960Y21210D02*
Y21290D01*
X30040D01*
Y21210D01*
X29960D01*
X30545Y19920D02*
Y20080D01*
X30705D01*
Y19920D01*
X30545D01*
X30585Y19960D02*
Y20040D01*
X30665D01*
Y19960D01*
X30585D01*
X29920Y18670D02*
Y18830D01*
X30080D01*
Y18670D01*
X29920D01*
X29960Y18710D02*
Y18790D01*
X30040D01*
Y18710D01*
X29960D01*
X30545Y17420D02*
Y17580D01*
X30705D01*
Y17420D01*
X30545D01*
X30585Y17460D02*
Y17540D01*
X30665D01*
Y17460D01*
X30585D01*
X29920Y16170D02*
Y16330D01*
X30080D01*
Y16170D01*
X29920D01*
X29960Y16210D02*
Y16290D01*
X30040D01*
Y16210D01*
X29960D01*
X30545Y14920D02*
Y15080D01*
X30705D01*
Y14920D01*
X30545D01*
X30585Y14960D02*
Y15040D01*
X30665D01*
Y14960D01*
X30585D01*
X29920Y11170D02*
Y11330D01*
X30080D01*
Y11170D01*
X29920D01*
X29960Y11210D02*
Y11290D01*
X30040D01*
Y11210D01*
X29960D01*
X28670Y38670D02*
Y38830D01*
X28830D01*
Y38670D01*
X28670D01*
X28710Y38710D02*
Y38790D01*
X28790D01*
Y38710D01*
X28710D01*
X27890Y35810D02*
Y35970D01*
X28050D01*
Y35810D01*
X27890D01*
X27930Y35850D02*
Y35930D01*
X28010D01*
Y35850D01*
X27930D01*
X28670Y28670D02*
Y28830D01*
X28830D01*
Y28670D01*
X28670D01*
X28710Y28710D02*
Y28790D01*
X28790D01*
Y28710D01*
X28710D01*
X29295Y19920D02*
Y20080D01*
X29455D01*
Y19920D01*
X29295D01*
X29335Y19960D02*
Y20040D01*
X29415D01*
Y19960D01*
X29335D01*
X29295Y17420D02*
Y17580D01*
X29455D01*
Y17420D01*
X29295D01*
X29335Y17460D02*
Y17540D01*
X29415D01*
Y17460D01*
X29335D01*
X28670Y16170D02*
Y16330D01*
X28830D01*
Y16170D01*
X28670D01*
X28710Y16210D02*
Y16290D01*
X28790D01*
Y16210D01*
X28710D01*
X29295Y14920D02*
Y15080D01*
X29455D01*
Y14920D01*
X29295D01*
X29335Y14960D02*
Y15040D01*
X29415D01*
Y14960D01*
X29335D01*
X28670Y11170D02*
Y11330D01*
X28830D01*
Y11170D01*
X28670D01*
X28710Y11210D02*
Y11290D01*
X28790D01*
Y11210D01*
X28710D01*
X27720Y38670D02*
Y38830D01*
X27880D01*
Y38670D01*
X27720D01*
X27760Y38710D02*
Y38790D01*
X27840D01*
Y38710D01*
X27760D01*
X27420Y36220D02*
Y36380D01*
X27580D01*
Y36220D01*
X27420D01*
X27460Y36260D02*
Y36340D01*
X27540D01*
Y36260D01*
X27460D01*
X27420Y33670D02*
Y33830D01*
X27580D01*
Y33670D01*
X27420D01*
X27460Y33710D02*
Y33790D01*
X27540D01*
Y33710D01*
X27460D01*
X28045Y32420D02*
Y32580D01*
X28205D01*
Y32420D01*
X28045D01*
X28085Y32460D02*
Y32540D01*
X28165D01*
Y32460D01*
X28085D01*
X28045Y29920D02*
Y30080D01*
X28205D01*
Y29920D01*
X28045D01*
X28085Y29960D02*
Y30040D01*
X28165D01*
Y29960D01*
X28085D01*
X27420Y28670D02*
Y28830D01*
X27580D01*
Y28670D01*
X27420D01*
X27460Y28710D02*
Y28790D01*
X27540D01*
Y28710D01*
X27460D01*
X27420Y23670D02*
Y23830D01*
X27580D01*
Y23670D01*
X27420D01*
X27460Y23710D02*
Y23790D01*
X27540D01*
Y23710D01*
X27460D01*
X27420Y16170D02*
Y16330D01*
X27580D01*
Y16170D01*
X27420D01*
X27460Y16210D02*
Y16290D01*
X27540D01*
Y16210D01*
X27460D01*
X28045Y14920D02*
Y15080D01*
X28205D01*
Y14920D01*
X28045D01*
X28085Y14960D02*
Y15040D01*
X28165D01*
Y14960D01*
X28085D01*
X27420Y11170D02*
Y11330D01*
X27580D01*
Y11170D01*
X27420D01*
X27460Y11210D02*
Y11290D01*
X27540D01*
Y11210D01*
X27460D01*
X21070Y34800D02*
Y34960D01*
X21230D01*
Y34800D01*
X21070D01*
X21110Y34840D02*
Y34920D01*
X21190D01*
Y34840D01*
X21110D01*
X26290Y38060D02*
Y38220D01*
X26450D01*
Y38060D01*
X26290D01*
X26330Y38100D02*
Y38180D01*
X26410D01*
Y38100D01*
X26330D01*
X26170Y36170D02*
Y36330D01*
X26330D01*
Y36170D01*
X26170D01*
X26210Y36210D02*
Y36290D01*
X26290D01*
Y36210D01*
X26210D01*
X26170Y33670D02*
Y33830D01*
X26330D01*
Y33670D01*
X26170D01*
X26210Y33710D02*
Y33790D01*
X26290D01*
Y33710D01*
X26210D01*
X26795Y32420D02*
Y32580D01*
X26955D01*
Y32420D01*
X26795D01*
X26835Y32460D02*
Y32540D01*
X26915D01*
Y32460D01*
X26835D01*
X26170Y31170D02*
Y31330D01*
X26330D01*
Y31170D01*
X26170D01*
X26210Y31210D02*
Y31290D01*
X26290D01*
Y31210D01*
X26210D01*
X26795Y29920D02*
Y30080D01*
X26955D01*
Y29920D01*
X26795D01*
X26835Y29960D02*
Y30040D01*
X26915D01*
Y29960D01*
X26835D01*
X26170Y28670D02*
Y28830D01*
X26330D01*
Y28670D01*
X26170D01*
X26210Y28710D02*
Y28790D01*
X26290D01*
Y28710D01*
X26210D01*
X26170Y23670D02*
Y23830D01*
X26330D01*
Y23670D01*
X26170D01*
X26210Y23710D02*
Y23790D01*
X26290D01*
Y23710D01*
X26210D01*
X26170Y16170D02*
Y16330D01*
X26330D01*
Y16170D01*
X26170D01*
X26210Y16210D02*
Y16290D01*
X26290D01*
Y16210D01*
X26210D01*
X26795Y14920D02*
Y15080D01*
X26955D01*
Y14920D01*
X26795D01*
X26835Y14960D02*
Y15040D01*
X26915D01*
Y14960D01*
X26835D01*
X26170Y11170D02*
Y11330D01*
X26330D01*
Y11170D01*
X26170D01*
X26210Y11210D02*
Y11290D01*
X26290D01*
Y11210D01*
X26210D01*
X25545Y37420D02*
Y37580D01*
X25705D01*
Y37420D01*
X25545D01*
X25585Y37460D02*
Y37540D01*
X25665D01*
Y37460D01*
X25585D01*
X24920Y36170D02*
Y36330D01*
X25080D01*
Y36170D01*
X24920D01*
X24960Y36210D02*
Y36290D01*
X25040D01*
Y36210D01*
X24960D01*
X25545Y29920D02*
Y30080D01*
X25705D01*
Y29920D01*
X25545D01*
X25585Y29960D02*
Y30040D01*
X25665D01*
Y29960D01*
X25585D01*
X25545Y24920D02*
Y25080D01*
X25705D01*
Y24920D01*
X25545D01*
X25585Y24960D02*
Y25040D01*
X25665D01*
Y24960D01*
X25585D01*
X24920Y23670D02*
Y23830D01*
X25080D01*
Y23670D01*
X24920D01*
X24960Y23710D02*
Y23790D01*
X25040D01*
Y23710D01*
X24960D01*
X24920Y16170D02*
Y16330D01*
X25080D01*
Y16170D01*
X24920D01*
X24960Y16210D02*
Y16290D01*
X25040D01*
Y16210D01*
X24960D01*
X25545Y14920D02*
Y15080D01*
X25705D01*
Y14920D01*
X25545D01*
X25585Y14960D02*
Y15040D01*
X25665D01*
Y14960D01*
X25585D01*
X24920Y13670D02*
Y13830D01*
X25080D01*
Y13670D01*
X24920D01*
X24960Y13710D02*
Y13790D01*
X25040D01*
Y13710D01*
X24960D01*
X24920Y11170D02*
Y11330D01*
X25080D01*
Y11170D01*
X24920D01*
X24960Y11210D02*
Y11290D01*
X25040D01*
Y11210D01*
X24960D01*
X24220Y37420D02*
Y37580D01*
X24380D01*
Y37420D01*
X24220D01*
X24260Y37460D02*
Y37540D01*
X24340D01*
Y37460D01*
X24260D01*
X24295Y29920D02*
Y30080D01*
X24455D01*
Y29920D01*
X24295D01*
X24335Y29960D02*
Y30040D01*
X24415D01*
Y29960D01*
X24335D01*
X23670Y26170D02*
Y26330D01*
X23830D01*
Y26170D01*
X23670D01*
X23710Y26210D02*
Y26290D01*
X23790D01*
Y26210D01*
X23710D01*
X24295Y24920D02*
Y25080D01*
X24455D01*
Y24920D01*
X24295D01*
X24335Y24960D02*
Y25040D01*
X24415D01*
Y24960D01*
X24335D01*
X23670Y23670D02*
Y23830D01*
X23830D01*
Y23670D01*
X23670D01*
X23710Y23710D02*
Y23790D01*
X23790D01*
Y23710D01*
X23710D01*
X24295Y17420D02*
Y17580D01*
X24455D01*
Y17420D01*
X24295D01*
X24335Y17460D02*
Y17540D01*
X24415D01*
Y17460D01*
X24335D01*
X24295Y14920D02*
Y15080D01*
X24455D01*
Y14920D01*
X24295D01*
X24335Y14960D02*
Y15040D01*
X24415D01*
Y14960D01*
X24335D01*
X24320Y12880D02*
Y13040D01*
X24480D01*
Y12880D01*
X24320D01*
X24360Y12920D02*
Y13000D01*
X24440D01*
Y12920D01*
X24360D01*
X23107Y12170D02*
Y12330D01*
X23267D01*
Y12170D01*
X23107D01*
X23147Y12210D02*
Y12290D01*
X23227D01*
Y12210D01*
X23147D01*
X23670Y11170D02*
Y11330D01*
X23830D01*
Y11170D01*
X23670D01*
X23710Y11210D02*
Y11290D01*
X23790D01*
Y11210D01*
X23710D01*
X22420Y38670D02*
Y38830D01*
X22580D01*
Y38670D01*
X22420D01*
X22460Y38710D02*
Y38790D01*
X22540D01*
Y38710D01*
X22460D01*
X23045Y37420D02*
Y37580D01*
X23205D01*
Y37420D01*
X23045D01*
X23085Y37460D02*
Y37540D01*
X23165D01*
Y37460D01*
X23085D01*
X22420Y36170D02*
Y36330D01*
X22580D01*
Y36170D01*
X22420D01*
X22460Y36210D02*
Y36290D01*
X22540D01*
Y36210D01*
X22460D01*
X23045Y34920D02*
Y35080D01*
X23205D01*
Y34920D01*
X23045D01*
X23085Y34960D02*
Y35040D01*
X23165D01*
Y34960D01*
X23085D01*
X22420Y33670D02*
Y33830D01*
X22580D01*
Y33670D01*
X22420D01*
X22460Y33710D02*
Y33790D01*
X22540D01*
Y33710D01*
X22460D01*
X23045Y32420D02*
Y32580D01*
X23205D01*
Y32420D01*
X23045D01*
X23085Y32460D02*
Y32540D01*
X23165D01*
Y32460D01*
X23085D01*
X22420Y26170D02*
Y26330D01*
X22580D01*
Y26170D01*
X22420D01*
X22460Y26210D02*
Y26290D01*
X22540D01*
Y26210D01*
X22460D01*
X23045Y24920D02*
Y25080D01*
X23205D01*
Y24920D01*
X23045D01*
X23085Y24960D02*
Y25040D01*
X23165D01*
Y24960D01*
X23085D01*
X22420Y23670D02*
Y23830D01*
X22580D01*
Y23670D01*
X22420D01*
X22460Y23710D02*
Y23790D01*
X22540D01*
Y23710D01*
X22460D01*
X23114Y14620D02*
Y14780D01*
X23274D01*
Y14620D01*
X23114D01*
X23154Y14660D02*
Y14740D01*
X23234D01*
Y14660D01*
X23154D01*
X23114Y13650D02*
Y13810D01*
X23274D01*
Y13650D01*
X23114D01*
X23154Y13690D02*
Y13770D01*
X23234D01*
Y13690D01*
X23154D01*
X22420Y11170D02*
Y11330D01*
X22580D01*
Y11170D01*
X22420D01*
X22460Y11210D02*
Y11290D01*
X22540D01*
Y11210D01*
X22460D01*
X21080Y38590D02*
Y38750D01*
X21240D01*
Y38590D01*
X21080D01*
X21120Y38630D02*
Y38710D01*
X21200D01*
Y38630D01*
X21120D01*
X21795Y37420D02*
Y37580D01*
X21955D01*
Y37420D01*
X21795D01*
X21835Y37460D02*
Y37540D01*
X21915D01*
Y37460D01*
X21835D01*
X21795Y34880D02*
Y35040D01*
X21955D01*
Y34880D01*
X21795D01*
X21835Y34920D02*
Y35000D01*
X21915D01*
Y34920D01*
X21835D01*
X21170Y28670D02*
Y28830D01*
X21330D01*
Y28670D01*
X21170D01*
X21210Y28710D02*
Y28790D01*
X21290D01*
Y28710D01*
X21210D01*
X21170Y26170D02*
Y26330D01*
X21330D01*
Y26170D01*
X21170D01*
X21210Y26210D02*
Y26290D01*
X21290D01*
Y26210D01*
X21210D01*
X21795Y24920D02*
Y25080D01*
X21955D01*
Y24920D01*
X21795D01*
X21835Y24960D02*
Y25040D01*
X21915D01*
Y24960D01*
X21835D01*
X21170Y23670D02*
Y23830D01*
X21330D01*
Y23670D01*
X21170D01*
X21210Y23710D02*
Y23790D01*
X21290D01*
Y23710D01*
X21210D01*
X21170Y18670D02*
Y18830D01*
X21330D01*
Y18670D01*
X21170D01*
X21210Y18710D02*
Y18790D01*
X21290D01*
Y18710D01*
X21210D01*
X21795Y17420D02*
Y17580D01*
X21955D01*
Y17420D01*
X21795D01*
X21835Y17460D02*
Y17540D01*
X21915D01*
Y17460D01*
X21835D01*
X21976Y14450D02*
Y14610D01*
X22136D01*
Y14450D01*
X21976D01*
X22016Y14490D02*
Y14570D01*
X22096D01*
Y14490D01*
X22016D01*
X21170Y13670D02*
Y13830D01*
X21330D01*
Y13670D01*
X21170D01*
X21210Y13710D02*
Y13790D01*
X21290D01*
Y13710D01*
X21210D01*
X21850Y12870D02*
Y13030D01*
X22010D01*
Y12870D01*
X21850D01*
X21890Y12910D02*
Y12990D01*
X21970D01*
Y12910D01*
X21890D01*
X21170Y11170D02*
Y11330D01*
X21330D01*
Y11170D01*
X21170D01*
X21210Y11210D02*
Y11290D01*
X21290D01*
Y11210D01*
X21210D01*
X19800Y38690D02*
Y38850D01*
X19960D01*
Y38690D01*
X19800D01*
X19840Y38730D02*
Y38810D01*
X19920D01*
Y38730D01*
X19840D01*
X20545Y34920D02*
Y35080D01*
X20705D01*
Y34920D01*
X20545D01*
X20585Y34960D02*
Y35040D01*
X20665D01*
Y34960D01*
X20585D01*
X20545Y24920D02*
Y25080D01*
X20705D01*
Y24920D01*
X20545D01*
X20585Y24960D02*
Y25040D01*
X20665D01*
Y24960D01*
X20585D01*
X19920Y23670D02*
Y23830D01*
X20080D01*
Y23670D01*
X19920D01*
X19960Y23710D02*
Y23790D01*
X20040D01*
Y23710D01*
X19960D01*
X19920Y18670D02*
Y18830D01*
X20080D01*
Y18670D01*
X19920D01*
X19960Y18710D02*
Y18790D01*
X20040D01*
Y18710D01*
X19960D01*
X20545Y17420D02*
Y17580D01*
X20705D01*
Y17420D01*
X20545D01*
X20585Y17460D02*
Y17540D01*
X20665D01*
Y17460D01*
X20585D01*
X19920Y16170D02*
Y16330D01*
X20080D01*
Y16170D01*
X19920D01*
X19960Y16210D02*
Y16290D01*
X20040D01*
Y16210D01*
X19960D01*
X20545Y14920D02*
Y15080D01*
X20705D01*
Y14920D01*
X20545D01*
X20585Y14960D02*
Y15040D01*
X20665D01*
Y14960D01*
X20585D01*
X19920Y13670D02*
Y13830D01*
X20080D01*
Y13670D01*
X19920D01*
X19960Y13710D02*
Y13790D01*
X20040D01*
Y13710D01*
X19960D01*
X20545Y12420D02*
Y12580D01*
X20705D01*
Y12420D01*
X20545D01*
X20585Y12460D02*
Y12540D01*
X20665D01*
Y12460D01*
X20585D01*
X19920Y11170D02*
Y11330D01*
X20080D01*
Y11170D01*
X19920D01*
X19960Y11210D02*
Y11290D01*
X20040D01*
Y11210D01*
X19960D01*
X18670Y38670D02*
Y38830D01*
X18830D01*
Y38670D01*
X18670D01*
X18710Y38710D02*
Y38790D01*
X18790D01*
Y38710D01*
X18710D01*
X19295Y37420D02*
Y37580D01*
X19455D01*
Y37420D01*
X19295D01*
X19335Y37460D02*
Y37540D01*
X19415D01*
Y37460D01*
X19335D01*
X18670Y36170D02*
Y36330D01*
X18830D01*
Y36170D01*
X18670D01*
X18710Y36210D02*
Y36290D01*
X18790D01*
Y36210D01*
X18710D01*
X18670Y33670D02*
Y33830D01*
X18830D01*
Y33670D01*
X18670D01*
X18710Y33710D02*
Y33790D01*
X18790D01*
Y33710D01*
X18710D01*
X19295Y32420D02*
Y32580D01*
X19455D01*
Y32420D01*
X19295D01*
X19335Y32460D02*
Y32540D01*
X19415D01*
Y32460D01*
X19335D01*
X18670Y31170D02*
Y31330D01*
X18830D01*
Y31170D01*
X18670D01*
X18710Y31210D02*
Y31290D01*
X18790D01*
Y31210D01*
X18710D01*
X13500Y20490D02*
Y20650D01*
X13660D01*
Y20490D01*
X13500D01*
X13540Y20530D02*
Y20610D01*
X13620D01*
Y20530D01*
X13540D01*
X19295Y22420D02*
Y22580D01*
X19455D01*
Y22420D01*
X19295D01*
X19335Y22460D02*
Y22540D01*
X19415D01*
Y22460D01*
X19335D01*
X18670Y21170D02*
Y21330D01*
X18830D01*
Y21170D01*
X18670D01*
X18710Y21210D02*
Y21290D01*
X18790D01*
Y21210D01*
X18710D01*
X19295Y19920D02*
Y20080D01*
X19455D01*
Y19920D01*
X19295D01*
X19335Y19960D02*
Y20040D01*
X19415D01*
Y19960D01*
X19335D01*
X19295Y17420D02*
Y17580D01*
X19455D01*
Y17420D01*
X19295D01*
X19335Y17460D02*
Y17540D01*
X19415D01*
Y17460D01*
X19335D01*
X19295Y14920D02*
Y15080D01*
X19455D01*
Y14920D01*
X19295D01*
X19335Y14960D02*
Y15040D01*
X19415D01*
Y14960D01*
X19335D01*
X18670Y13670D02*
Y13830D01*
X18830D01*
Y13670D01*
X18670D01*
X18710Y13710D02*
Y13790D01*
X18790D01*
Y13710D01*
X18710D01*
X19295Y12420D02*
Y12580D01*
X19455D01*
Y12420D01*
X19295D01*
X19335Y12460D02*
Y12540D01*
X19415D01*
Y12460D01*
X19335D01*
X18670Y11170D02*
Y11330D01*
X18830D01*
Y11170D01*
X18670D01*
X18710Y11210D02*
Y11290D01*
X18790D01*
Y11210D01*
X18710D01*
X17420Y38670D02*
Y38830D01*
X17580D01*
Y38670D01*
X17420D01*
X17460Y38710D02*
Y38790D01*
X17540D01*
Y38710D01*
X17460D01*
X18045Y37420D02*
Y37580D01*
X18205D01*
Y37420D01*
X18045D01*
X18085Y37460D02*
Y37540D01*
X18165D01*
Y37460D01*
X18085D01*
X17420Y36170D02*
Y36330D01*
X17580D01*
Y36170D01*
X17420D01*
X17460Y36210D02*
Y36290D01*
X17540D01*
Y36210D01*
X17460D01*
X17420Y33670D02*
Y33830D01*
X17580D01*
Y33670D01*
X17420D01*
X17460Y33710D02*
Y33790D01*
X17540D01*
Y33710D01*
X17460D01*
X18045Y32420D02*
Y32580D01*
X18205D01*
Y32420D01*
X18045D01*
X18085Y32460D02*
Y32540D01*
X18165D01*
Y32460D01*
X18085D01*
X18045Y24920D02*
Y25080D01*
X18205D01*
Y24920D01*
X18045D01*
X18085Y24960D02*
Y25040D01*
X18165D01*
Y24960D01*
X18085D01*
X17420Y23670D02*
Y23830D01*
X17580D01*
Y23670D01*
X17420D01*
X17460Y23710D02*
Y23790D01*
X17540D01*
Y23710D01*
X17460D01*
X17420Y13670D02*
Y13830D01*
X17580D01*
Y13670D01*
X17420D01*
X17460Y13710D02*
Y13790D01*
X17540D01*
Y13710D01*
X17460D01*
X18045Y12420D02*
Y12580D01*
X18205D01*
Y12420D01*
X18045D01*
X18085Y12460D02*
Y12540D01*
X18165D01*
Y12460D01*
X18085D01*
X17420Y11170D02*
Y11330D01*
X17580D01*
Y11170D01*
X17420D01*
X17460Y11210D02*
Y11290D01*
X17540D01*
Y11210D01*
X17460D01*
X16795Y37420D02*
Y37580D01*
X16955D01*
Y37420D01*
X16795D01*
X16835Y37460D02*
Y37540D01*
X16915D01*
Y37460D01*
X16835D01*
X16795Y34920D02*
Y35080D01*
X16955D01*
Y34920D01*
X16795D01*
X16835Y34960D02*
Y35040D01*
X16915D01*
Y34960D01*
X16835D01*
X16170Y33670D02*
Y33830D01*
X16330D01*
Y33670D01*
X16170D01*
X16210Y33710D02*
Y33790D01*
X16290D01*
Y33710D01*
X16210D01*
X16795Y24920D02*
Y25080D01*
X16955D01*
Y24920D01*
X16795D01*
X16835Y24960D02*
Y25040D01*
X16915D01*
Y24960D01*
X16835D01*
X16170Y23670D02*
Y23830D01*
X16330D01*
Y23670D01*
X16170D01*
X16210Y23710D02*
Y23790D01*
X16290D01*
Y23710D01*
X16210D01*
X16329Y21330D02*
Y21490D01*
X16489D01*
Y21330D01*
X16329D01*
X16369Y21370D02*
Y21450D01*
X16449D01*
Y21370D01*
X16369D01*
X16170Y13670D02*
Y13830D01*
X16330D01*
Y13670D01*
X16170D01*
X16210Y13710D02*
Y13790D01*
X16290D01*
Y13710D01*
X16210D01*
X16795Y12420D02*
Y12580D01*
X16955D01*
Y12420D01*
X16795D01*
X16835Y12460D02*
Y12540D01*
X16915D01*
Y12460D01*
X16835D01*
X31600Y12210D02*
Y12370D01*
X31760D01*
Y12210D01*
X31600D01*
X31640Y12250D02*
Y12330D01*
X31720D01*
Y12250D01*
X31640D01*
X14920Y38670D02*
Y38830D01*
X15080D01*
Y38670D01*
X14920D01*
X14960Y38710D02*
Y38790D01*
X15040D01*
Y38710D01*
X14960D01*
X15545Y37420D02*
Y37580D01*
X15705D01*
Y37420D01*
X15545D01*
X15585Y37460D02*
Y37540D01*
X15665D01*
Y37460D01*
X15585D01*
X15545Y32420D02*
Y32580D01*
X15705D01*
Y32420D01*
X15545D01*
X15585Y32460D02*
Y32540D01*
X15665D01*
Y32460D01*
X15585D01*
X15545Y29920D02*
Y30080D01*
X15705D01*
Y29920D01*
X15545D01*
X15585Y29960D02*
Y30040D01*
X15665D01*
Y29960D01*
X15585D01*
X14920Y26170D02*
Y26330D01*
X15080D01*
Y26170D01*
X14920D01*
X14960Y26210D02*
Y26290D01*
X15040D01*
Y26210D01*
X14960D01*
X15545Y24920D02*
Y25080D01*
X15705D01*
Y24920D01*
X15545D01*
X15585Y24960D02*
Y25040D01*
X15665D01*
Y24960D01*
X15585D01*
X15560Y21330D02*
Y21490D01*
X15720D01*
Y21330D01*
X15560D01*
X15600Y21370D02*
Y21450D01*
X15680D01*
Y21370D01*
X15600D01*
X14920Y13670D02*
Y13830D01*
X15080D01*
Y13670D01*
X14920D01*
X14960Y13710D02*
Y13790D01*
X15040D01*
Y13710D01*
X14960D01*
X15545Y12420D02*
Y12580D01*
X15705D01*
Y12420D01*
X15545D01*
X15585Y12460D02*
Y12540D01*
X15665D01*
Y12460D01*
X15585D01*
X21370Y16180D02*
Y16340D01*
X21530D01*
Y16180D01*
X21370D01*
X21410Y16220D02*
Y16300D01*
X21490D01*
Y16220D01*
X21410D01*
X14295Y37420D02*
Y37580D01*
X14455D01*
Y37420D01*
X14295D01*
X14335Y37460D02*
Y37540D01*
X14415D01*
Y37460D01*
X14335D01*
X14295Y34920D02*
Y35080D01*
X14455D01*
Y34920D01*
X14295D01*
X14335Y34960D02*
Y35040D01*
X14415D01*
Y34960D01*
X14335D01*
X13670Y33670D02*
Y33830D01*
X13830D01*
Y33670D01*
X13670D01*
X13710Y33710D02*
Y33790D01*
X13790D01*
Y33710D01*
X13710D01*
X14295Y32420D02*
Y32580D01*
X14455D01*
Y32420D01*
X14295D01*
X14335Y32460D02*
Y32540D01*
X14415D01*
Y32460D01*
X14335D01*
X13670Y31170D02*
Y31330D01*
X13830D01*
Y31170D01*
X13670D01*
X13710Y31210D02*
Y31290D01*
X13790D01*
Y31210D01*
X13710D01*
X14295Y29920D02*
Y30080D01*
X14455D01*
Y29920D01*
X14295D01*
X14335Y29960D02*
Y30040D01*
X14415D01*
Y29960D01*
X14335D01*
X13670Y28670D02*
Y28830D01*
X13830D01*
Y28670D01*
X13670D01*
X13710Y28710D02*
Y28790D01*
X13790D01*
Y28710D01*
X13710D01*
X13670Y26170D02*
Y26330D01*
X13830D01*
Y26170D01*
X13670D01*
X13710Y26210D02*
Y26290D01*
X13790D01*
Y26210D01*
X13710D01*
X14295Y24920D02*
Y25080D01*
X14455D01*
Y24920D01*
X14295D01*
X14335Y24960D02*
Y25040D01*
X14415D01*
Y24960D01*
X14335D01*
X13670Y23670D02*
Y23830D01*
X13830D01*
Y23670D01*
X13670D01*
X13710Y23710D02*
Y23790D01*
X13790D01*
Y23710D01*
X13710D01*
X14295Y22420D02*
Y22580D01*
X14455D01*
Y22420D01*
X14295D01*
X14335Y22460D02*
Y22540D01*
X14415D01*
Y22460D01*
X14335D01*
X13670Y13670D02*
Y13830D01*
X13830D01*
Y13670D01*
X13670D01*
X13710Y13710D02*
Y13790D01*
X13790D01*
Y13710D01*
X13710D01*
X21650Y11940D02*
Y12100D01*
X21810D01*
Y11940D01*
X21650D01*
X21690Y11980D02*
Y12060D01*
X21770D01*
Y11980D01*
X21690D01*
X12420Y36170D02*
Y36330D01*
X12580D01*
Y36170D01*
X12420D01*
X12460Y36210D02*
Y36290D01*
X12540D01*
Y36210D01*
X12460D01*
X13045Y34920D02*
Y35080D01*
X13205D01*
Y34920D01*
X13045D01*
X13085Y34960D02*
Y35040D01*
X13165D01*
Y34960D01*
X13085D01*
X12420Y33670D02*
Y33830D01*
X12580D01*
Y33670D01*
X12420D01*
X12460Y33710D02*
Y33790D01*
X12540D01*
Y33710D01*
X12460D01*
X13045Y32420D02*
Y32580D01*
X13205D01*
Y32420D01*
X13045D01*
X13085Y32460D02*
Y32540D01*
X13165D01*
Y32460D01*
X13085D01*
X12420Y31170D02*
Y31330D01*
X12580D01*
Y31170D01*
X12420D01*
X12460Y31210D02*
Y31290D01*
X12540D01*
Y31210D01*
X12460D01*
X13045Y29920D02*
Y30080D01*
X13205D01*
Y29920D01*
X13045D01*
X13085Y29960D02*
Y30040D01*
X13165D01*
Y29960D01*
X13085D01*
X12420Y28670D02*
Y28830D01*
X12580D01*
Y28670D01*
X12420D01*
X12460Y28710D02*
Y28790D01*
X12540D01*
Y28710D01*
X12460D01*
X13045Y27420D02*
Y27580D01*
X13205D01*
Y27420D01*
X13045D01*
X13085Y27460D02*
Y27540D01*
X13165D01*
Y27460D01*
X13085D01*
X12420Y26170D02*
Y26330D01*
X12580D01*
Y26170D01*
X12420D01*
X12460Y26210D02*
Y26290D01*
X12540D01*
Y26210D01*
X12460D01*
X12420Y23670D02*
Y23830D01*
X12580D01*
Y23670D01*
X12420D01*
X12460Y23710D02*
Y23790D01*
X12540D01*
Y23710D01*
X12460D01*
X12700Y21256D02*
Y21416D01*
X12860D01*
Y21256D01*
X12700D01*
X12740Y21296D02*
Y21376D01*
X12820D01*
Y21296D01*
X12740D01*
X12710Y19690D02*
Y19850D01*
X12870D01*
Y19690D01*
X12710D01*
X12750Y19730D02*
Y19810D01*
X12830D01*
Y19730D01*
X12750D01*
X11170Y36170D02*
Y36330D01*
X11330D01*
Y36170D01*
X11170D01*
X11210Y36210D02*
Y36290D01*
X11290D01*
Y36210D01*
X11210D01*
X11795Y34920D02*
Y35080D01*
X11955D01*
Y34920D01*
X11795D01*
X11835Y34960D02*
Y35040D01*
X11915D01*
Y34960D01*
X11835D01*
X11170Y33670D02*
Y33830D01*
X11330D01*
Y33670D01*
X11170D01*
X11210Y33710D02*
Y33790D01*
X11290D01*
Y33710D01*
X11210D01*
X11795Y32420D02*
Y32580D01*
X11955D01*
Y32420D01*
X11795D01*
X11835Y32460D02*
Y32540D01*
X11915D01*
Y32460D01*
X11835D01*
X11170Y31170D02*
Y31330D01*
X11330D01*
Y31170D01*
X11170D01*
X11210Y31210D02*
Y31290D01*
X11290D01*
Y31210D01*
X11210D01*
X11795Y29920D02*
Y30080D01*
X11955D01*
Y29920D01*
X11795D01*
X11835Y29960D02*
Y30040D01*
X11915D01*
Y29960D01*
X11835D01*
X11170Y28670D02*
Y28830D01*
X11330D01*
Y28670D01*
X11170D01*
X11210Y28710D02*
Y28790D01*
X11290D01*
Y28710D01*
X11210D01*
X11795Y27420D02*
Y27580D01*
X11955D01*
Y27420D01*
X11795D01*
X11835Y27460D02*
Y27540D01*
X11915D01*
Y27460D01*
X11835D01*
X11170Y26170D02*
Y26330D01*
X11330D01*
Y26170D01*
X11170D01*
X11210Y26210D02*
Y26290D01*
X11290D01*
Y26210D01*
X11210D01*
X11795Y24920D02*
Y25080D01*
X11955D01*
Y24920D01*
X11795D01*
X11835Y24960D02*
Y25040D01*
X11915D01*
Y24960D01*
X11835D01*
X11170Y23670D02*
Y23830D01*
X11330D01*
Y23670D01*
X11170D01*
X11210Y23710D02*
Y23790D01*
X11290D01*
Y23710D01*
X11210D01*
X11795Y22420D02*
Y22580D01*
X11955D01*
Y22420D01*
X11795D01*
X11835Y22460D02*
Y22540D01*
X11915D01*
Y22460D01*
X11835D01*
X11170Y21170D02*
Y21330D01*
X11330D01*
Y21170D01*
X11170D01*
X11210Y21210D02*
Y21290D01*
X11290D01*
Y21210D01*
X11210D01*
X11170Y16170D02*
Y16330D01*
X11330D01*
Y16170D01*
X11170D01*
X11210Y16210D02*
Y16290D01*
X11290D01*
Y16210D01*
X11210D01*
X11170Y13670D02*
Y13830D01*
X11330D01*
Y13670D01*
X11170D01*
X11210Y13710D02*
Y13790D01*
X11290D01*
Y13710D01*
X11210D01*
X29110Y12340D02*
Y12500D01*
X29270D01*
Y12340D01*
X29110D01*
X29150Y12380D02*
Y12460D01*
X29230D01*
Y12380D01*
X29150D01*
X30130Y12340D02*
Y12500D01*
X30290D01*
Y12340D01*
X30130D01*
X30170Y12380D02*
Y12460D01*
X30250D01*
Y12380D01*
X30170D01*
X30130Y13450D02*
Y13610D01*
X30290D01*
Y13450D01*
X30130D01*
X30170Y13490D02*
Y13570D01*
X30250D01*
Y13490D01*
X30170D01*
X29110Y13450D02*
Y13610D01*
X29270D01*
Y13450D01*
X29110D01*
X29150Y13490D02*
Y13570D01*
X29230D01*
Y13490D01*
X29150D01*
X25670Y12897D02*
Y13058D01*
X25830D01*
Y12897D01*
X25670D01*
X25710Y12938D02*
Y13017D01*
X25790D01*
Y12938D01*
X25710D01*
X27237Y13635D02*
Y13795D01*
X27397D01*
Y13635D01*
X27237D01*
X27277Y13675D02*
Y13755D01*
X27357D01*
Y13675D01*
X27277D01*
X28020Y12897D02*
Y13058D01*
X28180D01*
Y12897D01*
X28020D01*
X28060Y12938D02*
Y13017D01*
X28140D01*
Y12938D01*
X28060D01*
X27237Y12155D02*
Y12315D01*
X27397D01*
Y12155D01*
X27237D01*
X27277Y12195D02*
Y12275D01*
X27357D01*
Y12195D01*
X27277D01*
X25670Y12155D02*
Y12315D01*
X25830D01*
Y12155D01*
X25670D01*
X25710Y12195D02*
Y12275D01*
X25790D01*
Y12195D01*
X25710D01*
X26453Y12155D02*
Y12315D01*
X26613D01*
Y12155D01*
X26453D01*
X26493Y12195D02*
Y12275D01*
X26573D01*
Y12195D01*
X26493D01*
X28020Y12155D02*
Y12315D01*
X28180D01*
Y12155D01*
X28020D01*
X28060Y12195D02*
Y12275D01*
X28140D01*
Y12195D01*
X28060D01*
X28020Y13635D02*
Y13795D01*
X28180D01*
Y13635D01*
X28020D01*
X28060Y13675D02*
Y13755D01*
X28140D01*
Y13675D01*
X28060D01*
X25670Y13640D02*
Y13800D01*
X25830D01*
Y13640D01*
X25670D01*
X25710Y13680D02*
Y13760D01*
X25790D01*
Y13680D01*
X25710D01*
X26453Y13635D02*
Y13795D01*
X26613D01*
Y13635D01*
X26453D01*
X26493Y13675D02*
Y13755D01*
X26573D01*
Y13675D01*
X26493D01*
X32639Y35659D02*
Y35819D01*
X32799D01*
Y35659D01*
X32639D01*
X32679Y35699D02*
Y35779D01*
X32759D01*
Y35699D01*
X32679D01*
X49040Y32190D02*
Y32350D01*
X49200D01*
Y32190D01*
X49040D01*
X49080Y32230D02*
Y32310D01*
X49160D01*
Y32230D01*
X49080D01*
X47880Y32170D02*
Y32330D01*
X48040D01*
Y32170D01*
X47880D01*
X47920Y32210D02*
Y32290D01*
X48000D01*
Y32210D01*
X47920D01*
X34373Y31370D02*
Y31530D01*
X34533D01*
Y31370D01*
X34373D01*
X34413Y31410D02*
Y31490D01*
X34493D01*
Y31410D01*
X34413D01*
X30210Y25780D02*
Y25940D01*
X30370D01*
Y25780D01*
X30210D01*
X30250Y25820D02*
Y25900D01*
X30330D01*
Y25820D01*
X30250D01*
X30200Y26150D02*
Y26310D01*
X30360D01*
Y26150D01*
X30200D01*
X30240Y26190D02*
Y26270D01*
X30320D01*
Y26190D01*
X30240D01*
X34590Y28405D02*
Y28565D01*
X34750D01*
Y28405D01*
X34590D01*
X34630Y28445D02*
Y28525D01*
X34710D01*
Y28445D01*
X34630D01*
X34580Y28050D02*
Y28210D01*
X34740D01*
Y28050D01*
X34580D01*
X34620Y28090D02*
Y28170D01*
X34700D01*
Y28090D01*
X34620D01*
X31039Y29270D02*
Y29430D01*
X31199D01*
Y29270D01*
X31039D01*
X31079Y29310D02*
Y29390D01*
X31159D01*
Y29310D01*
X31079D01*
X31440Y29270D02*
Y29430D01*
X31600D01*
Y29270D01*
X31440D01*
X31480Y29310D02*
Y29390D01*
X31560D01*
Y29310D01*
X31480D01*
X13510Y15670D02*
Y15830D01*
X13670D01*
Y15670D01*
X13510D01*
X13550Y15710D02*
Y15790D01*
X13630D01*
Y15710D01*
X13550D01*
X12810Y16020D02*
Y16180D01*
X12970D01*
Y16020D01*
X12810D01*
X12850Y16060D02*
Y16140D01*
X12930D01*
Y16060D01*
X12850D01*
X24160Y18400D02*
Y18560D01*
X24320D01*
Y18400D01*
X24160D01*
X24200Y18440D02*
Y18520D01*
X24280D01*
Y18440D01*
X24200D01*
X12810Y16720D02*
Y16880D01*
X12970D01*
Y16720D01*
X12810D01*
X12850Y16760D02*
Y16840D01*
X12930D01*
Y16760D01*
X12850D01*
X12460Y17070D02*
Y17230D01*
X12620D01*
Y17070D01*
X12460D01*
X12500Y17110D02*
Y17190D01*
X12580D01*
Y17110D01*
X12500D01*
X22760Y19450D02*
Y19610D01*
X22920D01*
Y19450D01*
X22760D01*
X22800Y19490D02*
Y19570D01*
X22880D01*
Y19490D01*
X22800D01*
X23460Y18750D02*
Y18910D01*
X23620D01*
Y18750D01*
X23460D01*
X23500Y18790D02*
Y18870D01*
X23580D01*
Y18790D01*
X23500D01*
X13860Y15670D02*
Y15830D01*
X14020D01*
Y15670D01*
X13860D01*
X13900Y15710D02*
Y15790D01*
X13980D01*
Y15710D01*
X13900D01*
X12460Y16020D02*
Y16180D01*
X12620D01*
Y16020D01*
X12460D01*
X12500Y16060D02*
Y16140D01*
X12580D01*
Y16060D01*
X12500D01*
X12460Y17420D02*
Y17580D01*
X12620D01*
Y17420D01*
X12460D01*
X12500Y17460D02*
Y17540D01*
X12580D01*
Y17460D01*
X12500D01*
X12460Y16370D02*
Y16530D01*
X12620D01*
Y16370D01*
X12460D01*
X12500Y16410D02*
Y16490D01*
X12580D01*
Y16410D01*
X12500D01*
X23810Y18400D02*
Y18560D01*
X23970D01*
Y18400D01*
X23810D01*
X23850Y18440D02*
Y18520D01*
X23930D01*
Y18440D01*
X23850D01*
X23110Y19100D02*
Y19260D01*
X23270D01*
Y19100D01*
X23110D01*
X23150Y19140D02*
Y19220D01*
X23230D01*
Y19140D01*
X23150D01*
X24160Y18750D02*
Y18910D01*
X24320D01*
Y18750D01*
X24160D01*
X24200Y18790D02*
Y18870D01*
X24280D01*
Y18790D01*
X24200D01*
X12460Y16720D02*
Y16880D01*
X12620D01*
Y16720D01*
X12460D01*
X12500Y16760D02*
Y16840D01*
X12580D01*
Y16760D01*
X12500D01*
X23460Y18050D02*
Y18210D01*
X23620D01*
Y18050D01*
X23460D01*
X23500Y18090D02*
Y18170D01*
X23580D01*
Y18090D01*
X23500D01*
X13160Y16370D02*
Y16530D01*
X13320D01*
Y16370D01*
X13160D01*
X13200Y16410D02*
Y16490D01*
X13280D01*
Y16410D01*
X13200D01*
X24160Y18050D02*
Y18210D01*
X24320D01*
Y18050D01*
X24160D01*
X24200Y18090D02*
Y18170D01*
X24280D01*
Y18090D01*
X24200D01*
X13510Y16370D02*
Y16530D01*
X13670D01*
Y16370D01*
X13510D01*
X13550Y16410D02*
Y16490D01*
X13630D01*
Y16410D01*
X13550D01*
X23810Y19100D02*
Y19260D01*
X23970D01*
Y19100D01*
X23810D01*
X23850Y19140D02*
Y19220D01*
X23930D01*
Y19140D01*
X23850D01*
X22760Y20500D02*
Y20660D01*
X22920D01*
Y20500D01*
X22760D01*
X22800Y20540D02*
Y20620D01*
X22880D01*
Y20540D01*
X22800D01*
X13860Y16370D02*
Y16530D01*
X14020D01*
Y16370D01*
X13860D01*
X13900Y16410D02*
Y16490D01*
X13980D01*
Y16410D01*
X13900D01*
X13160Y16020D02*
Y16180D01*
X13320D01*
Y16020D01*
X13160D01*
X13200Y16060D02*
Y16140D01*
X13280D01*
Y16060D01*
X13200D01*
X24160Y19100D02*
Y19260D01*
X24320D01*
Y19100D01*
X24160D01*
X24200Y19140D02*
Y19220D01*
X24280D01*
Y19140D01*
X24200D01*
X22760Y19800D02*
Y19960D01*
X22920D01*
Y19800D01*
X22760D01*
X22800Y19840D02*
Y19920D01*
X22880D01*
Y19840D01*
X22800D01*
X23460Y19100D02*
Y19260D01*
X23620D01*
Y19100D01*
X23460D01*
X23500Y19140D02*
Y19220D01*
X23580D01*
Y19140D01*
X23500D01*
X12460Y17770D02*
Y17930D01*
X12620D01*
Y17770D01*
X12460D01*
X12500Y17810D02*
Y17890D01*
X12580D01*
Y17810D01*
X12500D01*
X13160Y16720D02*
Y16880D01*
X13320D01*
Y16720D01*
X13160D01*
X13200Y16760D02*
Y16840D01*
X13280D01*
Y16760D01*
X13200D01*
X23460Y18400D02*
Y18560D01*
X23620D01*
Y18400D01*
X23460D01*
X23500Y18440D02*
Y18520D01*
X23580D01*
Y18440D01*
X23500D01*
X22760Y20150D02*
Y20310D01*
X22920D01*
Y20150D01*
X22760D01*
X22800Y20190D02*
Y20270D01*
X22880D01*
Y20190D01*
X22800D01*
X22760Y18400D02*
Y18560D01*
X22920D01*
Y18400D01*
X22760D01*
X22800Y18440D02*
Y18520D01*
X22880D01*
Y18440D01*
X22800D01*
X13860Y16720D02*
Y16880D01*
X14020D01*
Y16720D01*
X13860D01*
X13900Y16760D02*
Y16840D01*
X13980D01*
Y16760D01*
X13900D01*
X12810Y16370D02*
Y16530D01*
X12970D01*
Y16370D01*
X12810D01*
X12850Y16410D02*
Y16490D01*
X12930D01*
Y16410D01*
X12850D01*
X23810Y18050D02*
Y18210D01*
X23970D01*
Y18050D01*
X23810D01*
X23850Y18090D02*
Y18170D01*
X23930D01*
Y18090D01*
X23850D01*
X13860Y16020D02*
Y16180D01*
X14020D01*
Y16020D01*
X13860D01*
X13900Y16060D02*
Y16140D01*
X13980D01*
Y16060D01*
X13900D01*
X23110Y18400D02*
Y18560D01*
X23270D01*
Y18400D01*
X23110D01*
X23150Y18440D02*
Y18520D01*
X23230D01*
Y18440D01*
X23150D01*
X13510Y16020D02*
Y16180D01*
X13670D01*
Y16020D01*
X13510D01*
X13550Y16060D02*
Y16140D01*
X13630D01*
Y16060D01*
X13550D01*
X22760Y19100D02*
Y19260D01*
X22920D01*
Y19100D01*
X22760D01*
X22800Y19140D02*
Y19220D01*
X22880D01*
Y19140D01*
X22800D01*
X22760Y18750D02*
Y18910D01*
X22920D01*
Y18750D01*
X22760D01*
X22800Y18790D02*
Y18870D01*
X22880D01*
Y18790D01*
X22800D01*
X12460Y18120D02*
Y18280D01*
X12620D01*
Y18120D01*
X12460D01*
X12500Y18160D02*
Y18240D01*
X12580D01*
Y18160D01*
X12500D01*
X13510Y16720D02*
Y16880D01*
X13670D01*
Y16720D01*
X13510D01*
X13550Y16760D02*
Y16840D01*
X13630D01*
Y16760D01*
X13550D01*
X23110Y18750D02*
Y18910D01*
X23270D01*
Y18750D01*
X23110D01*
X23150Y18790D02*
Y18870D01*
X23230D01*
Y18790D01*
X23150D01*
X13160Y15670D02*
Y15830D01*
X13320D01*
Y15670D01*
X13160D01*
X13200Y15710D02*
Y15790D01*
X13280D01*
Y15710D01*
X13200D01*
X23810Y18750D02*
Y18910D01*
X23970D01*
Y18750D01*
X23810D01*
X23850Y18790D02*
Y18870D01*
X23930D01*
Y18790D01*
X23850D01*
X13770Y17590D02*
Y17750D01*
X13930D01*
Y17590D01*
X13770D01*
X13810Y17630D02*
Y17710D01*
X13890D01*
Y17630D01*
X13810D01*
X13470Y18490D02*
Y18650D01*
X13630D01*
Y18490D01*
X13470D01*
X13510Y18530D02*
Y18610D01*
X13590D01*
Y18530D01*
X13510D01*
X13770Y18190D02*
Y18350D01*
X13930D01*
Y18190D01*
X13770D01*
X13810Y18230D02*
Y18310D01*
X13890D01*
Y18230D01*
X13810D01*
X13170Y18190D02*
Y18350D01*
X13330D01*
Y18190D01*
X13170D01*
X13210Y18230D02*
Y18310D01*
X13290D01*
Y18230D01*
X13210D01*
X14070Y17890D02*
Y18050D01*
X14230D01*
Y17890D01*
X14070D01*
X14110Y17930D02*
Y18010D01*
X14190D01*
Y17930D01*
X14110D01*
X13170Y18490D02*
Y18650D01*
X13330D01*
Y18490D01*
X13170D01*
X13210Y18530D02*
Y18610D01*
X13290D01*
Y18530D01*
X13210D01*
X13170Y17590D02*
Y17750D01*
X13330D01*
Y17590D01*
X13170D01*
X13210Y17630D02*
Y17710D01*
X13290D01*
Y17630D01*
X13210D01*
X13770Y18490D02*
Y18650D01*
X13930D01*
Y18490D01*
X13770D01*
X13810Y18530D02*
Y18610D01*
X13890D01*
Y18530D01*
X13810D01*
X13470Y17590D02*
Y17750D01*
X13630D01*
Y17590D01*
X13470D01*
X13510Y17630D02*
Y17710D01*
X13590D01*
Y17630D01*
X13510D01*
X14070Y18190D02*
Y18350D01*
X14230D01*
Y18190D01*
X14070D01*
X14110Y18230D02*
Y18310D01*
X14190D01*
Y18230D01*
X14110D01*
X14070Y17590D02*
Y17750D01*
X14230D01*
Y17590D01*
X14070D01*
X14110Y17630D02*
Y17710D01*
X14190D01*
Y17630D01*
X14110D01*
X13770Y17890D02*
Y18050D01*
X13930D01*
Y17890D01*
X13770D01*
X13810Y17930D02*
Y18010D01*
X13890D01*
Y17930D01*
X13810D01*
X14070Y18490D02*
Y18650D01*
X14230D01*
Y18490D01*
X14070D01*
X14110Y18530D02*
Y18610D01*
X14190D01*
Y18530D01*
X14110D01*
X13470Y17890D02*
Y18050D01*
X13630D01*
Y17890D01*
X13470D01*
X13510Y17930D02*
Y18010D01*
X13590D01*
Y17930D01*
X13510D01*
X13470Y18190D02*
Y18350D01*
X13630D01*
Y18190D01*
X13470D01*
X13510Y18230D02*
Y18310D01*
X13590D01*
Y18230D01*
X13510D01*
X13170Y17890D02*
Y18050D01*
X13330D01*
Y17890D01*
X13170D01*
X13210Y17930D02*
Y18010D01*
X13290D01*
Y17930D01*
X13210D01*
X17290Y29139D02*
Y29299D01*
X17450D01*
Y29139D01*
X17290D01*
X17330Y29179D02*
Y29259D01*
X17410D01*
Y29179D01*
X17330D01*
X16440Y29139D02*
Y29299D01*
X16600D01*
Y29139D01*
X16440D01*
X16480Y29179D02*
Y29259D01*
X16560D01*
Y29179D01*
X16480D01*
X16440Y28680D02*
Y28840D01*
X16600D01*
Y28680D01*
X16440D01*
X16480Y28720D02*
Y28800D01*
X16560D01*
Y28720D01*
X16480D01*
X16875Y28680D02*
Y28840D01*
X17035D01*
Y28680D01*
X16875D01*
X16915Y28720D02*
Y28800D01*
X16995D01*
Y28720D01*
X16915D01*
X16873Y29139D02*
Y29299D01*
X17033D01*
Y29139D01*
X16873D01*
X16913Y29179D02*
Y29259D01*
X16993D01*
Y29179D01*
X16913D01*
X16440Y29580D02*
Y29740D01*
X16600D01*
Y29580D01*
X16440D01*
X16480Y29620D02*
Y29700D01*
X16560D01*
Y29620D01*
X16480D01*
X31490Y35802D02*
Y35962D01*
X31650D01*
Y35802D01*
X31490D01*
X31530Y35842D02*
Y35922D01*
X31610D01*
Y35842D01*
X31530D01*
X29509Y22411D02*
Y22571D01*
X29669D01*
Y22411D01*
X29509D01*
X29549Y22451D02*
Y22531D01*
X29629D01*
Y22451D01*
X29549D01*
X33570Y20590D02*
Y20750D01*
X33730D01*
Y20590D01*
X33570D01*
X33610Y20630D02*
Y20710D01*
X33690D01*
Y20630D01*
X33610D01*
X31445Y15485D02*
Y15645D01*
X31605D01*
Y15485D01*
X31445D01*
X31485Y15525D02*
Y15605D01*
X31565D01*
Y15525D01*
X31485D01*
X35795Y15485D02*
Y15645D01*
X35955D01*
Y15485D01*
X35795D01*
X35835Y15525D02*
Y15605D01*
X35915D01*
Y15525D01*
X35835D01*
X39660Y16620D02*
Y16780D01*
X39820D01*
Y16620D01*
X39660D01*
X39700Y16660D02*
Y16740D01*
X39780D01*
Y16660D01*
X39700D01*
X39660Y21690D02*
Y21850D01*
X39820D01*
Y21690D01*
X39660D01*
X39700Y21730D02*
Y21810D01*
X39780D01*
Y21730D01*
X39700D01*
X37780Y22747D02*
Y22907D01*
X37940D01*
Y22747D01*
X37780D01*
X37820Y22787D02*
Y22867D01*
X37900D01*
Y22787D01*
X37820D01*
X35832Y22952D02*
Y23112D01*
X35992D01*
Y22952D01*
X35832D01*
X35872Y22992D02*
Y23072D01*
X35952D01*
Y22992D01*
X35872D01*
X30180Y38100D02*
Y38260D01*
X30340D01*
Y38100D01*
X30180D01*
X30220Y38140D02*
Y38220D01*
X30300D01*
Y38140D01*
X30220D01*
X27130Y38060D02*
Y38220D01*
X27290D01*
Y38060D01*
X27130D01*
X27170Y38100D02*
Y38180D01*
X27250D01*
Y38100D01*
X27170D01*
X34876Y29312D02*
Y29472D01*
X35036D01*
Y29312D01*
X34876D01*
X34916Y29352D02*
Y29432D01*
X34996D01*
Y29352D01*
X34916D01*
X34661Y35659D02*
Y35819D01*
X34821D01*
Y35659D01*
X34661D01*
X34701Y35699D02*
Y35779D01*
X34781D01*
Y35699D01*
X34701D01*
X32770Y37010D02*
Y37170D01*
X32930D01*
Y37010D01*
X32770D01*
X32810Y37050D02*
Y37130D01*
X32890D01*
Y37050D01*
X32810D01*
X32141Y35312D02*
Y35472D01*
X32301D01*
Y35312D01*
X32141D01*
X32181Y35352D02*
Y35432D01*
X32261D01*
Y35352D01*
X32181D01*
X24225Y36955D02*
Y37115D01*
X24385D01*
Y36955D01*
X24225D01*
X24265Y36995D02*
Y37075D01*
X24345D01*
Y36995D01*
X24265D01*
X21045Y37015D02*
Y37175D01*
X21205D01*
Y37015D01*
X21045D01*
X21085Y37055D02*
Y37135D01*
X21165D01*
Y37055D01*
X21085D01*
X40750Y16310D02*
Y16470D01*
X40910D01*
Y16310D01*
X40750D01*
X40790Y16350D02*
Y16430D01*
X40870D01*
Y16350D01*
X40790D01*
X20640Y21310D02*
Y21470D01*
X20800D01*
Y21310D01*
X20640D01*
X20680Y21350D02*
Y21430D01*
X20760D01*
Y21350D01*
X20680D01*
X21215Y21310D02*
Y21470D01*
X21375D01*
Y21310D01*
X21215D01*
X21255Y21350D02*
Y21430D01*
X21335D01*
Y21350D01*
X21255D01*
X21790Y21310D02*
Y21470D01*
X21950D01*
Y21310D01*
X21790D01*
X21830Y21350D02*
Y21430D01*
X21910D01*
Y21350D01*
X21830D01*
X20640Y20647D02*
Y20807D01*
X20800D01*
Y20647D01*
X20640D01*
X20680Y20687D02*
Y20767D01*
X20760D01*
Y20687D01*
X20680D01*
X21215Y20647D02*
Y20807D01*
X21375D01*
Y20647D01*
X21215D01*
X21255Y20687D02*
Y20767D01*
X21335D01*
Y20687D01*
X21255D01*
X21790Y20647D02*
Y20807D01*
X21950D01*
Y20647D01*
X21790D01*
X21830Y20687D02*
Y20767D01*
X21910D01*
Y20687D01*
X21830D01*
X20640Y19993D02*
Y20153D01*
X20800D01*
Y19993D01*
X20640D01*
X20680Y20033D02*
Y20113D01*
X20760D01*
Y20033D01*
X20680D01*
X21215Y19993D02*
Y20153D01*
X21375D01*
Y19993D01*
X21215D01*
X21255Y20033D02*
Y20113D01*
X21335D01*
Y20033D01*
X21255D01*
X21790Y19993D02*
Y20153D01*
X21950D01*
Y19993D01*
X21790D01*
X21830Y20033D02*
Y20113D01*
X21910D01*
Y20033D01*
X21830D01*
X20640Y19340D02*
Y19500D01*
X20800D01*
Y19340D01*
X20640D01*
X20680Y19380D02*
Y19460D01*
X20760D01*
Y19380D01*
X20680D01*
X21215Y19340D02*
Y19500D01*
X21375D01*
Y19340D01*
X21215D01*
X21255Y19380D02*
Y19460D01*
X21335D01*
Y19380D01*
X21255D01*
X21790Y19340D02*
Y19500D01*
X21950D01*
Y19340D01*
X21790D01*
X21830Y19380D02*
Y19460D01*
X21910D01*
Y19380D01*
X21830D01*
X11500Y16890D02*
Y17050D01*
X11660D01*
Y16890D01*
X11500D01*
X11540Y16930D02*
Y17010D01*
X11620D01*
Y16930D01*
X11540D01*
X10925Y16890D02*
Y17050D01*
X11085D01*
Y16890D01*
X10925D01*
X10965Y16930D02*
Y17010D01*
X11045D01*
Y16930D01*
X10965D01*
X10350Y16890D02*
Y17050D01*
X10510D01*
Y16890D01*
X10350D01*
X10390Y16930D02*
Y17010D01*
X10470D01*
Y16930D01*
X10390D01*
X11500Y17543D02*
Y17703D01*
X11660D01*
Y17543D01*
X11500D01*
X11540Y17583D02*
Y17663D01*
X11620D01*
Y17583D01*
X11540D01*
X10925Y17543D02*
Y17703D01*
X11085D01*
Y17543D01*
X10925D01*
X10965Y17583D02*
Y17663D01*
X11045D01*
Y17583D01*
X10965D01*
X10350Y17543D02*
Y17703D01*
X10510D01*
Y17543D01*
X10350D01*
X10390Y17583D02*
Y17663D01*
X10470D01*
Y17583D01*
X10390D01*
X11500Y18197D02*
Y18357D01*
X11660D01*
Y18197D01*
X11500D01*
X11540Y18237D02*
Y18317D01*
X11620D01*
Y18237D01*
X11540D01*
X10925Y18197D02*
Y18357D01*
X11085D01*
Y18197D01*
X10925D01*
X10965Y18237D02*
Y18317D01*
X11045D01*
Y18237D01*
X10965D01*
X10350Y18197D02*
Y18357D01*
X10510D01*
Y18197D01*
X10350D01*
X10390Y18237D02*
Y18317D01*
X10470D01*
Y18237D01*
X10390D01*
X11500Y18860D02*
Y19020D01*
X11660D01*
Y18860D01*
X11500D01*
X11540Y18900D02*
Y18980D01*
X11620D01*
Y18900D01*
X11540D01*
X10925Y18860D02*
Y19020D01*
X11085D01*
Y18860D01*
X10925D01*
X10965Y18900D02*
Y18980D01*
X11045D01*
Y18900D01*
X10965D01*
X10350Y18860D02*
Y19020D01*
X10510D01*
Y18860D01*
X10350D01*
X10390Y18900D02*
Y18980D01*
X10470D01*
Y18900D01*
X10390D01*
X17310Y28680D02*
Y28840D01*
X17470D01*
Y28680D01*
X17310D01*
X17350Y28720D02*
Y28800D01*
X17430D01*
Y28720D01*
X17350D01*
X17310Y29580D02*
Y29740D01*
X17470D01*
Y29580D01*
X17310D01*
X17350Y29620D02*
Y29700D01*
X17430D01*
Y29620D01*
X17350D01*
X16875Y29580D02*
Y29740D01*
X17035D01*
Y29580D01*
X16875D01*
X16915Y29620D02*
Y29700D01*
X16995D01*
Y29620D01*
X16915D01*
X20459Y28701D02*
Y28861D01*
X20619D01*
Y28701D01*
X20459D01*
X20499Y28741D02*
Y28821D01*
X20579D01*
Y28741D01*
X20499D01*
X42900Y22590D02*
Y22750D01*
X43060D01*
Y22590D01*
X42900D01*
X42940Y22630D02*
Y22710D01*
X43020D01*
Y22630D01*
X42940D01*
X44472Y18880D02*
Y19040D01*
X44632D01*
Y18880D01*
X44472D01*
X44512Y18920D02*
Y19000D01*
X44592D01*
Y18920D01*
X44512D01*
X32555Y23775D02*
Y23935D01*
X32715D01*
Y23775D01*
X32555D01*
X32595Y23815D02*
Y23895D01*
X32675D01*
Y23815D01*
X32595D01*
X22750Y15789D02*
Y15949D01*
X22910D01*
Y15789D01*
X22750D01*
X22790Y15829D02*
Y15909D01*
X22870D01*
Y15829D01*
X22790D01*
X22121Y15789D02*
Y15949D01*
X22281D01*
Y15789D01*
X22121D01*
X22161Y15829D02*
Y15909D01*
X22241D01*
Y15829D01*
X22161D01*
X25760Y32310D02*
Y32470D01*
X25920D01*
Y32310D01*
X25760D01*
X25800Y32350D02*
Y32430D01*
X25880D01*
Y32350D01*
X25800D01*
X22423Y32277D02*
Y32437D01*
X22583D01*
Y32277D01*
X22423D01*
X22463Y32317D02*
Y32397D01*
X22543D01*
Y32317D01*
X22463D01*
X22890Y28880D02*
Y29040D01*
X23050D01*
Y28880D01*
X22890D01*
X22930Y28920D02*
Y29000D01*
X23010D01*
Y28920D01*
X22930D01*
X22606Y26674D02*
Y26834D01*
X22766D01*
Y26674D01*
X22606D01*
X22646Y26714D02*
Y26794D01*
X22726D01*
Y26714D01*
X22646D01*
X20810Y26690D02*
Y26850D01*
X20970D01*
Y26690D01*
X20810D01*
X20850Y26730D02*
Y26810D01*
X20930D01*
Y26730D01*
X20850D01*
X26640Y23720D02*
Y23880D01*
X26800D01*
Y23720D01*
X26640D01*
X26680Y23760D02*
Y23840D01*
X26760D01*
Y23760D01*
X26680D01*
X31210Y19916D02*
Y20076D01*
X31370D01*
Y19916D01*
X31210D01*
X31250Y19956D02*
Y20036D01*
X31330D01*
Y19956D01*
X31250D01*
X35753Y19190D02*
Y19350D01*
X35913D01*
Y19190D01*
X35753D01*
X35793Y19230D02*
Y19310D01*
X35873D01*
Y19230D01*
X35793D01*
X35740Y19860D02*
Y20020D01*
X35900D01*
Y19860D01*
X35740D01*
X35780Y19900D02*
Y19980D01*
X35860D01*
Y19900D01*
X35780D01*
X37585Y24665D02*
Y24825D01*
X37745D01*
Y24665D01*
X37585D01*
X37625Y24705D02*
Y24785D01*
X37705D01*
Y24705D01*
X37625D01*
X23481Y36119D02*
Y36279D01*
X23641D01*
Y36119D01*
X23481D01*
X23521Y36159D02*
Y36239D01*
X23601D01*
Y36159D01*
X23521D01*
X21810Y36220D02*
Y36380D01*
X21970D01*
Y36220D01*
X21810D01*
X21850Y36260D02*
Y36340D01*
X21930D01*
Y36260D01*
X21850D01*
X20240Y36220D02*
Y36380D01*
X20400D01*
Y36220D01*
X20240D01*
X20280Y36260D02*
Y36340D01*
X20360D01*
Y36260D01*
X20280D01*
X48620Y35490D02*
Y35650D01*
X48780D01*
Y35490D01*
X48620D01*
X48660Y35530D02*
Y35610D01*
X48740D01*
Y35530D01*
X48660D01*
X46260Y35080D02*
Y35240D01*
X46420D01*
Y35080D01*
X46260D01*
X46300Y35120D02*
Y35200D01*
X46380D01*
Y35120D01*
X46300D01*
X46260Y35990D02*
Y36150D01*
X46420D01*
Y35990D01*
X46260D01*
X46300Y36030D02*
Y36110D01*
X46380D01*
Y36030D01*
X46300D01*
X44550Y36140D02*
Y36300D01*
X44710D01*
Y36140D01*
X44550D01*
X44590Y36180D02*
Y36260D01*
X44670D01*
Y36180D01*
X44590D01*
X44550Y37240D02*
Y37400D01*
X44710D01*
Y37240D01*
X44550D01*
X44590Y37280D02*
Y37360D01*
X44670D01*
Y37280D01*
X44590D01*
X44240Y33620D02*
Y33780D01*
X44400D01*
Y33620D01*
X44240D01*
X44280Y33660D02*
Y33740D01*
X44360D01*
Y33660D01*
X44280D01*
X44910Y32130D02*
Y32290D01*
X45070D01*
Y32130D01*
X44910D01*
X44950Y32170D02*
Y32250D01*
X45030D01*
Y32170D01*
X44950D01*
X46110Y32130D02*
Y32290D01*
X46270D01*
Y32130D01*
X46110D01*
X46150Y32170D02*
Y32250D01*
X46230D01*
Y32170D01*
X46150D01*
X45370Y29664D02*
Y29824D01*
X45530D01*
Y29664D01*
X45370D01*
X45410Y29704D02*
Y29784D01*
X45490D01*
Y29704D01*
X45410D01*
X46520Y29680D02*
Y29840D01*
X46680D01*
Y29680D01*
X46520D01*
X46560Y29720D02*
Y29800D01*
X46640D01*
Y29720D01*
X46560D01*
X49120Y29650D02*
Y29810D01*
X49280D01*
Y29650D01*
X49120D01*
X49160Y29690D02*
Y29770D01*
X49240D01*
Y29690D01*
X49160D01*
X47890Y29680D02*
Y29840D01*
X48050D01*
Y29680D01*
X47890D01*
X47930Y29720D02*
Y29800D01*
X48010D01*
Y29720D01*
X47930D01*
X48850Y33440D02*
Y33600D01*
X49010D01*
Y33440D01*
X48850D01*
X48890Y33480D02*
Y33560D01*
X48970D01*
Y33480D01*
X48890D01*
X45670Y21500D02*
Y21660D01*
X45830D01*
Y21500D01*
X45670D01*
X45710Y21540D02*
Y21620D01*
X45790D01*
Y21540D01*
X45710D01*
X45840Y22460D02*
Y22620D01*
X46000D01*
Y22460D01*
X45840D01*
X45880Y22500D02*
Y22580D01*
X45960D01*
Y22500D01*
X45880D01*
X44368Y22490D02*
Y22650D01*
X44528D01*
Y22490D01*
X44368D01*
X44408Y22530D02*
Y22610D01*
X44488D01*
Y22530D01*
X44408D01*
X48420Y23620D02*
Y23780D01*
X48580D01*
Y23620D01*
X48420D01*
X48460Y23660D02*
Y23740D01*
X48540D01*
Y23660D01*
X48460D01*
X48550Y21900D02*
Y22060D01*
X48710D01*
Y21900D01*
X48550D01*
X48590Y21940D02*
Y22020D01*
X48670D01*
Y21940D01*
X48590D01*
X44090Y21480D02*
Y21640D01*
X44250D01*
Y21480D01*
X44090D01*
X44130Y21520D02*
Y21600D01*
X44210D01*
Y21520D01*
X44130D01*
X48420Y14890D02*
Y15050D01*
X48580D01*
Y14890D01*
X48420D01*
X48460Y14930D02*
Y15010D01*
X48540D01*
Y14930D01*
X48460D01*
X46760Y15850D02*
Y16010D01*
X46920D01*
Y15850D01*
X46760D01*
X46800Y15890D02*
Y15970D01*
X46880D01*
Y15890D01*
X46800D01*
X45210Y14970D02*
Y15130D01*
X45370D01*
Y14970D01*
X45210D01*
X45250Y15010D02*
Y15090D01*
X45330D01*
Y15010D01*
X45250D01*
X45190Y20590D02*
Y20750D01*
X45350D01*
Y20590D01*
X45190D01*
X45230Y20630D02*
Y20710D01*
X45310D01*
Y20630D01*
X45230D01*
X48320Y18850D02*
Y19010D01*
X48480D01*
Y18850D01*
X48320D01*
X48360Y18890D02*
Y18970D01*
X48440D01*
Y18890D01*
X48360D01*
X45150Y17010D02*
Y17170D01*
X45310D01*
Y17010D01*
X45150D01*
X45190Y17050D02*
Y17130D01*
X45270D01*
Y17050D01*
X45190D01*
X48280Y17190D02*
Y17350D01*
X48440D01*
Y17190D01*
X48280D01*
X48320Y17230D02*
Y17310D01*
X48400D01*
Y17230D01*
X48320D01*
X46310Y17850D02*
Y18010D01*
X46470D01*
Y17850D01*
X46310D01*
X46350Y17890D02*
Y17970D01*
X46430D01*
Y17890D01*
X46350D01*
X47370Y17866D02*
Y18026D01*
X47530D01*
Y17866D01*
X47370D01*
X47410Y17906D02*
Y17986D01*
X47490D01*
Y17906D01*
X47410D01*
X48200Y20516D02*
Y20676D01*
X48360D01*
Y20516D01*
X48200D01*
X48240Y20556D02*
Y20636D01*
X48320D01*
Y20556D01*
X48240D01*
X46070Y19650D02*
Y19810D01*
X46230D01*
Y19650D01*
X46070D01*
X46110Y19690D02*
Y19770D01*
X46190D01*
Y19690D01*
X46110D01*
X47600Y19650D02*
Y19810D01*
X47760D01*
Y19650D01*
X47600D01*
X47640Y19690D02*
Y19770D01*
X47720D01*
Y19690D01*
X47640D01*
X33110Y25910D02*
Y26070D01*
X33270D01*
Y25910D01*
X33110D01*
X33150Y25950D02*
Y26030D01*
X33230D01*
Y25950D01*
X33150D01*
X32720Y25920D02*
Y26080D01*
X32880D01*
Y25920D01*
X32720D01*
X32760Y25960D02*
Y26040D01*
X32840D01*
Y25960D01*
X32760D01*
X25950Y17370D02*
Y17530D01*
X26110D01*
Y17370D01*
X25950D01*
X25990Y17410D02*
Y17490D01*
X26070D01*
Y17410D01*
X25990D01*
X26510Y17369D02*
Y17529D01*
X26670D01*
Y17369D01*
X26510D01*
X26550Y17409D02*
Y17489D01*
X26630D01*
Y17409D01*
X26550D01*
X27070Y17370D02*
Y17530D01*
X27230D01*
Y17370D01*
X27070D01*
X27110Y17410D02*
Y17490D01*
X27190D01*
Y17410D01*
X27110D01*
X27630Y17369D02*
Y17529D01*
X27790D01*
Y17369D01*
X27630D01*
X27670Y17409D02*
Y17489D01*
X27750D01*
Y17409D01*
X27670D01*
X28190Y17369D02*
Y17529D01*
X28350D01*
Y17369D01*
X28190D01*
X28230Y17409D02*
Y17489D01*
X28310D01*
Y17409D01*
X28230D01*
X28750Y17370D02*
Y17530D01*
X28910D01*
Y17370D01*
X28750D01*
X28790Y17410D02*
Y17490D01*
X28870D01*
Y17410D01*
X28790D01*
X25970Y21810D02*
Y21970D01*
X26130D01*
Y21810D01*
X25970D01*
X26010Y21850D02*
Y21930D01*
X26090D01*
Y21850D01*
X26010D01*
X26530Y21810D02*
Y21970D01*
X26690D01*
Y21810D01*
X26530D01*
X26570Y21850D02*
Y21930D01*
X26650D01*
Y21850D01*
X26570D01*
X27090Y21810D02*
Y21970D01*
X27250D01*
Y21810D01*
X27090D01*
X27130Y21850D02*
Y21930D01*
X27210D01*
Y21850D01*
X27130D01*
X27650Y21810D02*
Y21970D01*
X27810D01*
Y21810D01*
X27650D01*
X27690Y21850D02*
Y21930D01*
X27770D01*
Y21850D01*
X27690D01*
X28210Y21810D02*
Y21970D01*
X28370D01*
Y21810D01*
X28210D01*
X28250Y21850D02*
Y21930D01*
X28330D01*
Y21850D01*
X28250D01*
X28770Y21823D02*
Y21983D01*
X28930D01*
Y21823D01*
X28770D01*
X28810Y21863D02*
Y21943D01*
X28890D01*
Y21863D01*
X28810D01*
X24360Y20790D02*
Y20950D01*
X24520D01*
Y20790D01*
X24360D01*
X24400Y20830D02*
Y20910D01*
X24480D01*
Y20830D01*
X24400D01*
X24360Y20490D02*
Y20650D01*
X24520D01*
Y20490D01*
X24360D01*
X24400Y20530D02*
Y20610D01*
X24480D01*
Y20530D01*
X24400D01*
X24360Y20190D02*
Y20350D01*
X24520D01*
Y20190D01*
X24360D01*
X24400Y20230D02*
Y20310D01*
X24480D01*
Y20230D01*
X24400D01*
X24360Y19890D02*
Y20050D01*
X24520D01*
Y19890D01*
X24360D01*
X24400Y19930D02*
Y20010D01*
X24480D01*
Y19930D01*
X24400D01*
X24060Y20790D02*
Y20950D01*
X24220D01*
Y20790D01*
X24060D01*
X24100Y20830D02*
Y20910D01*
X24180D01*
Y20830D01*
X24100D01*
X24060Y20490D02*
Y20650D01*
X24220D01*
Y20490D01*
X24060D01*
X24100Y20530D02*
Y20610D01*
X24180D01*
Y20530D01*
X24100D01*
X24060Y20190D02*
Y20350D01*
X24220D01*
Y20190D01*
X24060D01*
X24100Y20230D02*
Y20310D01*
X24180D01*
Y20230D01*
X24100D01*
X24060Y19890D02*
Y20050D01*
X24220D01*
Y19890D01*
X24060D01*
X24100Y19930D02*
Y20010D01*
X24180D01*
Y19930D01*
X24100D01*
X23760Y20790D02*
Y20950D01*
X23920D01*
Y20790D01*
X23760D01*
X23800Y20830D02*
Y20910D01*
X23880D01*
Y20830D01*
X23800D01*
X23760Y20490D02*
Y20650D01*
X23920D01*
Y20490D01*
X23760D01*
X23800Y20530D02*
Y20610D01*
X23880D01*
Y20530D01*
X23800D01*
X23760Y20190D02*
Y20350D01*
X23920D01*
Y20190D01*
X23760D01*
X23800Y20230D02*
Y20310D01*
X23880D01*
Y20230D01*
X23800D01*
X23760Y19890D02*
Y20050D01*
X23920D01*
Y19890D01*
X23760D01*
X23800Y19930D02*
Y20010D01*
X23880D01*
Y19930D01*
X23800D01*
X23460Y20790D02*
Y20950D01*
X23620D01*
Y20790D01*
X23460D01*
X23500Y20830D02*
Y20910D01*
X23580D01*
Y20830D01*
X23500D01*
X23460Y20490D02*
Y20650D01*
X23620D01*
Y20490D01*
X23460D01*
X23500Y20530D02*
Y20610D01*
X23580D01*
Y20530D01*
X23500D01*
X23460Y20190D02*
Y20350D01*
X23620D01*
Y20190D01*
X23460D01*
X23500Y20230D02*
Y20310D01*
X23580D01*
Y20230D01*
X23500D01*
X23460Y19890D02*
Y20050D01*
X23620D01*
Y19890D01*
X23460D01*
X23500Y19930D02*
Y20010D01*
X23580D01*
Y19930D01*
X23500D01*
X25970Y19570D02*
Y19730D01*
X26130D01*
Y19570D01*
X25970D01*
X26010Y19610D02*
Y19690D01*
X26090D01*
Y19610D01*
X26010D01*
X26355Y19570D02*
Y19730D01*
X26515D01*
Y19570D01*
X26355D01*
X26395Y19610D02*
Y19690D01*
X26475D01*
Y19610D01*
X26395D01*
X26740Y19570D02*
Y19730D01*
X26900D01*
Y19570D01*
X26740D01*
X26780Y19610D02*
Y19690D01*
X26860D01*
Y19610D01*
X26780D01*
X27125Y19570D02*
Y19730D01*
X27285D01*
Y19570D01*
X27125D01*
X27165Y19610D02*
Y19690D01*
X27245D01*
Y19610D01*
X27165D01*
X27570Y19570D02*
Y19730D01*
X27730D01*
Y19570D01*
X27570D01*
X27610Y19610D02*
Y19690D01*
X27690D01*
Y19610D01*
X27610D01*
X27970Y19570D02*
Y19730D01*
X28130D01*
Y19570D01*
X27970D01*
X28010Y19610D02*
Y19690D01*
X28090D01*
Y19610D01*
X28010D01*
X28370Y19570D02*
Y19730D01*
X28530D01*
Y19570D01*
X28370D01*
X28410Y19610D02*
Y19690D01*
X28490D01*
Y19610D01*
X28410D01*
X28770Y19570D02*
Y19730D01*
X28930D01*
Y19570D01*
X28770D01*
X28810Y19610D02*
Y19690D01*
X28890D01*
Y19610D01*
X28810D01*
X25112Y18035D02*
Y18195D01*
X25272D01*
Y18035D01*
X25112D01*
X25152Y18075D02*
Y18155D01*
X25232D01*
Y18075D01*
X25152D01*
X25166Y18555D02*
Y18715D01*
X25326D01*
Y18555D01*
X25166D01*
X25206Y18595D02*
Y18675D01*
X25286D01*
Y18595D01*
X25206D01*
X25481Y18555D02*
Y18715D01*
X25641D01*
Y18555D01*
X25481D01*
X25521Y18595D02*
Y18675D01*
X25601D01*
Y18595D01*
X25521D01*
X25797Y18555D02*
Y18715D01*
X25957D01*
Y18555D01*
X25797D01*
X25837Y18595D02*
Y18675D01*
X25917D01*
Y18595D01*
X25837D01*
X26110Y18520D02*
Y18680D01*
X26270D01*
Y18520D01*
X26110D01*
X26150Y18560D02*
Y18640D01*
X26230D01*
Y18560D01*
X26150D01*
X25688Y18277D02*
Y18437D01*
X25848D01*
Y18277D01*
X25688D01*
X25728Y18317D02*
Y18397D01*
X25808D01*
Y18317D01*
X25728D01*
X18617Y30360D02*
Y30520D01*
X18777D01*
Y30360D01*
X18617D01*
X18657Y30400D02*
Y30480D01*
X18737D01*
Y30400D01*
X18657D01*
X18290Y30350D02*
Y30510D01*
X18450D01*
Y30350D01*
X18290D01*
X18330Y30390D02*
Y30470D01*
X18410D01*
Y30390D01*
X18330D01*
X17970Y30140D02*
Y30300D01*
X18130D01*
Y30140D01*
X17970D01*
X18010Y30180D02*
Y30260D01*
X18090D01*
Y30180D01*
X18010D01*
X32720Y28300D02*
Y28460D01*
X32880D01*
Y28300D01*
X32720D01*
X32760Y28340D02*
Y28420D01*
X32840D01*
Y28340D01*
X32760D01*
X18420Y15021D02*
Y15181D01*
X18580D01*
Y15021D01*
X18420D01*
X18460Y15061D02*
Y15141D01*
X18540D01*
Y15061D01*
X18460D01*
X17860Y15020D02*
Y15180D01*
X18020D01*
Y15020D01*
X17860D01*
X17900Y15060D02*
Y15140D01*
X17980D01*
Y15060D01*
X17900D01*
X17300Y15020D02*
Y15180D01*
X17460D01*
Y15020D01*
X17300D01*
X17340Y15060D02*
Y15140D01*
X17420D01*
Y15060D01*
X17340D01*
X16740Y15021D02*
Y15181D01*
X16900D01*
Y15021D01*
X16740D01*
X16780Y15061D02*
Y15141D01*
X16860D01*
Y15061D01*
X16780D01*
X16180Y15020D02*
Y15180D01*
X16340D01*
Y15020D01*
X16180D01*
X16220Y15060D02*
Y15140D01*
X16300D01*
Y15060D01*
X16220D01*
X15620Y15021D02*
Y15181D01*
X15780D01*
Y15021D01*
X15620D01*
X15660Y15061D02*
Y15141D01*
X15740D01*
Y15061D01*
X15660D01*
X15396Y15941D02*
Y16101D01*
X15556D01*
Y15941D01*
X15396D01*
X15436Y15981D02*
Y16061D01*
X15516D01*
Y15981D01*
X15436D01*
X15820Y16220D02*
Y16380D01*
X15980D01*
Y16220D01*
X15820D01*
X15860Y16260D02*
Y16340D01*
X15940D01*
Y16260D01*
X15860D01*
X15505Y16220D02*
Y16380D01*
X15665D01*
Y16220D01*
X15505D01*
X15545Y16260D02*
Y16340D01*
X15625D01*
Y16260D01*
X15545D01*
X15189Y16220D02*
Y16380D01*
X15349D01*
Y16220D01*
X15189D01*
X15229Y16260D02*
Y16340D01*
X15309D01*
Y16260D01*
X15229D01*
X14874Y16220D02*
Y16380D01*
X15034D01*
Y16220D01*
X14874D01*
X14914Y16260D02*
Y16340D01*
X14994D01*
Y16260D01*
X14914D01*
X16800Y22969D02*
Y23129D01*
X16960D01*
Y22969D01*
X16800D01*
X16840Y23009D02*
Y23089D01*
X16920D01*
Y23009D01*
X16840D01*
X18011Y20800D02*
Y20960D01*
X18171D01*
Y20800D01*
X18011D01*
X18051Y20840D02*
Y20920D01*
X18131D01*
Y20840D01*
X18051D01*
X18430Y19483D02*
Y19643D01*
X18590D01*
Y19483D01*
X18430D01*
X18470Y19523D02*
Y19603D01*
X18550D01*
Y19523D01*
X18470D01*
X17870Y19483D02*
Y19643D01*
X18030D01*
Y19483D01*
X17870D01*
X17910Y19523D02*
Y19603D01*
X17990D01*
Y19523D01*
X17910D01*
X17310Y19483D02*
Y19643D01*
X17470D01*
Y19483D01*
X17310D01*
X17350Y19523D02*
Y19603D01*
X17430D01*
Y19523D01*
X17350D01*
X16750Y19483D02*
Y19643D01*
X16910D01*
Y19483D01*
X16750D01*
X16790Y19523D02*
Y19603D01*
X16870D01*
Y19523D01*
X16790D01*
X16190Y19483D02*
Y19643D01*
X16350D01*
Y19483D01*
X16190D01*
X16230Y19523D02*
Y19603D01*
X16310D01*
Y19523D01*
X16230D01*
X15630Y19483D02*
Y19643D01*
X15790D01*
Y19483D01*
X15630D01*
X15670Y19523D02*
Y19603D01*
X15750D01*
Y19523D01*
X15670D01*
X18420Y17260D02*
Y17420D01*
X18580D01*
Y17260D01*
X18420D01*
X18460Y17300D02*
Y17380D01*
X18540D01*
Y17300D01*
X18460D01*
X18020Y17260D02*
Y17420D01*
X18180D01*
Y17260D01*
X18020D01*
X18060Y17300D02*
Y17380D01*
X18140D01*
Y17300D01*
X18060D01*
X17620Y17260D02*
Y17420D01*
X17780D01*
Y17260D01*
X17620D01*
X17660Y17300D02*
Y17380D01*
X17740D01*
Y17300D01*
X17660D01*
X17220Y17260D02*
Y17420D01*
X17380D01*
Y17260D01*
X17220D01*
X17260Y17300D02*
Y17380D01*
X17340D01*
Y17300D01*
X17260D01*
X16775Y17260D02*
Y17420D01*
X16935D01*
Y17260D01*
X16775D01*
X16815Y17300D02*
Y17380D01*
X16895D01*
Y17300D01*
X16815D01*
X16390Y17260D02*
Y17420D01*
X16550D01*
Y17260D01*
X16390D01*
X16430Y17300D02*
Y17380D01*
X16510D01*
Y17300D01*
X16430D01*
X16005Y17260D02*
Y17420D01*
X16165D01*
Y17260D01*
X16005D01*
X16045Y17300D02*
Y17380D01*
X16125D01*
Y17300D01*
X16045D01*
X15620Y17260D02*
Y17420D01*
X15780D01*
Y17260D01*
X15620D01*
X15660Y17300D02*
Y17380D01*
X15740D01*
Y17300D01*
X15660D01*
X12485Y13520D02*
Y13680D01*
X12645D01*
Y13520D01*
X12485D01*
X12525Y13560D02*
Y13640D01*
X12605D01*
Y13560D01*
X12525D01*
X11818Y13500D02*
Y13660D01*
X11978D01*
Y13500D01*
X11818D01*
X11858Y13540D02*
Y13620D01*
X11938D01*
Y13540D01*
X11858D01*
X31420Y23620D02*
Y23780D01*
X31580D01*
Y23620D01*
X31420D01*
X31460Y23660D02*
Y23740D01*
X31540D01*
Y23660D01*
X31460D01*
X14820Y15700D02*
Y15860D01*
X14980D01*
Y15700D01*
X14820D01*
X14860Y15740D02*
Y15820D01*
X14940D01*
Y15740D01*
X14860D01*
X34170Y36670D02*
Y36830D01*
X34330D01*
Y36670D01*
X34170D01*
X34210Y36710D02*
Y36790D01*
X34290D01*
Y36710D01*
X34210D01*
X15035Y23004D02*
Y23164D01*
X15195D01*
Y23004D01*
X15035D01*
X15075Y23044D02*
Y23124D01*
X15155D01*
Y23044D01*
X15075D01*
X15704Y22994D02*
Y23154D01*
X15864D01*
Y22994D01*
X15704D01*
X15744Y23034D02*
Y23114D01*
X15824D01*
Y23034D01*
X15744D01*
X18900Y22890D02*
Y23050D01*
X19060D01*
Y22890D01*
X18900D01*
X18940Y22930D02*
Y23010D01*
X19020D01*
Y22930D01*
X18940D01*
X18870Y23370D02*
Y23530D01*
X19030D01*
Y23370D01*
X18870D01*
X18910Y23410D02*
Y23490D01*
X18990D01*
Y23410D01*
X18910D01*
X23630Y27020D02*
Y27180D01*
X23790D01*
Y27020D01*
X23630D01*
X23670Y27060D02*
Y27140D01*
X23750D01*
Y27060D01*
X23670D01*
X23630Y27420D02*
Y27580D01*
X23790D01*
Y27420D01*
X23630D01*
X23670Y27460D02*
Y27540D01*
X23750D01*
Y27460D01*
X23670D01*
X23640Y27760D02*
Y27920D01*
X23800D01*
Y27760D01*
X23640D01*
X23680Y27800D02*
Y27880D01*
X23760D01*
Y27800D01*
X23680D01*
X31810Y26480D02*
Y26640D01*
X31970D01*
Y26480D01*
X31810D01*
X31850Y26520D02*
Y26600D01*
X31930D01*
Y26520D01*
X31850D01*
X32090Y26460D02*
Y26620D01*
X32250D01*
Y26460D01*
X32090D01*
X32130Y26500D02*
Y26580D01*
X32210D01*
Y26500D01*
X32130D01*
X31060Y25310D02*
Y25470D01*
X31220D01*
Y25310D01*
X31060D01*
X31100Y25350D02*
Y25430D01*
X31180D01*
Y25350D01*
X31100D01*
X28970Y30260D02*
Y30420D01*
X29130D01*
Y30260D01*
X28970D01*
X29010Y30300D02*
Y30380D01*
X29090D01*
Y30300D01*
X29010D01*
X23881Y32720D02*
Y32880D01*
X24041D01*
Y32720D01*
X23881D01*
X23921Y32760D02*
Y32840D01*
X24001D01*
Y32760D01*
X23921D01*
X33320Y27920D02*
Y28080D01*
X33480D01*
Y27920D01*
X33320D01*
X33360Y27960D02*
Y28040D01*
X33440D01*
Y27960D01*
X33360D01*
X27220Y32920D02*
Y33080D01*
X27380D01*
Y32920D01*
X27220D01*
X27260Y32960D02*
Y33040D01*
X27340D01*
Y32960D01*
X27260D01*
X33088Y29664D02*
Y29824D01*
X33248D01*
Y29664D01*
X33088D01*
X33128Y29704D02*
Y29784D01*
X33208D01*
Y29704D01*
X33128D01*
X28636Y34204D02*
Y34364D01*
X28796D01*
Y34204D01*
X28636D01*
X28676Y34244D02*
Y34324D01*
X28756D01*
Y34244D01*
X28676D01*
X29364Y34220D02*
Y34380D01*
X29524D01*
Y34220D01*
X29364D01*
X29404Y34260D02*
Y34340D01*
X29484D01*
Y34260D01*
X29404D01*
X30092Y34220D02*
Y34380D01*
X30252D01*
Y34220D01*
X30092D01*
X30132Y34260D02*
Y34340D01*
X30212D01*
Y34260D01*
X30132D01*
X30820Y34220D02*
Y34380D01*
X30980D01*
Y34220D01*
X30820D01*
X30860Y34260D02*
Y34340D01*
X30940D01*
Y34260D01*
X30860D01*
X34577Y27020D02*
Y27180D01*
X34737D01*
Y27020D01*
X34577D01*
X34617Y27060D02*
Y27140D01*
X34697D01*
Y27060D01*
X34617D01*
X33435Y26920D02*
Y27080D01*
X33595D01*
Y26920D01*
X33435D01*
X33475Y26960D02*
Y27040D01*
X33555D01*
Y26960D01*
X33475D01*
D148*
X16090Y38860D02*
G03*
X16090Y38860I-80J0D01*
G01*
Y36860D02*
G03*
X16090Y36860I-80J0D01*
G01*
X14090D02*
G03*
X14090Y36860I-80J0D01*
G01*
Y38860D02*
G03*
X14090Y38860I-80J0D01*
G01*
M02*
