M48
;Layer_Color=9474304
;FILE_FORMAT=2:4
INCH
;TYPE=PLATED
T1F00S00C0.0100
T2F00S00C0.0287
T3F00S00C0.0290
T4F00S00C0.0433
T5F00S00C0.0512
T6F00S00C0.0669
;TYPE=NON_PLATED
T7F00S00C0.0256
T8F00S00C0.0276
T9F00S00C0.1378
%
T01
X011250Y013750
X011898Y013580
X012565Y013600
X013750Y013750
X015000
X016250
X017500
X018750
X020000
X021250
X021930Y012950
X021730Y012020
X021250Y011250
X022500
X023750
X025000
X026250
X027500
X027317Y012235
X026533
X025750
Y012977
Y013720
X025000Y013750
X024400Y012960
X023187Y012250
X023194Y013730
Y014700
X022056Y014530
X020625Y015000
X019375
X018500Y015101
X017940Y015100
X017380
X016820Y015101
X016260Y015100
X015700Y015101
X015625Y012500
X016875
X018125
X019375
X020625
X020000Y011250
X018750
X017500
X024375Y015000
X025625
X026875
X028125
X029375
X030625
X030210Y013530
X029190
Y012420
X030210
X030000Y011250
X028750
X028100Y012235
Y012977
Y013715
X027317
X026533
X031710Y013650
X031680Y012290
X032414Y012960
X033125Y012500
X034375
X035625
X036250Y013750
X035000
X033750
X034375Y015000
X033125
X031875
X031525Y015565
X035875
X036875Y015000
X038125
X039375
X037891Y013800
X038660Y013010
X037100Y013025
X037910Y012140
X037460Y011260
X036250Y011250
X035000
X033750
X031250
X038750
X040000
X041250
X042500
X043125Y012500
X040625
X045290Y015050
X048500Y014970
X048360Y017270
X047450Y017946
X048400Y018930
X047680Y019730
X048280Y020596
X048630Y021980
X048500Y023700
X047970Y029760
X049200Y029730
X046600Y029760
X045450Y029744
X045920Y022540
X045750Y021580
X045270Y020670
X046150Y019730
X046390Y017930
X045230Y017090
X044552Y018960
X044170Y021560
X044448Y022570
X042980Y022670
X040625Y022500
X039375
X039740Y021770
X039375Y020000
X040625
X038125
X038750Y018750
X039240Y017490
X038125Y017500
X038750Y016250
X039740Y016700
X040830Y016390
X040350Y017510
X036250Y018750
X035833Y019270
X035820Y019940
X036250Y021250
X037500
X036875Y022500
X035625
X035912Y023032
X034375Y022500
X033125
X031875
X031500Y023700
X032635Y023855
X033750Y023750
X034375Y025000
X035625
X035000Y026250
X034657Y027100
X034660Y028130
X034670Y028485
X034956Y029392
X033168Y029744
X032800Y028380
X033400Y028000
X033515Y027000
X033316Y026684
X033190Y025990
X032800Y026000
X032170Y026540
X031890Y026560
X031323Y026280
X031520Y029350
X033873Y030950
X037500Y026250
X038750
X040000
X040625Y025000
X039375
X038125
X037665Y024745
X038750Y023750
X040000
X037860Y022827
X035000Y021250
X034090Y020240
X033240Y020220
X033650Y020670
X031875Y020000
X031290Y019996
X031250Y021250
Y016250
X032500
X033750
X035000
X036250
X034375Y017500
X033125
X035000Y018750
X046840Y015930
X030000Y016250
X028750
X027500
X026250
X025000
X024375Y017500
X024240Y018130
Y018480
X023890
X023540
Y018830
Y019180
X023190
X022840
Y019530
Y019880
Y020230
Y020580
X023540Y020570
X023840
X024140
X024440
Y020870
X024140
X023840
X023540
Y020270
X023840
X024140
X024440
Y019970
X024140
X023840
X023540
X023890Y019180
X024240
Y018830
X023890
Y018130
X023540
X023190Y018480
X022840
Y018830
X023190
X021870Y019420
X021295
X020720
Y020073
X021295
X021870
Y020727
X021295
X020720
Y021390
X021295
X021870
X021250Y023750
X022500
X023750
X025000
X026250
X026720Y023800
X027500Y023750
X027730Y021890
X027170
X026610
X026050
X028290
X028850Y021903
X029589Y022491
X030625Y022500
X030815Y023700
X030369Y024191
X030290Y025860
X030280Y026230
X031140Y025390
X031119Y029350
X030530Y029380
X028750Y028750
X027500
X026250
X026875Y030000
X028125
X029050Y030340
X025625Y030000
X024375
X022970Y028960
X023720Y027840
X023710Y027500
Y027100
X023750Y026250
X022500
X022686Y026754
X020890Y026770
X021250Y026250
X021875Y025000
X023125
X024375
X025625
X020625
X020000Y023750
X018950Y023450
X018980Y022970
X019375Y022500
X018750Y021250
X018091Y020880
X017950Y019563
X018510
X017390
X016830
X016270
X015710
X015640Y021410
X016409
X016880Y023049
X015784Y023074
X016250Y023750
X017500
X018125Y025000
X016875
X015625
X015770Y026880
X016104
X016027Y027960
X016024Y028270
X016520Y028760
X016955
X017390
X017370Y029219
X016953
X016520
Y029660
X016955
X017390
X018050Y030220
X018370Y030430
X018697Y030440
X020363Y030720
Y031030
X020683
Y030720
X020539Y028781
X021250Y028750
X015625Y030000
X015930Y030400
X015640Y031130
X016660Y031128
X019375Y020000
X020000Y018750
X021250
X021875Y017500
X020625
X019375
X018500Y017340
X018100
X017700
X017300
X016855
X016470
X016085
X015700
X015900Y016300
X020000Y016250
X021450Y016260
X022201Y015869
X022830
X025192Y018115
X025246Y018635
X025561
X025877
X026190Y018600
X025768Y018357
X026030Y017450
X026590Y017449
X027150Y017450
X027710Y017449
X028270
X028830Y017450
X029375Y017500
X030625
X030000Y018750
X030625Y020000
X029375
X028850Y019650
X028450
X028050
X027650
X027205
X026820
X026435
X026050
X030000Y021250
X015620Y020500
X013580Y020570
X012780Y021336
X012790Y019770
X011920Y020530
X011250Y021250
X011875Y022500
X012500Y023750
X013750
X014375Y025000
X015000Y026250
X013750
X014030Y026832
X014070Y027530
Y028090
X014323Y028474
X014798Y028450
X014320Y029080
X014340Y029600
X014375Y030000
X013830Y030235
X013820Y029680
X013750Y028750
X012500
X013040Y029370
X013125Y030000
X011875
X011250Y028750
X011875Y027500
X013125
X012500Y026250
X011250
X011875Y025000
X011250Y023750
X014375Y022500
X015115Y023084
X015440Y027337
X015560Y030500
X014150Y030650
X014210Y031215
X014150Y018570
X013850
X013550
X013250
Y018270
X013550
X013850
X014150
Y017970
Y017670
X013850
X013550
X013250
Y017970
X013550
X013850
X013940Y016800
Y016450
X013590
X013240
Y016100
X012890
X012540
Y016450
Y016800
X012890
X013240
X013590
Y016100
Y015750
X013940
Y016100
X013240Y015750
X012890Y016450
X012540Y017150
Y017500
Y017850
Y018200
X011580Y018277
X011005
X010430
Y017623
X011005
X011580
Y016970
X011005
X010430
X011250Y016250
X011005Y018940
X011580
X010430
X014954Y016300
X015269
X015585
X015476Y016021
X014900Y015780
X014600Y031590
X014610Y032181
X014375Y032500
X014610Y032870
X014620Y033320
X014180Y033780
X013750Y033750
X014030Y034200
X014040Y034770
X014375Y035000
X014080Y035350
X014110Y035920
X014560Y036214
X015400
X014375Y037500
X014380Y037940
X015000Y038750
X014990Y039400
X013260Y035850
X013125Y035000
X011875
X012500Y036250
X011250
Y033750
X012500
X013125Y032500
X013790Y031990
X013750Y031250
X012500
X011250
X011875Y032500
X013810Y033050
X015440Y033040
Y033613
Y032080
Y031370
X015740Y031770
X015625Y032500
X015780Y033330
X015750Y033960
X016030Y034310
Y034821
Y035380
Y035890
X016750Y035750
X016875Y035000
X016690Y034330
X016250Y033750
X016630Y033330
X017250Y033160
X017290Y032670
X017310Y032060
X017127Y031740
X016633Y031680
X016420Y031360
X018750Y031250
X019375Y032500
X018125
X018750Y033750
X017500
X018600Y034990
Y035300
X018920
Y034990
X018750Y036250
X017500
X018125Y037500
X019375
X019880Y038770
X018750Y038750
X017500
X017249Y039400
X016880Y038267
X016875Y037500
X015625
Y037940
X021160Y038670
X022500Y038750
X023125Y037500
X024300
X024305Y037035
X025000Y036250
X026250
X026320Y035490
Y035180
X026640
Y035490
X027500Y036300
X027970Y035890
X028716Y034284
X029444Y034300
X030172
X030900Y034300
X030625Y035000
X030000Y036250
X031140Y036390
X031070Y038140
X030260Y038180
X030000Y038750
X029300Y038761
X028750Y038750
X027800Y038750
X027210Y038140
X026370
X025625Y037500
X023561Y036199
X022500Y036250
X021890Y036300
X021875Y037500
X021125Y037095
X020320Y036300
X020625Y035000
X021150Y034880
X021875Y034960
X023125Y035000
X024280Y034824
X023961Y032800
X023125Y032500
X022503Y032357
X022500Y033750
X026250
X027500
X027300Y033000
X026875Y032500
X025840Y032390
X026250Y031250
X028125Y032500
X031875
X031450Y033630
X032500Y033750
X034020Y033730
X035000Y033750
X035625Y032500
X034375
X034453Y031450
X032500Y031250
X031250
X031875Y035000
X032221Y035392
X032719Y035739
X033125Y035000
X034375
X034741Y035739
X035000Y036250
X034250Y036750
X032850Y037090
X031640Y037488
X031570Y035882
X035625Y037500
X042050Y036910
X043510Y037720
X044630Y037320
Y036220
X045460Y036780
X045620Y035690
X046340Y036070
Y035160
X046190Y032210
X044990
X045310Y032950
X044130Y032890
X044320Y033700
X043920Y034390
X042090
X042250Y032970
X043190Y032360
X043420Y035870
X047460Y036160
X048700Y035570
X048270Y034030
X048410Y033030
X047620Y032910
X047960Y032250
X049120Y032270
X048930Y033520
T02
X042160Y015289
Y018163
T03
X027800Y037750
Y038250
X028300
Y037750
X028800
Y038250
X029300
Y037750
X029800
Y038250
T04
X029726Y012971
X031694
X046850Y014956
Y016924
X043070Y029870
X039070
X024791Y039126
X023791
X021671Y039116
X020671
X039070Y036870
Y033870
X043070
Y036870
X047430Y035514
Y033546
T05
X037891Y013010
X039860
X041828
X046901Y020624
Y022593
Y024561
X012770Y024497
Y022529
Y020560
T06
X014010Y036860
Y038860
X016010
Y036860
T07
X032630Y037698
X034539
T08
X032512Y038891
X034657
T09
X011910Y011840
X048150
X011800Y038420
X048150
M30
