G04*
G04 #@! TF.GenerationSoftware,Altium Limited,Altium Designer,18.1.4 (159)*
G04*
G04 Layer_Color=16711935*
%FSLAX24Y24*%
%MOIN*%
G70*
G01*
G75*
%ADD34R,0.0395X0.0434*%
%ADD38R,0.0867X0.0867*%
%ADD54R,0.0415X0.0356*%
%ADD55R,0.0434X0.0473*%
%ADD58R,0.0473X0.0434*%
%ADD59R,0.1260X0.0650*%
%ADD65C,0.0710*%
%ADD66R,0.0710X0.0710*%
%ADD67C,0.1084*%
%ADD68R,0.1261X0.1261*%
%ADD69C,0.1261*%
%ADD70C,0.0567*%
%ADD71C,0.0867*%
%ADD72C,0.0730*%
%ADD73C,0.0500*%
%ADD74C,0.0356*%
%ADD75C,0.0336*%
%ADD76R,0.0867X0.0867*%
%ADD77R,0.0710X0.0710*%
%ADD78C,0.0680*%
%ADD79C,0.0210*%
%ADD80C,0.0260*%
%ADD146R,0.0434X0.0395*%
D34*
X30660Y38157D02*
D03*
Y36700D02*
D03*
X26800Y38128D02*
D03*
Y36672D02*
D03*
D38*
X12770Y24497D02*
D03*
X46901Y20624D02*
D03*
D54*
X32635Y24200D02*
D03*
X33245D02*
D03*
D55*
X31476Y24191D02*
D03*
Y24860D02*
D03*
X30680Y26515D02*
D03*
Y25845D02*
D03*
X34259Y27814D02*
D03*
Y28483D02*
D03*
X30809Y24191D02*
D03*
Y24860D02*
D03*
X35080Y27815D02*
D03*
Y28485D02*
D03*
X29880Y25845D02*
D03*
Y26515D02*
D03*
D58*
X32577Y25512D02*
D03*
X33246D02*
D03*
X32575Y24850D02*
D03*
X33245D02*
D03*
X31803Y28956D02*
D03*
X31134D02*
D03*
X31803Y29745D02*
D03*
X31134D02*
D03*
X15111Y22650D02*
D03*
X15780D02*
D03*
X15115Y23515D02*
D03*
X15784D02*
D03*
X24636Y36616D02*
D03*
X23966D02*
D03*
X24646Y35756D02*
D03*
X23976D02*
D03*
X21449Y36696D02*
D03*
X20780D02*
D03*
X21456Y35836D02*
D03*
X20786D02*
D03*
D59*
X28247Y20166D02*
D03*
Y21347D02*
D03*
X17909Y16868D02*
D03*
Y15687D02*
D03*
X16300Y16868D02*
D03*
Y15687D02*
D03*
X16309Y17827D02*
D03*
Y19008D02*
D03*
X17917Y17807D02*
D03*
Y18988D02*
D03*
X28249Y19127D02*
D03*
Y17946D02*
D03*
X26640Y19127D02*
D03*
Y17946D02*
D03*
Y20167D02*
D03*
Y21348D02*
D03*
D65*
X46850Y14956D02*
D03*
X29726Y12971D02*
D03*
X47430Y33546D02*
D03*
D66*
X46850Y16924D02*
D03*
X47430Y35514D02*
D03*
D67*
X16010Y38860D02*
D03*
Y36860D02*
D03*
X14010D02*
D03*
Y38860D02*
D03*
D68*
X43070Y29870D02*
D03*
D69*
Y33870D02*
D03*
Y36870D02*
D03*
X39070Y29870D02*
D03*
Y33870D02*
D03*
Y36870D02*
D03*
D70*
X42160Y18163D02*
D03*
Y15289D02*
D03*
D71*
X12770Y22529D02*
D03*
Y20560D02*
D03*
X46901Y22593D02*
D03*
Y24561D02*
D03*
X39860Y13010D02*
D03*
X37891D02*
D03*
D72*
X21671Y39116D02*
D03*
X20671D02*
D03*
X24791Y39126D02*
D03*
X23791D02*
D03*
D73*
X27800Y37750D02*
D03*
Y38250D02*
D03*
X28300Y37750D02*
D03*
Y38250D02*
D03*
X28800Y37750D02*
D03*
Y38250D02*
D03*
X29300Y37750D02*
D03*
Y38250D02*
D03*
X29800Y37750D02*
D03*
Y38250D02*
D03*
D74*
X34657Y38891D02*
D03*
X32512D02*
D03*
D75*
X34539Y37698D02*
D03*
X32630D02*
D03*
D76*
X41828Y13010D02*
D03*
D77*
X31694Y12971D02*
D03*
D78*
X11800Y38420D02*
D03*
X11910Y11840D02*
D03*
X48150D02*
D03*
Y38420D02*
D03*
D79*
X30815Y23700D02*
D03*
X33316Y26684D02*
D03*
X30530Y29380D02*
D03*
X15620Y20500D02*
D03*
X29190Y12420D02*
D03*
X30210D02*
D03*
Y13530D02*
D03*
X29190D02*
D03*
X25750Y12977D02*
D03*
X27317Y13715D02*
D03*
X28100Y12977D02*
D03*
X27317Y12235D02*
D03*
X25750D02*
D03*
X26533D02*
D03*
X28100D02*
D03*
Y13715D02*
D03*
X25750Y13720D02*
D03*
X26533Y13715D02*
D03*
X32719Y35739D02*
D03*
X49120Y32270D02*
D03*
X47960Y32250D02*
D03*
X34453Y31450D02*
D03*
X30290Y25860D02*
D03*
X30280Y26230D02*
D03*
X34670Y28485D02*
D03*
X31119Y29350D02*
D03*
X31520D02*
D03*
X13590Y15750D02*
D03*
X12890Y16100D02*
D03*
X24240Y18480D02*
D03*
X12890Y16800D02*
D03*
X12540Y17150D02*
D03*
X22840Y19530D02*
D03*
X23540Y18830D02*
D03*
X13940Y15750D02*
D03*
X12540Y16100D02*
D03*
Y17500D02*
D03*
Y16450D02*
D03*
X23890Y18480D02*
D03*
X23190Y19180D02*
D03*
X24240Y18830D02*
D03*
X12540Y16800D02*
D03*
X23540Y18130D02*
D03*
X13240Y16450D02*
D03*
X24240Y18130D02*
D03*
X13590Y16450D02*
D03*
X23890Y19180D02*
D03*
X22840Y20580D02*
D03*
X13940Y16450D02*
D03*
X13240Y16100D02*
D03*
X24240Y19180D02*
D03*
X22840Y19880D02*
D03*
X23540Y19180D02*
D03*
X12540Y17850D02*
D03*
X13240Y16800D02*
D03*
X23540Y18480D02*
D03*
X22840Y20230D02*
D03*
Y18480D02*
D03*
X13940Y16800D02*
D03*
X12890Y16450D02*
D03*
X23890Y18130D02*
D03*
X13940Y16100D02*
D03*
X23190Y18480D02*
D03*
X13590Y16100D02*
D03*
X22840Y19180D02*
D03*
Y18830D02*
D03*
X12540Y18200D02*
D03*
X13590Y16800D02*
D03*
X23190Y18830D02*
D03*
X13240Y15750D02*
D03*
X23890Y18830D02*
D03*
X13850Y17670D02*
D03*
X13550Y18570D02*
D03*
X13850Y18270D02*
D03*
X13250D02*
D03*
X14150Y17970D02*
D03*
X13250Y18570D02*
D03*
Y17670D02*
D03*
X13850Y18570D02*
D03*
X13550Y17670D02*
D03*
X14150Y18270D02*
D03*
Y17670D02*
D03*
X13850Y17970D02*
D03*
X14150Y18570D02*
D03*
X13550Y17970D02*
D03*
Y18270D02*
D03*
X13250Y17970D02*
D03*
X17370Y29219D02*
D03*
X16520D02*
D03*
Y28760D02*
D03*
X16955D02*
D03*
X16953Y29219D02*
D03*
X16520Y29660D02*
D03*
X31570Y35882D02*
D03*
X29589Y22491D02*
D03*
X33650Y20670D02*
D03*
X31525Y15565D02*
D03*
X35875D02*
D03*
X39740Y16700D02*
D03*
Y21770D02*
D03*
X37860Y22827D02*
D03*
X35912Y23032D02*
D03*
X30260Y38180D02*
D03*
X27210Y38140D02*
D03*
X34956Y29392D02*
D03*
X34741Y35739D02*
D03*
X32850Y37090D02*
D03*
X32221Y35392D02*
D03*
X24305Y37035D02*
D03*
X21125Y37095D02*
D03*
X40830Y16390D02*
D03*
X20720Y21390D02*
D03*
X21295D02*
D03*
X21870D02*
D03*
X20720Y20727D02*
D03*
X21295D02*
D03*
X21870D02*
D03*
X20720Y20073D02*
D03*
X21295D02*
D03*
X21870D02*
D03*
X20720Y19420D02*
D03*
X21295D02*
D03*
X21870D02*
D03*
X11580Y16970D02*
D03*
X11005D02*
D03*
X10430D02*
D03*
X11580Y17623D02*
D03*
X11005D02*
D03*
X10430D02*
D03*
X11580Y18277D02*
D03*
X11005D02*
D03*
X10430D02*
D03*
X11580Y18940D02*
D03*
X11005D02*
D03*
X10430D02*
D03*
X17390Y28760D02*
D03*
Y29660D02*
D03*
X16955D02*
D03*
X20539Y28781D02*
D03*
X42980Y22670D02*
D03*
X44552Y18960D02*
D03*
X32635Y23855D02*
D03*
X22830Y15869D02*
D03*
X22201D02*
D03*
X25840Y32390D02*
D03*
X22503Y32357D02*
D03*
X22970Y28960D02*
D03*
X22686Y26754D02*
D03*
X20890Y26770D02*
D03*
X26720Y23800D02*
D03*
X31290Y19996D02*
D03*
X35833Y19270D02*
D03*
X35820Y19940D02*
D03*
X37665Y24745D02*
D03*
X23561Y36199D02*
D03*
X21890Y36300D02*
D03*
X20320D02*
D03*
X48700Y35570D02*
D03*
X46340Y35160D02*
D03*
Y36070D02*
D03*
X44630Y36220D02*
D03*
Y37320D02*
D03*
X44320Y33700D02*
D03*
X44990Y32210D02*
D03*
X46190D02*
D03*
X45450Y29744D02*
D03*
X46600Y29760D02*
D03*
X49200Y29730D02*
D03*
X47970Y29760D02*
D03*
X48930Y33520D02*
D03*
X45750Y21580D02*
D03*
X45920Y22540D02*
D03*
X44448Y22570D02*
D03*
X48500Y23700D02*
D03*
X48630Y21980D02*
D03*
X44170Y21560D02*
D03*
X48500Y14970D02*
D03*
X46840Y15930D02*
D03*
X45290Y15050D02*
D03*
X45270Y20670D02*
D03*
X48400Y18930D02*
D03*
X45230Y17090D02*
D03*
X48360Y17270D02*
D03*
X46390Y17930D02*
D03*
X47450Y17946D02*
D03*
X48280Y20596D02*
D03*
X46150Y19730D02*
D03*
X47680D02*
D03*
X33190Y25990D02*
D03*
X32800Y26000D02*
D03*
X26030Y17450D02*
D03*
X26590Y17449D02*
D03*
X27150Y17450D02*
D03*
X27710Y17449D02*
D03*
X28270D02*
D03*
X28830Y17450D02*
D03*
X26050Y21890D02*
D03*
X26610D02*
D03*
X27170D02*
D03*
X27730D02*
D03*
X28290D02*
D03*
X28850Y21903D02*
D03*
X24440Y20870D02*
D03*
Y20570D02*
D03*
Y20270D02*
D03*
Y19970D02*
D03*
X24140Y20870D02*
D03*
Y20570D02*
D03*
Y20270D02*
D03*
Y19970D02*
D03*
X23840Y20870D02*
D03*
Y20570D02*
D03*
Y20270D02*
D03*
Y19970D02*
D03*
X23540Y20870D02*
D03*
Y20570D02*
D03*
Y20270D02*
D03*
Y19970D02*
D03*
X26050Y19650D02*
D03*
X26435D02*
D03*
X26820D02*
D03*
X27205D02*
D03*
X27650D02*
D03*
X28050D02*
D03*
X28450D02*
D03*
X28850D02*
D03*
X25192Y18115D02*
D03*
X25246Y18635D02*
D03*
X25561D02*
D03*
X25877D02*
D03*
X26190Y18600D02*
D03*
X25768Y18357D02*
D03*
X18697Y30440D02*
D03*
X18370Y30430D02*
D03*
X18050Y30220D02*
D03*
X32800Y28380D02*
D03*
X18500Y15101D02*
D03*
X17940Y15100D02*
D03*
X17380D02*
D03*
X16820Y15101D02*
D03*
X16260Y15100D02*
D03*
X15700Y15101D02*
D03*
X15476Y16021D02*
D03*
X15900Y16300D02*
D03*
X15585D02*
D03*
X15269D02*
D03*
X14954D02*
D03*
X16880Y23049D02*
D03*
X18091Y20880D02*
D03*
X18510Y19563D02*
D03*
X17950D02*
D03*
X17390D02*
D03*
X16830D02*
D03*
X16270D02*
D03*
X15710D02*
D03*
X18500Y17340D02*
D03*
X18100D02*
D03*
X17700D02*
D03*
X17300D02*
D03*
X16855D02*
D03*
X16470D02*
D03*
X16085D02*
D03*
X15700D02*
D03*
X12565Y13600D02*
D03*
X11898Y13580D02*
D03*
X31500Y23700D02*
D03*
X14900Y15780D02*
D03*
X34250Y36750D02*
D03*
X15115Y23084D02*
D03*
X15784Y23074D02*
D03*
X18980Y22970D02*
D03*
X18950Y23450D02*
D03*
X23710Y27100D02*
D03*
Y27500D02*
D03*
X23720Y27840D02*
D03*
X31890Y26560D02*
D03*
X32170Y26540D02*
D03*
X31140Y25390D02*
D03*
X29050Y30340D02*
D03*
X23961Y32800D02*
D03*
X33400Y28000D02*
D03*
X27300Y33000D02*
D03*
X33168Y29744D02*
D03*
X28716Y34284D02*
D03*
X29444Y34300D02*
D03*
X30172D02*
D03*
X30900Y34300D02*
D03*
X34657Y27100D02*
D03*
X33515Y27000D02*
D03*
D80*
X20363Y30720D02*
D03*
X20683Y31030D02*
D03*
Y30720D02*
D03*
X20363Y31030D02*
D03*
X18920Y34990D02*
D03*
X18600Y35300D02*
D03*
Y34990D02*
D03*
X18920Y35300D02*
D03*
X26320Y35180D02*
D03*
X26640Y35490D02*
D03*
Y35180D02*
D03*
X26320Y35490D02*
D03*
X16027Y27960D02*
D03*
X16024Y28270D02*
D03*
X15440Y27337D02*
D03*
X47620Y32910D02*
D03*
X48270Y34030D02*
D03*
X48410Y33030D02*
D03*
X45310Y32950D02*
D03*
X44130Y32890D02*
D03*
X43190Y32360D02*
D03*
X42250Y32970D02*
D03*
X43920Y34390D02*
D03*
X42090D02*
D03*
X43420Y35870D02*
D03*
X42050Y36910D02*
D03*
X43510Y37720D02*
D03*
X47460Y36160D02*
D03*
X45620Y35690D02*
D03*
X45460Y36780D02*
D03*
X39240Y17490D02*
D03*
X29300Y38761D02*
D03*
X16880Y38267D02*
D03*
X17249Y39400D02*
D03*
X14990D02*
D03*
X13260Y35850D02*
D03*
X13040Y29370D02*
D03*
X13790Y31990D02*
D03*
X13810Y33050D02*
D03*
X14030Y26832D02*
D03*
X14070Y27530D02*
D03*
Y28090D02*
D03*
X15770Y26880D02*
D03*
X16104D02*
D03*
X14798Y28450D02*
D03*
X14323Y28474D02*
D03*
X14320Y29080D02*
D03*
X14340Y29600D02*
D03*
X13820Y29680D02*
D03*
X13830Y30235D02*
D03*
X15930Y30400D02*
D03*
X15560Y30500D02*
D03*
X14150Y30650D02*
D03*
X14210Y31215D02*
D03*
X14600Y31590D02*
D03*
X14610Y32181D02*
D03*
Y32870D02*
D03*
X14620Y33320D02*
D03*
X14180Y33780D02*
D03*
X14030Y34200D02*
D03*
X14040Y34770D02*
D03*
X14080Y35350D02*
D03*
X14110Y35920D02*
D03*
X16750Y35750D02*
D03*
X16690Y34330D02*
D03*
X15640Y31130D02*
D03*
X16660Y31128D02*
D03*
X16420Y31360D02*
D03*
X16633Y31680D02*
D03*
X17127Y31740D02*
D03*
X17310Y32060D02*
D03*
X17290Y32670D02*
D03*
X17250Y33160D02*
D03*
X16630Y33330D02*
D03*
X15780D02*
D03*
X15740Y31770D02*
D03*
X15440Y31370D02*
D03*
Y32080D02*
D03*
Y33040D02*
D03*
Y33613D02*
D03*
X15750Y33960D02*
D03*
X16030Y34310D02*
D03*
Y34821D02*
D03*
Y35380D02*
D03*
Y35890D02*
D03*
X15400Y36214D02*
D03*
X14560D02*
D03*
X14380Y37940D02*
D03*
X15625D02*
D03*
X37460Y11260D02*
D03*
X43125Y12500D02*
D03*
X42500Y11250D02*
D03*
X41250D02*
D03*
X40000Y26250D02*
D03*
X40625Y25000D02*
D03*
X40000Y23750D02*
D03*
X40625Y22500D02*
D03*
Y20000D02*
D03*
X40350Y17510D02*
D03*
X40625Y12500D02*
D03*
X40000Y11250D02*
D03*
X38750Y26250D02*
D03*
X39375Y25000D02*
D03*
X38750Y23750D02*
D03*
X39375Y22500D02*
D03*
Y20000D02*
D03*
X38750Y18750D02*
D03*
Y16250D02*
D03*
X39375Y15000D02*
D03*
X38660Y13010D02*
D03*
X38750Y11250D02*
D03*
X37500Y26250D02*
D03*
X38125Y25000D02*
D03*
X37500Y21250D02*
D03*
X38125Y20000D02*
D03*
Y17500D02*
D03*
Y15000D02*
D03*
X37891Y13800D02*
D03*
X37910Y12140D02*
D03*
X36875Y22500D02*
D03*
X36250Y21250D02*
D03*
Y18750D02*
D03*
Y16250D02*
D03*
X36875Y15000D02*
D03*
X36250Y13750D02*
D03*
X37100Y13025D02*
D03*
X36250Y11250D02*
D03*
X35625Y37500D02*
D03*
X35000Y36250D02*
D03*
X11920Y20530D02*
D03*
X35000Y33750D02*
D03*
X35625Y32500D02*
D03*
X35000Y26250D02*
D03*
X35625Y25000D02*
D03*
Y22500D02*
D03*
X35000Y21250D02*
D03*
Y18750D02*
D03*
Y16250D02*
D03*
Y13750D02*
D03*
X35625Y12500D02*
D03*
X35000Y11250D02*
D03*
X34375Y35000D02*
D03*
X34020Y33730D02*
D03*
X34375Y32500D02*
D03*
X33873Y30950D02*
D03*
X34375Y25000D02*
D03*
X33750Y23750D02*
D03*
X34375Y22500D02*
D03*
X34090Y20240D02*
D03*
X34375Y17500D02*
D03*
X33750Y16250D02*
D03*
X34375Y15000D02*
D03*
X33750Y13750D02*
D03*
X34375Y12500D02*
D03*
X33750Y11250D02*
D03*
X33125Y35000D02*
D03*
X32500Y33750D02*
D03*
Y31250D02*
D03*
X33125Y22500D02*
D03*
X33240Y20220D02*
D03*
X33125Y17500D02*
D03*
X32500Y16250D02*
D03*
X33125Y15000D02*
D03*
Y12500D02*
D03*
X32414Y12960D02*
D03*
X24280Y34824D02*
D03*
X31640Y37488D02*
D03*
X31140Y36390D02*
D03*
X31875Y35000D02*
D03*
X31450Y33630D02*
D03*
X31875Y32500D02*
D03*
X31250Y31250D02*
D03*
X31323Y26280D02*
D03*
X30369Y24191D02*
D03*
X31875Y22500D02*
D03*
X31250Y21250D02*
D03*
X31875Y20000D02*
D03*
X31250Y16250D02*
D03*
X31875Y15000D02*
D03*
X31710Y13650D02*
D03*
X31250Y11250D02*
D03*
X30000Y38750D02*
D03*
X31070Y38140D02*
D03*
X30000Y36250D02*
D03*
X30625Y35000D02*
D03*
Y22500D02*
D03*
X30000Y21250D02*
D03*
X30625Y20000D02*
D03*
X30000Y18750D02*
D03*
X30625Y17500D02*
D03*
X30000Y16250D02*
D03*
X30625Y15000D02*
D03*
X30000Y11250D02*
D03*
X28750Y38750D02*
D03*
X27970Y35890D02*
D03*
X28750Y28750D02*
D03*
X29375Y20000D02*
D03*
Y17500D02*
D03*
X28750Y16250D02*
D03*
X29375Y15000D02*
D03*
X28750Y11250D02*
D03*
X27800Y38750D02*
D03*
X27500Y36300D02*
D03*
Y33750D02*
D03*
X28125Y32500D02*
D03*
Y30000D02*
D03*
X27500Y28750D02*
D03*
Y23750D02*
D03*
Y16250D02*
D03*
X28125Y15000D02*
D03*
X27500Y11250D02*
D03*
X21150Y34880D02*
D03*
X26370Y38140D02*
D03*
X26250Y36250D02*
D03*
Y33750D02*
D03*
X26875Y32500D02*
D03*
X26250Y31250D02*
D03*
X26875Y30000D02*
D03*
X26250Y28750D02*
D03*
Y23750D02*
D03*
Y16250D02*
D03*
X26875Y15000D02*
D03*
X26250Y11250D02*
D03*
X25625Y37500D02*
D03*
X25000Y36250D02*
D03*
X25625Y30000D02*
D03*
Y25000D02*
D03*
X25000Y23750D02*
D03*
Y16250D02*
D03*
X25625Y15000D02*
D03*
X25000Y13750D02*
D03*
Y11250D02*
D03*
X24300Y37500D02*
D03*
X24375Y30000D02*
D03*
X23750Y26250D02*
D03*
X24375Y25000D02*
D03*
X23750Y23750D02*
D03*
X24375Y17500D02*
D03*
Y15000D02*
D03*
X24400Y12960D02*
D03*
X23187Y12250D02*
D03*
X23750Y11250D02*
D03*
X22500Y38750D02*
D03*
X23125Y37500D02*
D03*
X22500Y36250D02*
D03*
X23125Y35000D02*
D03*
X22500Y33750D02*
D03*
X23125Y32500D02*
D03*
X22500Y26250D02*
D03*
X23125Y25000D02*
D03*
X22500Y23750D02*
D03*
X23194Y14700D02*
D03*
Y13730D02*
D03*
X22500Y11250D02*
D03*
X21160Y38670D02*
D03*
X21875Y37500D02*
D03*
Y34960D02*
D03*
X21250Y28750D02*
D03*
Y26250D02*
D03*
X21875Y25000D02*
D03*
X21250Y23750D02*
D03*
Y18750D02*
D03*
X21875Y17500D02*
D03*
X22056Y14530D02*
D03*
X21250Y13750D02*
D03*
X21930Y12950D02*
D03*
X21250Y11250D02*
D03*
X19880Y38770D02*
D03*
X20625Y35000D02*
D03*
Y25000D02*
D03*
X20000Y23750D02*
D03*
Y18750D02*
D03*
X20625Y17500D02*
D03*
X20000Y16250D02*
D03*
X20625Y15000D02*
D03*
X20000Y13750D02*
D03*
X20625Y12500D02*
D03*
X20000Y11250D02*
D03*
X18750Y38750D02*
D03*
X19375Y37500D02*
D03*
X18750Y36250D02*
D03*
Y33750D02*
D03*
X19375Y32500D02*
D03*
X18750Y31250D02*
D03*
X13580Y20570D02*
D03*
X19375Y22500D02*
D03*
X18750Y21250D02*
D03*
X19375Y20000D02*
D03*
Y17500D02*
D03*
Y15000D02*
D03*
X18750Y13750D02*
D03*
X19375Y12500D02*
D03*
X18750Y11250D02*
D03*
X17500Y38750D02*
D03*
X18125Y37500D02*
D03*
X17500Y36250D02*
D03*
Y33750D02*
D03*
X18125Y32500D02*
D03*
Y25000D02*
D03*
X17500Y23750D02*
D03*
Y13750D02*
D03*
X18125Y12500D02*
D03*
X17500Y11250D02*
D03*
X16875Y37500D02*
D03*
Y35000D02*
D03*
X16250Y33750D02*
D03*
X16875Y25000D02*
D03*
X16250Y23750D02*
D03*
X16409Y21410D02*
D03*
X16250Y13750D02*
D03*
X16875Y12500D02*
D03*
X31680Y12290D02*
D03*
X15000Y38750D02*
D03*
X15625Y37500D02*
D03*
Y32500D02*
D03*
Y30000D02*
D03*
X15000Y26250D02*
D03*
X15625Y25000D02*
D03*
X15640Y21410D02*
D03*
X15000Y13750D02*
D03*
X15625Y12500D02*
D03*
X21450Y16260D02*
D03*
X14375Y37500D02*
D03*
Y35000D02*
D03*
X13750Y33750D02*
D03*
X14375Y32500D02*
D03*
X13750Y31250D02*
D03*
X14375Y30000D02*
D03*
X13750Y28750D02*
D03*
Y26250D02*
D03*
X14375Y25000D02*
D03*
X13750Y23750D02*
D03*
X14375Y22500D02*
D03*
X13750Y13750D02*
D03*
X21730Y12020D02*
D03*
X12500Y36250D02*
D03*
X13125Y35000D02*
D03*
X12500Y33750D02*
D03*
X13125Y32500D02*
D03*
X12500Y31250D02*
D03*
X13125Y30000D02*
D03*
X12500Y28750D02*
D03*
X13125Y27500D02*
D03*
X12500Y26250D02*
D03*
Y23750D02*
D03*
X12780Y21336D02*
D03*
X12790Y19770D02*
D03*
X11250Y36250D02*
D03*
X11875Y35000D02*
D03*
X11250Y33750D02*
D03*
X11875Y32500D02*
D03*
X11250Y31250D02*
D03*
X11875Y30000D02*
D03*
X11250Y28750D02*
D03*
X11875Y27500D02*
D03*
X11250Y26250D02*
D03*
X11875Y25000D02*
D03*
X11250Y23750D02*
D03*
X11875Y22500D02*
D03*
X11250Y21250D02*
D03*
Y16250D02*
D03*
Y13750D02*
D03*
X34660Y28130D02*
D03*
D146*
X31119Y35900D02*
D03*
X29663D02*
D03*
X27500D02*
D03*
X28957D02*
D03*
M02*
