G04*
G04 #@! TF.GenerationSoftware,Altium Limited,Altium Designer,18.1.4 (159)*
G04*
G04 Layer_Physical_Order=4*
G04 Layer_Color=16711680*
%FSLAX24Y24*%
%MOIN*%
G70*
G01*
G75*
%ADD18C,0.0300*%
%ADD89R,0.0315X0.0354*%
%ADD93R,0.0787X0.0787*%
%ADD109R,0.0335X0.0276*%
%ADD110R,0.0394X0.0433*%
%ADD113R,0.0433X0.0394*%
%ADD114R,0.1220X0.0610*%
%ADD117C,0.0140*%
%ADD118C,0.0120*%
%ADD130C,0.0630*%
%ADD131R,0.0630X0.0630*%
%ADD132C,0.1004*%
%ADD133R,0.1181X0.1181*%
%ADD134C,0.1181*%
%ADD135C,0.0487*%
%ADD136C,0.0787*%
%ADD137C,0.0650*%
%ADD138C,0.0420*%
%ADD139C,0.0276*%
%ADD140C,0.0256*%
%ADD141R,0.0787X0.0787*%
%ADD142R,0.0630X0.0630*%
%ADD143C,0.0600*%
%ADD144C,0.0180*%
%ADD145R,0.0354X0.0315*%
G36*
X46074Y36491D02*
X49500D01*
Y34828D01*
X45000D01*
Y35514D01*
X41514D01*
X41500Y35500D01*
Y37986D01*
X46074Y38000D01*
Y36491D01*
D02*
G37*
G36*
X49500Y29000D02*
X47500D01*
Y32500D01*
X47000D01*
Y34284D01*
X49500D01*
Y29000D01*
D02*
G37*
G36*
X44500Y34396D02*
X47000Y31896D01*
Y29000D01*
X45000D01*
Y31500D01*
X44500Y32000D01*
X41507D01*
X41514Y35000D01*
X44500D01*
Y34396D01*
D02*
G37*
G36*
X18920Y20221D02*
X18963Y20192D01*
Y18321D01*
X18938Y18304D01*
X15500D01*
X15462Y18288D01*
X15446Y18250D01*
Y18022D01*
X14766Y17343D01*
X13053D01*
X13048Y17345D01*
Y18600D01*
X13032Y18638D01*
X13005Y18650D01*
X13002Y18903D01*
X14320Y20221D01*
X18920D01*
D02*
G37*
G36*
X36500Y27305D02*
X36490Y27295D01*
X41100D01*
Y19290D01*
X42967D01*
Y14713D01*
X42970Y14710D01*
X44580D01*
Y10050D01*
X14250D01*
Y13000D01*
X14250Y13000D01*
X10050D01*
Y16616D01*
X12196D01*
X12234Y16632D01*
X12250Y16670D01*
X12250Y18589D01*
D01*
Y18600D01*
X12880D01*
X12911Y18602D01*
X12914Y18600D01*
X12994D01*
Y18547D01*
D01*
Y17345D01*
X12998Y17335D01*
Y17324D01*
X13005Y17317D01*
X13010Y17307D01*
X13020Y17302D01*
X13027Y17295D01*
X13032Y17293D01*
X13043D01*
X13053Y17289D01*
X14766D01*
X14766Y17289D01*
X14805Y17305D01*
D01*
X15484Y17984D01*
X15500Y18022D01*
Y18022D01*
Y18195D01*
Y18250D01*
X18938D01*
X18952Y18256D01*
X18968Y18259D01*
X18993Y18276D01*
X18996Y18280D01*
X19001Y18283D01*
X19007Y18297D01*
X19016Y18310D01*
X19015Y18316D01*
X19017Y18321D01*
Y20192D01*
X19015Y20197D01*
X19016Y20203D01*
X19016Y20203D01*
X19007Y20216D01*
X19001Y20231D01*
X18996Y20233D01*
X18993Y20237D01*
X18951Y20266D01*
X18951Y20266D01*
X18947Y20266D01*
X18935Y20269D01*
X18920Y20275D01*
X14320D01*
X14282Y20259D01*
X14282Y20259D01*
X13034Y19011D01*
X12934Y19053D01*
Y19606D01*
X12931Y19613D01*
X12932Y19620D01*
X12924Y19631D01*
X12918Y19644D01*
X12912Y19647D01*
X12907Y19653D01*
X12857Y19682D01*
X12838Y19685D01*
X12819Y19688D01*
X12793Y19683D01*
X12739Y19719D01*
X12703Y19773D01*
X12711Y19811D01*
X12714Y19814D01*
X12712Y19828D01*
X12715Y19841D01*
X12710Y19847D01*
X12709Y19856D01*
X12683Y19906D01*
X12676Y19911D01*
X12673Y19918D01*
X12661Y19923D01*
X12651Y19932D01*
X12643Y19931D01*
X12635Y19934D01*
X10050D01*
Y37000D01*
X13110D01*
Y39970D01*
X36500D01*
Y27305D01*
D02*
G37*
G36*
X12662Y19830D02*
X12658Y19825D01*
X12647Y19770D01*
X12658Y19715D01*
X12689Y19669D01*
X12735Y19638D01*
X12790Y19627D01*
X12830Y19635D01*
X12880Y19606D01*
Y18654D01*
X12250D01*
X12212Y18638D01*
X12196Y18600D01*
X12196Y16670D01*
X10035D01*
X10000Y16705D01*
X10024Y19880D01*
X12635D01*
X12662Y19830D01*
D02*
G37*
G36*
X49980Y27000D02*
Y13850D01*
X44784D01*
Y14710D01*
X44768Y14788D01*
X44724Y14854D01*
X44658Y14898D01*
X44580Y14914D01*
X43171D01*
Y19290D01*
X43156Y19368D01*
X43112Y19434D01*
X43045Y19478D01*
X42967Y19494D01*
X41431D01*
X41420Y26985D01*
X41455Y27020D01*
X49960D01*
X49980Y27000D01*
D02*
G37*
%LPC*%
G36*
X16110Y39404D02*
Y38960D01*
X16553D01*
X16547Y39004D01*
X16492Y39138D01*
X16403Y39254D01*
X16288Y39342D01*
X16154Y39398D01*
X16110Y39404D01*
D02*
G37*
G36*
X14110D02*
Y38960D01*
X14553D01*
X14547Y39004D01*
X14492Y39138D01*
X14403Y39254D01*
X14288Y39342D01*
X14154Y39398D01*
X14110Y39404D01*
D02*
G37*
G36*
X15910D02*
X15866Y39398D01*
X15731Y39342D01*
X15616Y39254D01*
X15528Y39138D01*
X15472Y39004D01*
X15466Y38960D01*
X15910D01*
Y39404D01*
D02*
G37*
G36*
X13910D02*
X13866Y39398D01*
X13731Y39342D01*
X13616Y39254D01*
X13528Y39138D01*
X13472Y39004D01*
X13466Y38960D01*
X13910D01*
Y39404D01*
D02*
G37*
G36*
X24791Y39504D02*
X24693Y39491D01*
X24602Y39453D01*
X24524Y39393D01*
X24464Y39315D01*
X24426Y39224D01*
X24413Y39126D01*
X24426Y39028D01*
X24464Y38937D01*
X24524Y38859D01*
X24602Y38799D01*
X24693Y38761D01*
X24791Y38748D01*
X24889Y38761D01*
X24980Y38799D01*
X25058Y38859D01*
X25118Y38937D01*
X25156Y39028D01*
X25169Y39126D01*
X25156Y39224D01*
X25118Y39315D01*
X25058Y39393D01*
X24980Y39453D01*
X24889Y39491D01*
X24791Y39504D01*
D02*
G37*
G36*
X23791D02*
X23693Y39491D01*
X23602Y39453D01*
X23524Y39393D01*
X23464Y39315D01*
X23426Y39224D01*
X23413Y39126D01*
X23426Y39028D01*
X23464Y38937D01*
X23524Y38859D01*
X23602Y38799D01*
X23693Y38761D01*
X23791Y38748D01*
X23889Y38761D01*
X23980Y38799D01*
X24058Y38859D01*
X24118Y38937D01*
X24156Y39028D01*
X24169Y39126D01*
X24156Y39224D01*
X24118Y39315D01*
X24058Y39393D01*
X23980Y39453D01*
X23889Y39491D01*
X23791Y39504D01*
D02*
G37*
G36*
X21671Y39494D02*
X21573Y39481D01*
X21482Y39443D01*
X21404Y39383D01*
X21344Y39305D01*
X21306Y39214D01*
X21293Y39116D01*
X21306Y39018D01*
X21344Y38927D01*
X21404Y38849D01*
X21482Y38789D01*
X21573Y38751D01*
X21671Y38738D01*
X21769Y38751D01*
X21860Y38789D01*
X21938Y38849D01*
X21998Y38927D01*
X22036Y39018D01*
X22049Y39116D01*
X22036Y39214D01*
X21998Y39305D01*
X21938Y39383D01*
X21860Y39443D01*
X21769Y39481D01*
X21671Y39494D01*
D02*
G37*
G36*
X20671D02*
X20573Y39481D01*
X20482Y39443D01*
X20404Y39383D01*
X20344Y39305D01*
X20306Y39214D01*
X20293Y39116D01*
X20306Y39018D01*
X20344Y38927D01*
X20404Y38849D01*
X20482Y38789D01*
X20573Y38751D01*
X20671Y38738D01*
X20769Y38751D01*
X20860Y38789D01*
X20938Y38849D01*
X20998Y38927D01*
X21036Y39018D01*
X21049Y39116D01*
X21036Y39214D01*
X20998Y39305D01*
X20938Y39383D01*
X20860Y39443D01*
X20769Y39481D01*
X20671Y39494D01*
D02*
G37*
G36*
X34657Y39083D02*
X34584Y39068D01*
X34522Y39027D01*
X34480Y38965D01*
X34466Y38891D01*
X34480Y38818D01*
X34522Y38756D01*
X34584Y38714D01*
X34657Y38700D01*
X34730Y38714D01*
X34793Y38756D01*
X34834Y38818D01*
X34849Y38891D01*
X34834Y38965D01*
X34793Y39027D01*
X34730Y39068D01*
X34657Y39083D01*
D02*
G37*
G36*
X32512D02*
X32438Y39068D01*
X32376Y39027D01*
X32335Y38965D01*
X32320Y38891D01*
X32335Y38818D01*
X32376Y38756D01*
X32438Y38714D01*
X32512Y38700D01*
X32585Y38714D01*
X32647Y38756D01*
X32688Y38818D01*
X32703Y38891D01*
X32688Y38965D01*
X32647Y39027D01*
X32585Y39068D01*
X32512Y39083D01*
D02*
G37*
G36*
X29800Y38513D02*
X29732Y38504D01*
X29669Y38478D01*
X29615Y38436D01*
X29610Y38430D01*
X29490D01*
X29485Y38436D01*
X29431Y38478D01*
X29400Y38490D01*
Y38250D01*
X29200D01*
Y38490D01*
X29169Y38478D01*
X29115Y38436D01*
X29110Y38430D01*
X28990D01*
X28985Y38436D01*
X28931Y38478D01*
X28900Y38490D01*
Y38250D01*
X28700D01*
Y38490D01*
X28669Y38478D01*
X28615Y38436D01*
X28610Y38430D01*
X28490D01*
X28485Y38436D01*
X28431Y38478D01*
X28368Y38504D01*
X28300Y38513D01*
X28232Y38504D01*
X28169Y38478D01*
X28115Y38436D01*
X28110Y38430D01*
X27990D01*
X27985Y38436D01*
X27931Y38478D01*
X27900Y38490D01*
Y38250D01*
X27800D01*
Y38150D01*
X27560D01*
X27573Y38119D01*
X27615Y38065D01*
X27621Y38060D01*
Y37941D01*
X27615Y37936D01*
X27573Y37882D01*
X27547Y37818D01*
X27538Y37750D01*
X27547Y37683D01*
X27573Y37619D01*
X27580Y37610D01*
X26869Y36899D01*
X26593D01*
Y36444D01*
X26688D01*
Y35672D01*
X26640Y35633D01*
X26585Y35622D01*
X26539Y35591D01*
X26508Y35545D01*
X26497Y35490D01*
X26508Y35435D01*
X26539Y35389D01*
X26585Y35358D01*
X26640Y35347D01*
X26695Y35358D01*
X26741Y35389D01*
X26859Y35402D01*
X27080Y35181D01*
X27117Y35157D01*
X27160Y35148D01*
X27160Y35148D01*
X27693D01*
X28577Y34264D01*
X28584Y34229D01*
X28615Y34183D01*
X28662Y34152D01*
X28716Y34141D01*
X28771Y34152D01*
X28817Y34183D01*
X28848Y34229D01*
X28859Y34284D01*
X28848Y34338D01*
X28817Y34385D01*
X28771Y34416D01*
X28736Y34423D01*
X27819Y35340D01*
X27783Y35364D01*
X27740Y35373D01*
X27740Y35373D01*
X27206D01*
X26912Y35666D01*
Y36444D01*
X27007D01*
Y36721D01*
X27778Y37491D01*
X27800Y37488D01*
X27868Y37497D01*
X27931Y37523D01*
X27985Y37565D01*
X27990Y37571D01*
X28110D01*
X28115Y37565D01*
X28169Y37523D01*
X28232Y37497D01*
X28300Y37488D01*
X28368Y37497D01*
X28431Y37523D01*
X28485Y37565D01*
X28490Y37571D01*
X28610D01*
X28615Y37565D01*
X28669Y37523D01*
X28732Y37497D01*
X28800Y37488D01*
X28845Y37449D01*
Y36107D01*
X28730D01*
Y35693D01*
X29006D01*
X29332Y35366D01*
Y34384D01*
X29312Y34355D01*
X29301Y34300D01*
X29312Y34245D01*
X29343Y34199D01*
X29390Y34168D01*
X29444Y34157D01*
X29499Y34168D01*
X29545Y34199D01*
X29576Y34245D01*
X29587Y34300D01*
X29576Y34355D01*
X29556Y34384D01*
Y35412D01*
X29556Y35413D01*
X29548Y35455D01*
X29523Y35492D01*
X29523Y35492D01*
X29418Y35597D01*
X29415Y35603D01*
X29464Y35693D01*
X29523Y35693D01*
X29711D01*
X30060Y35344D01*
Y34384D01*
X30040Y34355D01*
X30029Y34300D01*
X30040Y34245D01*
X30071Y34199D01*
X30117Y34168D01*
X30172Y34157D01*
X30227Y34168D01*
X30273Y34199D01*
X30304Y34245D01*
X30315Y34300D01*
X30304Y34355D01*
X30284Y34384D01*
Y35390D01*
X30284Y35390D01*
X30276Y35433D01*
X30251Y35470D01*
X30251Y35470D01*
X29890Y35831D01*
Y36107D01*
X29775D01*
Y37388D01*
X29775Y37388D01*
X29840Y37458D01*
X29920Y37472D01*
X30393Y36998D01*
X30453Y36927D01*
X30453D01*
X30453Y36927D01*
Y36473D01*
X30548D01*
Y35500D01*
X30548Y35500D01*
X30557Y35457D01*
X30581Y35421D01*
X30788Y35214D01*
Y34384D01*
X30768Y34355D01*
X30757Y34300D01*
X30768Y34245D01*
X30799Y34199D01*
X30845Y34168D01*
X30900Y34157D01*
X30955Y34168D01*
X31001Y34199D01*
X31032Y34245D01*
X31043Y34300D01*
X31032Y34355D01*
X31012Y34384D01*
Y35260D01*
X31004Y35303D01*
X30979Y35340D01*
X30979Y35340D01*
X30773Y35546D01*
Y36473D01*
X30868D01*
Y36927D01*
X30765D01*
X30764Y36933D01*
X30740Y36969D01*
X30740Y36969D01*
X30045Y37664D01*
X30053Y37683D01*
X30062Y37750D01*
X30053Y37818D01*
X30027Y37882D01*
X29985Y37936D01*
X29979Y37941D01*
Y38060D01*
X29985Y38065D01*
X30027Y38119D01*
X30053Y38183D01*
X30062Y38250D01*
X30053Y38318D01*
X30027Y38382D01*
X29985Y38436D01*
X29931Y38478D01*
X29868Y38504D01*
X29800Y38513D01*
D02*
G37*
G36*
X27700Y38490D02*
X27669Y38478D01*
X27615Y38436D01*
X27573Y38382D01*
X27560Y38350D01*
X27700D01*
Y38490D01*
D02*
G37*
G36*
X16553Y38760D02*
X16110D01*
Y38316D01*
X16154Y38322D01*
X16288Y38378D01*
X16403Y38466D01*
X16492Y38582D01*
X16547Y38716D01*
X16553Y38760D01*
D02*
G37*
G36*
X14553D02*
X14110D01*
Y38316D01*
X14154Y38322D01*
X14288Y38378D01*
X14403Y38466D01*
X14492Y38582D01*
X14547Y38716D01*
X14553Y38760D01*
D02*
G37*
G36*
X15910D02*
X15466D01*
X15472Y38716D01*
X15528Y38582D01*
X15616Y38466D01*
X15731Y38378D01*
X15866Y38322D01*
X15910Y38316D01*
Y38760D01*
D02*
G37*
G36*
X13910D02*
X13466D01*
X13472Y38716D01*
X13528Y38582D01*
X13616Y38466D01*
X13731Y38378D01*
X13866Y38322D01*
X13910Y38316D01*
Y38760D01*
D02*
G37*
G36*
X30868Y38384D02*
X30760D01*
Y38257D01*
X30868D01*
Y38384D01*
D02*
G37*
G36*
X30560D02*
X30453D01*
Y38257D01*
X30560D01*
Y38384D01*
D02*
G37*
G36*
X27007Y38356D02*
X26900D01*
Y38228D01*
X27007D01*
Y38356D01*
D02*
G37*
G36*
X26700D02*
X26593D01*
Y38228D01*
X26700D01*
Y38356D01*
D02*
G37*
G36*
X30868Y38057D02*
X30760D01*
Y37930D01*
X30868D01*
Y38057D01*
D02*
G37*
G36*
X30560D02*
X30453D01*
Y37930D01*
X30560D01*
Y38057D01*
D02*
G37*
G36*
X27007Y38028D02*
X26900D01*
Y37901D01*
X27007D01*
Y38028D01*
D02*
G37*
G36*
X26700D02*
X26593D01*
Y37901D01*
X26700D01*
Y38028D01*
D02*
G37*
G36*
X34539Y37880D02*
X34470Y37866D01*
X34411Y37827D01*
X34371Y37768D01*
X34358Y37698D01*
X34371Y37629D01*
X34411Y37570D01*
X34470Y37531D01*
X34539Y37517D01*
X34609Y37531D01*
X34667Y37570D01*
X34707Y37629D01*
X34721Y37698D01*
X34707Y37768D01*
X34667Y37827D01*
X34609Y37866D01*
X34539Y37880D01*
D02*
G37*
G36*
X32630D02*
X32560Y37866D01*
X32501Y37827D01*
X32462Y37768D01*
X32448Y37698D01*
X32462Y37629D01*
X32501Y37570D01*
X32560Y37531D01*
X32630Y37517D01*
X32699Y37531D01*
X32758Y37570D01*
X32797Y37629D01*
X32811Y37698D01*
X32797Y37768D01*
X32758Y37827D01*
X32699Y37866D01*
X32630Y37880D01*
D02*
G37*
G36*
X16110Y37404D02*
Y36960D01*
X16553D01*
X16547Y37004D01*
X16492Y37138D01*
X16403Y37254D01*
X16288Y37342D01*
X16154Y37398D01*
X16110Y37404D01*
D02*
G37*
G36*
X14110D02*
Y36960D01*
X14553D01*
X14547Y37004D01*
X14492Y37138D01*
X14403Y37254D01*
X14288Y37342D01*
X14154Y37398D01*
X14110Y37404D01*
D02*
G37*
G36*
X15910D02*
X15866Y37398D01*
X15731Y37342D01*
X15616Y37254D01*
X15528Y37138D01*
X15472Y37004D01*
X15466Y36960D01*
X15910D01*
Y37404D01*
D02*
G37*
G36*
X13910D02*
X13866Y37398D01*
X13731Y37342D01*
X13616Y37254D01*
X13528Y37138D01*
X13472Y37004D01*
X13466Y36960D01*
X13910D01*
Y37404D01*
D02*
G37*
G36*
X21715Y36943D02*
X21549D01*
Y36796D01*
X21715D01*
Y36943D01*
D02*
G37*
G36*
X21349D02*
X21182D01*
Y36796D01*
X21349D01*
Y36943D01*
D02*
G37*
G36*
X24902Y36863D02*
X24736D01*
Y36716D01*
X24902D01*
Y36863D01*
D02*
G37*
G36*
X24536D02*
X24369D01*
Y36716D01*
X24536D01*
Y36863D01*
D02*
G37*
G36*
X21715Y36596D02*
X21549D01*
Y36449D01*
X21715D01*
Y36596D01*
D02*
G37*
G36*
X21349D02*
X21182D01*
Y36449D01*
X21349D01*
Y36596D01*
D02*
G37*
G36*
X24902Y36516D02*
X24736D01*
Y36369D01*
X24902D01*
Y36516D01*
D02*
G37*
G36*
X24536D02*
X24369D01*
Y36369D01*
X24536D01*
Y36516D01*
D02*
G37*
G36*
X16553Y36760D02*
X16110D01*
Y36316D01*
X16154Y36322D01*
X16288Y36378D01*
X16403Y36466D01*
X16492Y36582D01*
X16547Y36716D01*
X16553Y36760D01*
D02*
G37*
G36*
X14553D02*
X14110D01*
Y36316D01*
X14154Y36322D01*
X14288Y36378D01*
X14403Y36466D01*
X14492Y36582D01*
X14547Y36716D01*
X14553Y36760D01*
D02*
G37*
G36*
X15910D02*
X15466D01*
X15472Y36716D01*
X15528Y36582D01*
X15616Y36466D01*
X15731Y36378D01*
X15866Y36322D01*
X15910Y36316D01*
Y36760D01*
D02*
G37*
G36*
X13910D02*
X13466D01*
X13472Y36716D01*
X13528Y36582D01*
X13616Y36466D01*
X13731Y36378D01*
X13866Y36322D01*
X13910Y36316D01*
Y36760D01*
D02*
G37*
G36*
X31346Y36107D02*
X31219D01*
Y36000D01*
X31346D01*
Y36107D01*
D02*
G37*
G36*
X31019D02*
X30892D01*
Y36000D01*
X31019D01*
Y36107D01*
D02*
G37*
G36*
X27727D02*
X27600D01*
Y36000D01*
X27727D01*
Y36107D01*
D02*
G37*
G36*
X27400D02*
X27273D01*
Y36000D01*
X27400D01*
Y36107D01*
D02*
G37*
G36*
X21722Y36083D02*
X21556D01*
Y35936D01*
X21722D01*
Y36083D01*
D02*
G37*
G36*
X21356D02*
X21189D01*
Y35936D01*
X21356D01*
Y36083D01*
D02*
G37*
G36*
X24912Y36003D02*
X24746D01*
Y35856D01*
X24912D01*
Y36003D01*
D02*
G37*
G36*
X24546D02*
X24379D01*
Y35856D01*
X24546D01*
Y36003D01*
D02*
G37*
G36*
X34250Y36893D02*
X34195Y36882D01*
X34149Y36851D01*
X34118Y36805D01*
X34111Y36770D01*
X33193Y35851D01*
X32803D01*
X32774Y35871D01*
X32719Y35882D01*
X32664Y35871D01*
X32618Y35840D01*
X32587Y35794D01*
X32576Y35739D01*
X32587Y35685D01*
X32618Y35638D01*
X32664Y35607D01*
X32719Y35596D01*
X32774Y35607D01*
X32803Y35627D01*
X33239D01*
X33239Y35627D01*
X33282Y35636D01*
X33318Y35660D01*
X34270Y36611D01*
X34305Y36618D01*
X34351Y36649D01*
X34382Y36695D01*
X34393Y36750D01*
X34382Y36805D01*
X34351Y36851D01*
X34305Y36882D01*
X34250Y36893D01*
D02*
G37*
G36*
X31346Y35800D02*
X31219D01*
Y35693D01*
X31346D01*
Y35800D01*
D02*
G37*
G36*
X31019D02*
X30892D01*
Y35693D01*
X31019D01*
Y35800D01*
D02*
G37*
G36*
X27727Y35800D02*
X27600D01*
Y35693D01*
X27727D01*
Y35800D01*
D02*
G37*
G36*
X27400D02*
X27273D01*
Y35693D01*
X27400D01*
Y35800D01*
D02*
G37*
G36*
X21722Y35736D02*
X21556D01*
Y35589D01*
X21722D01*
Y35736D01*
D02*
G37*
G36*
X21356D02*
X21189D01*
Y35589D01*
X21356D01*
Y35736D01*
D02*
G37*
G36*
X21046Y36943D02*
X20513D01*
Y36504D01*
X20320D01*
X20242Y36488D01*
X20176Y36444D01*
X20132Y36378D01*
X20116Y36300D01*
X20132Y36222D01*
X20176Y36156D01*
X20242Y36112D01*
X20320Y36096D01*
X20425D01*
X20520Y36083D01*
Y35589D01*
X21053D01*
Y36083D01*
X20984D01*
Y36449D01*
X21046D01*
Y36943D01*
D02*
G37*
G36*
X24912Y35656D02*
X24746D01*
Y35509D01*
X24912D01*
Y35656D01*
D02*
G37*
G36*
X24546D02*
X24379D01*
Y35509D01*
X24546D01*
Y35656D01*
D02*
G37*
G36*
X24233Y36863D02*
X23700D01*
Y36403D01*
X23561D01*
X23483Y36387D01*
X23417Y36343D01*
X23373Y36277D01*
X23357Y36199D01*
X23373Y36121D01*
X23417Y36055D01*
X23483Y36011D01*
X23561Y35995D01*
X23710D01*
Y35509D01*
X24243D01*
Y36003D01*
X24170D01*
Y36369D01*
X24233D01*
Y36863D01*
D02*
G37*
G36*
X18920Y35443D02*
X18865Y35432D01*
X18819Y35401D01*
X18788Y35355D01*
X18777Y35300D01*
X18788Y35245D01*
X18819Y35199D01*
X18865Y35168D01*
X18920Y35157D01*
X18975Y35168D01*
X19021Y35199D01*
X19052Y35245D01*
X19063Y35300D01*
X19052Y35355D01*
X19021Y35401D01*
X18975Y35432D01*
X18920Y35443D01*
D02*
G37*
G36*
X26320Y35323D02*
X26265Y35312D01*
X26219Y35281D01*
X26188Y35235D01*
X26177Y35180D01*
X26188Y35125D01*
X26219Y35079D01*
X26265Y35048D01*
X26320Y35037D01*
X26375Y35048D01*
X26421Y35079D01*
X26452Y35125D01*
X26463Y35180D01*
X26452Y35235D01*
X26421Y35281D01*
X26375Y35312D01*
X26320Y35323D01*
D02*
G37*
G36*
X18600Y35133D02*
X18545Y35122D01*
X18499Y35091D01*
X18468Y35045D01*
X18457Y34990D01*
X18468Y34935D01*
X18499Y34889D01*
X18545Y34858D01*
X18600Y34847D01*
X18655Y34858D01*
X18701Y34889D01*
X18732Y34935D01*
X18743Y34990D01*
X18732Y35045D01*
X18701Y35091D01*
X18655Y35122D01*
X18600Y35133D01*
D02*
G37*
G36*
X25840Y32533D02*
X25785Y32522D01*
X25739Y32491D01*
X25708Y32445D01*
X25697Y32390D01*
X25708Y32335D01*
X25739Y32289D01*
X25785Y32258D01*
X25840Y32247D01*
X25895Y32258D01*
X25941Y32289D01*
X25972Y32335D01*
X25983Y32390D01*
X25972Y32445D01*
X25941Y32491D01*
X25895Y32522D01*
X25840Y32533D01*
D02*
G37*
G36*
X22503Y32499D02*
X22449Y32489D01*
X22402Y32458D01*
X22371Y32411D01*
X22361Y32357D01*
X22371Y32302D01*
X22402Y32256D01*
X22449Y32225D01*
X22503Y32214D01*
X22558Y32225D01*
X22604Y32256D01*
X22635Y32302D01*
X22646Y32357D01*
X22635Y32411D01*
X22604Y32458D01*
X22558Y32489D01*
X22503Y32499D01*
D02*
G37*
G36*
X34453Y31593D02*
X34398Y31582D01*
X34352Y31551D01*
X34321Y31505D01*
X34310Y31450D01*
X34321Y31395D01*
X34352Y31349D01*
X34398Y31318D01*
X34453Y31307D01*
X34508Y31318D01*
X34554Y31349D01*
X34585Y31395D01*
X34596Y31450D01*
X34585Y31505D01*
X34554Y31551D01*
X34508Y31582D01*
X34453Y31593D01*
D02*
G37*
G36*
X20683Y31173D02*
X20628Y31162D01*
X20582Y31131D01*
X20551Y31085D01*
X20540Y31030D01*
X20551Y30975D01*
X20582Y30929D01*
X20628Y30898D01*
X20683Y30887D01*
X20738Y30898D01*
X20784Y30929D01*
X20815Y30975D01*
X20826Y31030D01*
X20815Y31085D01*
X20784Y31131D01*
X20738Y31162D01*
X20683Y31173D01*
D02*
G37*
G36*
X20363Y30863D02*
X20308Y30852D01*
X20262Y30821D01*
X20231Y30775D01*
X20220Y30720D01*
X20231Y30665D01*
X20262Y30619D01*
X20308Y30588D01*
X20363Y30577D01*
X20418Y30588D01*
X20464Y30619D01*
X20495Y30665D01*
X20506Y30720D01*
X20495Y30775D01*
X20464Y30821D01*
X20418Y30852D01*
X20363Y30863D01*
D02*
G37*
G36*
X18697Y30583D02*
X18642Y30572D01*
X18596Y30541D01*
X18587Y30528D01*
X18482Y30523D01*
X18475Y30525D01*
X18471Y30531D01*
X18425Y30562D01*
X18370Y30573D01*
X18315Y30562D01*
X18269Y30531D01*
X18238Y30485D01*
X18227Y30430D01*
X18238Y30375D01*
X18269Y30329D01*
X18315Y30298D01*
X18370Y30287D01*
X18425Y30298D01*
X18471Y30329D01*
X18480Y30342D01*
X18585Y30347D01*
X18592Y30345D01*
X18596Y30339D01*
X18642Y30308D01*
X18697Y30297D01*
X18752Y30308D01*
X18798Y30339D01*
X18829Y30385D01*
X18840Y30440D01*
X18829Y30495D01*
X18798Y30541D01*
X18752Y30572D01*
X18697Y30583D01*
D02*
G37*
G36*
X18050Y30363D02*
X17995Y30352D01*
X17949Y30321D01*
X17918Y30275D01*
X17907Y30220D01*
X17918Y30165D01*
X17949Y30119D01*
X17995Y30088D01*
X18050Y30077D01*
X18104Y30088D01*
X18150Y30119D01*
X18181Y30165D01*
X18192Y30220D01*
X18181Y30275D01*
X18150Y30321D01*
X18104Y30352D01*
X18050Y30363D01*
D02*
G37*
G36*
X32070Y29992D02*
X31903D01*
Y29845D01*
X32070D01*
Y29992D01*
D02*
G37*
G36*
X31703D02*
X31537D01*
Y29845D01*
X31703D01*
Y29992D01*
D02*
G37*
G36*
X27300Y33143D02*
X27245Y33132D01*
X27199Y33101D01*
X27168Y33055D01*
X27157Y33000D01*
X27168Y32945D01*
X27199Y32899D01*
X27245Y32868D01*
X27300Y32857D01*
X27355Y32868D01*
X27384Y32888D01*
X29865D01*
X33029Y29724D01*
X33036Y29689D01*
X33067Y29643D01*
X33113Y29612D01*
X33168Y29601D01*
X33222Y29612D01*
X33269Y29643D01*
X33299Y29689D01*
X33310Y29744D01*
X33299Y29798D01*
X33269Y29845D01*
X33222Y29875D01*
X33187Y29882D01*
X29990Y33079D01*
X29954Y33104D01*
X29911Y33112D01*
X29911Y33112D01*
X27384D01*
X27355Y33132D01*
X27300Y33143D01*
D02*
G37*
G36*
X32070Y29645D02*
X31903D01*
Y29498D01*
X32070D01*
Y29645D01*
D02*
G37*
G36*
X31703D02*
X31537D01*
Y29498D01*
X31703D01*
Y29645D01*
D02*
G37*
G36*
X30530Y29523D02*
X30475Y29512D01*
X30429Y29481D01*
X30398Y29435D01*
X30387Y29380D01*
X30398Y29325D01*
X30429Y29279D01*
X30475Y29248D01*
X30530Y29237D01*
X30585Y29248D01*
X30631Y29279D01*
X30662Y29325D01*
X30673Y29380D01*
X30662Y29435D01*
X30631Y29481D01*
X30585Y29512D01*
X30530Y29523D01*
D02*
G37*
G36*
X32070Y29203D02*
X31903D01*
Y29056D01*
X32070D01*
Y29203D01*
D02*
G37*
G36*
X31703D02*
X31537D01*
Y29056D01*
X31703D01*
Y29203D01*
D02*
G37*
G36*
X22970Y29103D02*
X22915Y29092D01*
X22869Y29061D01*
X22838Y29015D01*
X22827Y28960D01*
X22838Y28905D01*
X22869Y28859D01*
X22915Y28828D01*
X22970Y28817D01*
X23025Y28828D01*
X23071Y28859D01*
X23102Y28905D01*
X23113Y28960D01*
X23102Y29015D01*
X23071Y29061D01*
X23025Y29092D01*
X22970Y29103D01*
D02*
G37*
G36*
X32070Y28856D02*
X31903D01*
Y28709D01*
X32070D01*
Y28856D01*
D02*
G37*
G36*
X31703D02*
X31537D01*
Y28709D01*
X31703D01*
Y28856D01*
D02*
G37*
G36*
X35327Y28751D02*
X34833D01*
Y28689D01*
X34505D01*
Y28750D01*
X34012D01*
Y28217D01*
X34505D01*
Y28281D01*
X34833D01*
Y28218D01*
X35327D01*
Y28751D01*
D02*
G37*
G36*
Y28082D02*
X35180D01*
Y27915D01*
X35327D01*
Y28082D01*
D02*
G37*
G36*
X34980D02*
X34833D01*
Y27915D01*
X34980D01*
Y28082D01*
D02*
G37*
G36*
X34505Y28080D02*
X34359D01*
Y27914D01*
X34505D01*
Y28080D01*
D02*
G37*
G36*
X34159D02*
X34012D01*
Y27914D01*
X34159D01*
Y28080D01*
D02*
G37*
G36*
X23961Y32943D02*
X23906Y32932D01*
X23860Y32901D01*
X23829Y32855D01*
X23818Y32800D01*
X23829Y32745D01*
X23860Y32699D01*
X23906Y32668D01*
X23961Y32657D01*
X24016Y32668D01*
X24045Y32688D01*
X26144D01*
X30771Y28061D01*
X30771Y28061D01*
X30783Y28052D01*
X30757Y27952D01*
X23804D01*
X23775Y27972D01*
X23720Y27983D01*
X23665Y27972D01*
X23619Y27941D01*
X23588Y27895D01*
X23577Y27840D01*
X23588Y27785D01*
X23619Y27739D01*
X23634Y27729D01*
X23641Y27698D01*
X23637Y27627D01*
X23634Y27618D01*
X23609Y27601D01*
X23578Y27555D01*
X23567Y27500D01*
X23578Y27445D01*
X23609Y27399D01*
X23655Y27368D01*
X23710Y27357D01*
X23765Y27368D01*
X23794Y27388D01*
X24624D01*
X25261Y26751D01*
X25261Y26751D01*
X25297Y26726D01*
X25340Y26718D01*
X25340Y26718D01*
X26872D01*
X26872Y26718D01*
X26915Y26726D01*
X26951Y26751D01*
X27019Y26819D01*
X27019Y26819D01*
X27044Y26855D01*
X27052Y26898D01*
X27052Y26898D01*
Y27260D01*
X27054Y27262D01*
X27166D01*
X27168Y27260D01*
Y26898D01*
X27168Y26898D01*
X27176Y26855D01*
X27201Y26819D01*
X27269Y26751D01*
X27269Y26751D01*
X27305Y26726D01*
X27348Y26718D01*
X27348Y26718D01*
X28590D01*
X28590Y26718D01*
X28633Y26726D01*
X28669Y26751D01*
X29306Y27388D01*
X32954D01*
X33359Y26982D01*
X33345Y26911D01*
X33336Y26899D01*
X33311Y26875D01*
X33287Y26871D01*
X32979Y27179D01*
X32943Y27204D01*
X32900Y27212D01*
X32900Y27212D01*
X29790D01*
X29747Y27204D01*
X29711Y27179D01*
X29711Y27179D01*
X28834Y26302D01*
X27414D01*
X27412Y26304D01*
Y26446D01*
X27412Y26446D01*
X27404Y26489D01*
X27379Y26525D01*
X27379Y26525D01*
X27311Y26593D01*
X27275Y26617D01*
X27232Y26626D01*
X27232Y26626D01*
X27028D01*
X27028Y26626D01*
X26985Y26617D01*
X26949Y26593D01*
X26949Y26593D01*
X26881Y26525D01*
X26856Y26489D01*
X26848Y26446D01*
X26848Y26446D01*
Y26304D01*
X26846Y26302D01*
X25186D01*
X24309Y27179D01*
X24273Y27204D01*
X24230Y27212D01*
X24230Y27212D01*
X23794D01*
X23765Y27232D01*
X23710Y27243D01*
X23655Y27232D01*
X23609Y27201D01*
X23578Y27155D01*
X23567Y27100D01*
X23578Y27045D01*
X23609Y26999D01*
X23655Y26968D01*
X23710Y26957D01*
X23765Y26968D01*
X23794Y26988D01*
X24184D01*
X25061Y26111D01*
X25097Y26086D01*
X25140Y26078D01*
X25140Y26078D01*
X26892D01*
X26892Y26078D01*
X26935Y26086D01*
X26971Y26111D01*
X27039Y26179D01*
X27039Y26179D01*
X27064Y26215D01*
X27072Y26258D01*
X27072Y26258D01*
Y26399D01*
X27074Y26402D01*
X27186D01*
X27188Y26399D01*
Y26258D01*
X27188Y26258D01*
X27196Y26215D01*
X27221Y26179D01*
X27289Y26111D01*
X27289Y26111D01*
X27325Y26086D01*
X27368Y26078D01*
X27368Y26078D01*
X28880D01*
X28880Y26078D01*
X28923Y26086D01*
X28959Y26111D01*
X29533Y26685D01*
X29633Y26643D01*
Y26615D01*
X29780D01*
Y26781D01*
X29771D01*
X29730Y26881D01*
X29836Y26988D01*
X32854D01*
X33178Y26664D01*
X33185Y26629D01*
X33215Y26583D01*
X33262Y26552D01*
X33316Y26541D01*
X33371Y26552D01*
X33417Y26583D01*
X33448Y26629D01*
X33459Y26684D01*
X33448Y26738D01*
X33417Y26785D01*
X33461Y26868D01*
X33515Y26857D01*
X33570Y26868D01*
X33616Y26899D01*
X33647Y26945D01*
X33649Y26955D01*
X33698Y26988D01*
X33698Y26988D01*
X34573D01*
X34603Y26968D01*
X34657Y26957D01*
X34712Y26968D01*
X34758Y26999D01*
X34789Y27045D01*
X34800Y27100D01*
X34789Y27155D01*
X34758Y27201D01*
X34712Y27232D01*
X34657Y27243D01*
X34603Y27232D01*
X34573Y27212D01*
X33745D01*
X33296Y27661D01*
X33292Y27667D01*
X33292Y27667D01*
X33040Y27919D01*
X33027Y27928D01*
X33054Y28028D01*
X33214D01*
X33261Y27980D01*
X33268Y27945D01*
X33299Y27899D01*
X33345Y27868D01*
X33400Y27857D01*
X33455Y27868D01*
X33501Y27899D01*
X33532Y27945D01*
X33543Y28000D01*
X33532Y28055D01*
X33501Y28101D01*
X33455Y28132D01*
X33420Y28139D01*
X33339Y28219D01*
X33303Y28244D01*
X33260Y28252D01*
X33260Y28252D01*
X33003D01*
X32981Y28275D01*
X32937Y28352D01*
X32943Y28380D01*
X32932Y28435D01*
X32901Y28481D01*
X32855Y28512D01*
X32800Y28523D01*
X32745Y28512D01*
X32716Y28492D01*
X31056D01*
X30940Y28609D01*
X30981Y28709D01*
X31400D01*
Y29203D01*
X31323D01*
Y29498D01*
X31400D01*
Y29992D01*
X30867D01*
Y29498D01*
X30915D01*
Y29203D01*
X30867D01*
Y28823D01*
X30767Y28781D01*
X29189Y30360D01*
X29182Y30395D01*
X29151Y30441D01*
X29105Y30472D01*
X29050Y30483D01*
X28995Y30472D01*
X28949Y30441D01*
X28918Y30395D01*
X28914Y30376D01*
X28819Y30337D01*
X28812Y30336D01*
X26269Y32879D01*
X26233Y32904D01*
X26190Y32912D01*
X26190Y32912D01*
X24045D01*
X24016Y32932D01*
X23961Y32943D01*
D02*
G37*
G36*
X35327Y27715D02*
X35180D01*
Y27549D01*
X35327D01*
Y27715D01*
D02*
G37*
G36*
X34980D02*
X34833D01*
Y27549D01*
X34980D01*
Y27715D01*
D02*
G37*
G36*
X34505Y27714D02*
X34359D01*
Y27547D01*
X34505D01*
Y27714D01*
D02*
G37*
G36*
X34159D02*
X34012D01*
Y27547D01*
X34159D01*
Y27714D01*
D02*
G37*
G36*
X20890Y26913D02*
X20835Y26902D01*
X20789Y26871D01*
X20758Y26825D01*
X20747Y26770D01*
X20758Y26715D01*
X20789Y26669D01*
X20835Y26638D01*
X20890Y26627D01*
X20945Y26638D01*
X20991Y26669D01*
X21022Y26715D01*
X21033Y26770D01*
X21022Y26825D01*
X20991Y26871D01*
X20945Y26902D01*
X20890Y26913D01*
D02*
G37*
G36*
X30927Y26781D02*
X30780D01*
Y26615D01*
X30927D01*
Y26781D01*
D02*
G37*
G36*
X30127D02*
X29980D01*
Y26615D01*
X30127D01*
Y26781D01*
D02*
G37*
G36*
X30580D02*
X30433D01*
Y26615D01*
X30580D01*
Y26781D01*
D02*
G37*
G36*
X22686Y26897D02*
X22631Y26886D01*
X22585Y26855D01*
X22554Y26809D01*
X22543Y26754D01*
X22554Y26699D01*
X22585Y26653D01*
X22631Y26622D01*
X22686Y26611D01*
X22741Y26622D01*
X22787Y26653D01*
X22818Y26699D01*
X22829Y26754D01*
X22818Y26809D01*
X22787Y26855D01*
X22741Y26886D01*
X22686Y26897D01*
D02*
G37*
G36*
X30927Y26415D02*
X30780D01*
Y26248D01*
X30927D01*
Y26415D01*
D02*
G37*
G36*
X30580D02*
X30433D01*
Y26248D01*
X30580D01*
Y26415D01*
D02*
G37*
G36*
X30127D02*
X29980D01*
Y26248D01*
X30127D01*
Y26415D01*
D02*
G37*
G36*
X29780D02*
X29633D01*
Y26248D01*
X29780D01*
Y26415D01*
D02*
G37*
G36*
X33246Y26138D02*
X33206Y26130D01*
X33190Y26133D01*
X33135Y26122D01*
X33089Y26091D01*
X33058Y26045D01*
X33047Y25990D01*
X33050Y25974D01*
X33042Y25934D01*
Y25759D01*
X32980D01*
Y25265D01*
X33041D01*
Y25097D01*
X32978D01*
Y24603D01*
X33041D01*
Y24388D01*
X33028D01*
Y24012D01*
X33166D01*
X33167Y24012D01*
X33245Y23996D01*
X33323Y24012D01*
X33324Y24012D01*
X33462D01*
Y24388D01*
X33449D01*
Y24603D01*
X33511D01*
Y25097D01*
X33449D01*
Y25265D01*
X33513D01*
Y25759D01*
X33450D01*
Y25934D01*
X33435Y26012D01*
X33391Y26078D01*
X33324Y26122D01*
X33246Y26138D01*
D02*
G37*
G36*
X32677Y25759D02*
Y25612D01*
X32844D01*
Y25759D01*
X32677D01*
D02*
G37*
G36*
X32844Y25412D02*
X32677D01*
Y25265D01*
X32844D01*
Y25412D01*
D02*
G37*
G36*
X31890Y26703D02*
X31835Y26692D01*
X31789Y26661D01*
X31758Y26615D01*
X31747Y26560D01*
X31758Y26505D01*
X31778Y26476D01*
Y25204D01*
X31723Y25127D01*
X31678Y25127D01*
X31344D01*
Y25390D01*
X31328Y25468D01*
X31284Y25534D01*
X31218Y25578D01*
X31140Y25594D01*
X31062Y25578D01*
X31013Y25546D01*
X30932Y25594D01*
X30927Y25599D01*
X30927Y25670D01*
Y26112D01*
X30433D01*
Y26064D01*
X30127D01*
Y26112D01*
X29633D01*
Y25579D01*
X30127D01*
Y25656D01*
X30433D01*
Y25579D01*
X30835D01*
X30905Y25579D01*
X30971Y25497D01*
X30952Y25468D01*
X30936Y25390D01*
Y25127D01*
X30562D01*
Y24594D01*
X31055D01*
Y24656D01*
X31229D01*
Y24594D01*
X31685Y24594D01*
X31726Y24526D01*
X31685Y24458D01*
X31576D01*
Y24191D01*
Y23925D01*
X31678D01*
X31723Y23925D01*
X31778Y23847D01*
Y23666D01*
X31664Y23552D01*
X19049D01*
X19005Y23582D01*
X18950Y23593D01*
X18895Y23582D01*
X18849Y23551D01*
X18818Y23505D01*
X18807Y23450D01*
X18818Y23395D01*
X18849Y23349D01*
X18895Y23318D01*
X18950Y23307D01*
X19005Y23318D01*
X19019Y23328D01*
X31710D01*
X31710Y23328D01*
X31753Y23336D01*
X31789Y23361D01*
X31958Y23529D01*
X32005Y23522D01*
X32058Y23493D01*
Y23376D01*
X31764Y23082D01*
X19064Y23082D01*
X19035Y23102D01*
X18980Y23113D01*
X18925Y23102D01*
X18879Y23071D01*
X18848Y23025D01*
X18837Y22970D01*
X18848Y22915D01*
X18879Y22869D01*
X18925Y22838D01*
X18980Y22827D01*
X19035Y22838D01*
X19064Y22858D01*
X31810Y22858D01*
X31810Y22858D01*
X31853Y22866D01*
X31889Y22891D01*
X32249Y23251D01*
X32249Y23251D01*
X32274Y23287D01*
X32282Y23330D01*
X32282Y23330D01*
Y24514D01*
X32309Y24603D01*
X32382Y24603D01*
X32475D01*
Y24850D01*
Y25097D01*
X32333D01*
X32288Y25182D01*
X32334Y25265D01*
X32382Y25265D01*
X32477D01*
Y25512D01*
Y25759D01*
X32382D01*
X32310Y25759D01*
X32282Y25847D01*
Y26456D01*
X32302Y26485D01*
X32313Y26540D01*
X32302Y26595D01*
X32271Y26641D01*
X32225Y26672D01*
X32170Y26683D01*
X32115Y26672D01*
X32101Y26662D01*
X32067Y26642D01*
X31991Y26661D01*
X31945Y26692D01*
X31890Y26703D01*
D02*
G37*
G36*
X32675Y25097D02*
Y24950D01*
X32842D01*
Y25097D01*
X32675D01*
D02*
G37*
G36*
X32842Y24750D02*
X32675D01*
Y24603D01*
X32842D01*
Y24750D01*
D02*
G37*
G36*
X37665Y24888D02*
X37611Y24877D01*
X37564Y24846D01*
X37533Y24800D01*
X37523Y24745D01*
X37533Y24691D01*
X37564Y24644D01*
X37611Y24613D01*
X37665Y24603D01*
X37720Y24613D01*
X37766Y24644D01*
X37797Y24691D01*
X37808Y24745D01*
X37797Y24800D01*
X37766Y24846D01*
X37720Y24877D01*
X37665Y24888D01*
D02*
G37*
G36*
X31376Y24458D02*
X31229D01*
Y24291D01*
X31376D01*
Y24458D01*
D02*
G37*
G36*
X31055D02*
X30909D01*
Y24291D01*
X31055D01*
Y24458D01*
D02*
G37*
G36*
X30709D02*
X30562D01*
Y24291D01*
X30709D01*
Y24458D01*
D02*
G37*
G36*
X13214Y24941D02*
X12326D01*
Y24053D01*
X13214D01*
Y24941D01*
D02*
G37*
G36*
X31055Y24091D02*
X30909D01*
Y23925D01*
X31055D01*
Y24091D01*
D02*
G37*
G36*
X30709D02*
X30562D01*
Y23925D01*
X30709D01*
Y24091D01*
D02*
G37*
G36*
X31376Y24091D02*
X31229D01*
Y23925D01*
X31376D01*
Y24091D01*
D02*
G37*
G36*
X26720Y23943D02*
X26665Y23932D01*
X26619Y23901D01*
X26588Y23855D01*
X26577Y23800D01*
X26588Y23745D01*
X26619Y23699D01*
X26665Y23668D01*
X26720Y23657D01*
X26775Y23668D01*
X26821Y23699D01*
X26852Y23745D01*
X26863Y23800D01*
X26852Y23855D01*
X26821Y23901D01*
X26775Y23932D01*
X26720Y23943D01*
D02*
G37*
G36*
X32635Y24404D02*
X32557Y24388D01*
X32556Y24388D01*
X32418D01*
Y24012D01*
X32431D01*
Y23855D01*
X32446Y23777D01*
X32491Y23711D01*
X32557Y23666D01*
X32635Y23651D01*
X32713Y23666D01*
X32779Y23711D01*
X32823Y23777D01*
X32839Y23855D01*
Y24012D01*
X32852D01*
Y24388D01*
X32714D01*
X32713Y24388D01*
X32635Y24404D01*
D02*
G37*
G36*
X15381Y23762D02*
X15215D01*
Y23615D01*
X15381D01*
Y23762D01*
D02*
G37*
G36*
X15015D02*
X14848D01*
Y23615D01*
X15015D01*
Y23762D01*
D02*
G37*
G36*
X15381Y23415D02*
X15215D01*
Y23268D01*
X15381D01*
Y23415D01*
D02*
G37*
G36*
X15015D02*
X14848D01*
Y23268D01*
X15015D01*
Y23415D01*
D02*
G37*
G36*
X16880Y23191D02*
X16825Y23180D01*
X16779Y23150D01*
X16748Y23103D01*
X16737Y23049D01*
X16748Y22994D01*
X16779Y22948D01*
X16825Y22917D01*
X16880Y22906D01*
X16935Y22917D01*
X16981Y22948D01*
X17012Y22994D01*
X17023Y23049D01*
X17012Y23103D01*
X16981Y23150D01*
X16935Y23180D01*
X16880Y23191D01*
D02*
G37*
G36*
X15377Y22897D02*
X15211D01*
Y22750D01*
X15377D01*
Y22897D01*
D02*
G37*
G36*
X15011D02*
X14844D01*
Y22750D01*
X15011D01*
Y22897D01*
D02*
G37*
G36*
X16050Y23762D02*
X15517D01*
Y23268D01*
X15580D01*
Y23090D01*
X15576Y23070D01*
X15580Y23050D01*
Y22897D01*
X15513D01*
Y22403D01*
X16047D01*
Y22897D01*
X15988D01*
Y23268D01*
X16050D01*
Y23762D01*
D02*
G37*
G36*
X15377Y22550D02*
X15211D01*
Y22403D01*
X15377D01*
Y22550D01*
D02*
G37*
G36*
X15011D02*
X14844D01*
Y22403D01*
X15011D01*
Y22550D01*
D02*
G37*
G36*
X12770Y22976D02*
X12654Y22961D01*
X12546Y22916D01*
X12454Y22845D01*
X12382Y22752D01*
X12338Y22644D01*
X12322Y22529D01*
X12338Y22413D01*
X12382Y22305D01*
X12454Y22212D01*
X12546Y22141D01*
X12654Y22096D01*
X12770Y22081D01*
X12886Y22096D01*
X12994Y22141D01*
X13086Y22212D01*
X13158Y22305D01*
X13202Y22413D01*
X13218Y22529D01*
X13202Y22644D01*
X13158Y22752D01*
X13086Y22845D01*
X12994Y22916D01*
X12886Y22961D01*
X12770Y22976D01*
D02*
G37*
G36*
X29110Y22648D02*
X24573D01*
X24535Y22632D01*
X24535Y22632D01*
X23327Y21424D01*
X23234Y21462D01*
Y22407D01*
X23234Y22430D01*
X23234Y22430D01*
X23218Y22468D01*
X23180Y22484D01*
X23180Y22484D01*
X23157Y22484D01*
X19609Y22484D01*
X19590Y22476D01*
X19571Y22469D01*
X19571Y22468D01*
X19571Y22468D01*
X19563Y22449D01*
X19555Y22430D01*
X19529Y19071D01*
X19529Y19071D01*
X19529Y19071D01*
X19529Y19071D01*
X19537Y19052D01*
X19545Y19033D01*
X19545Y19032D01*
X19545Y19032D01*
X19545Y19032D01*
X19580Y18997D01*
X19580Y18997D01*
X19580Y18997D01*
X19580Y18997D01*
X19584Y18995D01*
X19599Y18989D01*
X19618Y18981D01*
X19618Y18981D01*
X19618Y18981D01*
X19619Y18981D01*
X22501Y18981D01*
X22539Y18997D01*
X22555Y19035D01*
X22555Y20937D01*
D01*
Y20948D01*
X23252D01*
Y19770D01*
X23268Y19732D01*
X23268Y19732D01*
X23268Y19732D01*
X23284Y19716D01*
D01*
X23284Y19716D01*
X23322Y19700D01*
X24978D01*
X25016Y19716D01*
X25792Y20492D01*
D01*
X25800Y20500D01*
X29110Y20500D01*
X29110Y20500D01*
X29148Y20516D01*
X29164Y20554D01*
X29164Y20554D01*
X29164Y20578D01*
Y22594D01*
X29148Y22632D01*
X29110Y22648D01*
D02*
G37*
G36*
X18091Y21023D02*
X18036Y21012D01*
X17990Y20981D01*
X17959Y20935D01*
X17948Y20880D01*
X17959Y20825D01*
X17990Y20779D01*
X18036Y20748D01*
X18091Y20737D01*
X18145Y20748D01*
X18192Y20779D01*
X18223Y20825D01*
X18234Y20880D01*
X18223Y20935D01*
X18192Y20981D01*
X18145Y21012D01*
X18091Y21023D01*
D02*
G37*
G36*
X12870Y20994D02*
Y20660D01*
X13204D01*
X13202Y20676D01*
X13158Y20784D01*
X13086Y20876D01*
X12994Y20948D01*
X12886Y20992D01*
X12870Y20994D01*
D02*
G37*
G36*
X12670D02*
X12654Y20992D01*
X12546Y20948D01*
X12454Y20876D01*
X12382Y20784D01*
X12338Y20676D01*
X12336Y20660D01*
X12670D01*
Y20994D01*
D02*
G37*
G36*
X13204Y20460D02*
X12870D01*
Y20126D01*
X12886Y20128D01*
X12994Y20172D01*
X13086Y20244D01*
X13158Y20336D01*
X13202Y20444D01*
X13204Y20460D01*
D02*
G37*
G36*
X12670D02*
X12336D01*
X12338Y20444D01*
X12382Y20336D01*
X12454Y20244D01*
X12546Y20172D01*
X12654Y20128D01*
X12670Y20126D01*
Y20460D01*
D02*
G37*
G36*
X31290Y20139D02*
X31235Y20128D01*
X31189Y20097D01*
X31158Y20051D01*
X31147Y19996D01*
X31158Y19941D01*
X31189Y19895D01*
X31235Y19864D01*
X31290Y19853D01*
X31345Y19864D01*
X31391Y19895D01*
X31422Y19941D01*
X31433Y19996D01*
X31422Y20051D01*
X31391Y20097D01*
X31345Y20128D01*
X31290Y20139D01*
D02*
G37*
G36*
X35820Y20083D02*
X35765Y20072D01*
X35719Y20041D01*
X35688Y19995D01*
X35677Y19940D01*
X35688Y19885D01*
X35719Y19839D01*
X35765Y19808D01*
X35820Y19797D01*
X35875Y19808D01*
X35921Y19839D01*
X35952Y19885D01*
X35963Y19940D01*
X35952Y19995D01*
X35921Y20041D01*
X35875Y20072D01*
X35820Y20083D01*
D02*
G37*
G36*
X35833Y19413D02*
X35779Y19402D01*
X35732Y19371D01*
X35701Y19325D01*
X35691Y19270D01*
X35701Y19215D01*
X35732Y19169D01*
X35779Y19138D01*
X35833Y19127D01*
X35888Y19138D01*
X35934Y19169D01*
X35965Y19215D01*
X35976Y19270D01*
X35965Y19325D01*
X35934Y19371D01*
X35888Y19402D01*
X35833Y19413D01*
D02*
G37*
G36*
X42160Y18460D02*
X42083Y18450D01*
X42012Y18420D01*
X41951Y18373D01*
X41903Y18312D01*
X41874Y18240D01*
X41864Y18163D01*
X41874Y18087D01*
X41903Y18015D01*
X41951Y17954D01*
X42012Y17907D01*
X42083Y17877D01*
X42160Y17867D01*
X42237Y17877D01*
X42308Y17907D01*
X42369Y17954D01*
X42417Y18015D01*
X42446Y18087D01*
X42456Y18163D01*
X42446Y18240D01*
X42417Y18312D01*
X42369Y18373D01*
X42308Y18420D01*
X42237Y18450D01*
X42160Y18460D01*
D02*
G37*
G36*
X25980Y18834D02*
X25050D01*
X25050Y18834D01*
D01*
X25012Y18818D01*
X25004Y18800D01*
D01*
X24996Y18780D01*
X24996Y18780D01*
X24996Y18757D01*
X24996Y17090D01*
X25012Y17052D01*
X25050Y17036D01*
X29097Y17036D01*
X29120Y17036D01*
X29120Y17036D01*
X29158Y17052D01*
X29174Y17090D01*
X29174Y17090D01*
X29174Y17113D01*
X29174Y18780D01*
X29158Y18818D01*
X29120Y18834D01*
X28909D01*
X28889Y18826D01*
X27608D01*
X27589Y18834D01*
X27300D01*
X27280Y18826D01*
X26000D01*
X25980Y18834D01*
D02*
G37*
G36*
X18980Y16514D02*
X18950D01*
D01*
X18832D01*
X18569D01*
D01*
X17249Y16514D01*
D01*
X17069D01*
X14450Y16514D01*
X14412Y16498D01*
X14400Y16470D01*
X14396Y16460D01*
X14396Y16460D01*
X14396Y16437D01*
X14396Y14740D01*
X14412Y14702D01*
X14450Y14686D01*
X18957Y14686D01*
X18980Y14686D01*
X18980Y14686D01*
X19018Y14702D01*
X19034Y14740D01*
X19034Y14740D01*
X19034Y14763D01*
X19034Y16460D01*
X19018Y16498D01*
X18980Y16514D01*
D02*
G37*
G36*
X40830Y16533D02*
X40775Y16522D01*
X40729Y16491D01*
X40698Y16445D01*
X40687Y16390D01*
X40698Y16335D01*
X40729Y16289D01*
X40775Y16258D01*
X40830Y16247D01*
X40885Y16258D01*
X40931Y16289D01*
X40962Y16335D01*
X40973Y16390D01*
X40962Y16445D01*
X40931Y16491D01*
X40885Y16522D01*
X40830Y16533D01*
D02*
G37*
G36*
X22830Y16012D02*
X22775Y16001D01*
X22729Y15970D01*
X22698Y15924D01*
X22687Y15869D01*
X22698Y15815D01*
X22729Y15768D01*
X22775Y15738D01*
X22830Y15727D01*
X22885Y15738D01*
X22931Y15768D01*
X22962Y15815D01*
X22973Y15869D01*
X22962Y15924D01*
X22931Y15970D01*
X22885Y16001D01*
X22830Y16012D01*
D02*
G37*
G36*
X22201D02*
X22146Y16001D01*
X22100Y15970D01*
X22069Y15924D01*
X22058Y15869D01*
X22069Y15815D01*
X22100Y15768D01*
X22146Y15738D01*
X22201Y15727D01*
X22255Y15738D01*
X22302Y15768D01*
X22332Y15815D01*
X22343Y15869D01*
X22332Y15924D01*
X22302Y15970D01*
X22255Y16001D01*
X22201Y16012D01*
D02*
G37*
G36*
X42160Y15586D02*
X42083Y15576D01*
X42012Y15546D01*
X41951Y15499D01*
X41903Y15438D01*
X41874Y15366D01*
X41864Y15289D01*
X41874Y15213D01*
X41903Y15141D01*
X41951Y15080D01*
X42012Y15033D01*
X42083Y15003D01*
X42160Y14993D01*
X42237Y15003D01*
X42308Y15033D01*
X42369Y15080D01*
X42417Y15141D01*
X42446Y15213D01*
X42456Y15289D01*
X42446Y15366D01*
X42417Y15438D01*
X42369Y15499D01*
X42308Y15546D01*
X42237Y15576D01*
X42160Y15586D01*
D02*
G37*
G36*
X25750Y13863D02*
X25695Y13852D01*
X25649Y13821D01*
X25618Y13775D01*
X25607Y13720D01*
X25618Y13665D01*
X25649Y13619D01*
X25695Y13588D01*
X25750Y13577D01*
X25805Y13588D01*
X25851Y13619D01*
X25882Y13665D01*
X25893Y13720D01*
X25882Y13775D01*
X25851Y13821D01*
X25805Y13852D01*
X25750Y13863D01*
D02*
G37*
G36*
X28100Y13858D02*
X28045Y13847D01*
X27999Y13816D01*
X27968Y13770D01*
X27957Y13715D01*
X27968Y13660D01*
X27999Y13614D01*
X28045Y13583D01*
X28100Y13572D01*
X28155Y13583D01*
X28201Y13614D01*
X28232Y13660D01*
X28243Y13715D01*
X28232Y13770D01*
X28201Y13816D01*
X28155Y13847D01*
X28100Y13858D01*
D02*
G37*
G36*
X27317D02*
X27262Y13847D01*
X27216Y13816D01*
X27185Y13770D01*
X27174Y13715D01*
X27185Y13660D01*
X27216Y13614D01*
X27262Y13583D01*
X27317Y13572D01*
X27371Y13583D01*
X27418Y13614D01*
X27449Y13660D01*
X27459Y13715D01*
X27449Y13770D01*
X27418Y13816D01*
X27371Y13847D01*
X27317Y13858D01*
D02*
G37*
G36*
X26533D02*
X26479Y13847D01*
X26432Y13816D01*
X26401Y13770D01*
X26391Y13715D01*
X26401Y13660D01*
X26432Y13614D01*
X26479Y13583D01*
X26533Y13572D01*
X26588Y13583D01*
X26634Y13614D01*
X26665Y13660D01*
X26676Y13715D01*
X26665Y13770D01*
X26634Y13816D01*
X26588Y13847D01*
X26533Y13858D01*
D02*
G37*
G36*
X12565Y13743D02*
X12510Y13732D01*
X12464Y13701D01*
X12433Y13655D01*
X12422Y13600D01*
X12433Y13545D01*
X12464Y13499D01*
X12510Y13468D01*
X12565Y13457D01*
X12619Y13468D01*
X12666Y13499D01*
X12697Y13545D01*
X12708Y13600D01*
X12697Y13655D01*
X12666Y13701D01*
X12619Y13732D01*
X12565Y13743D01*
D02*
G37*
G36*
X11898Y13723D02*
X11843Y13712D01*
X11797Y13681D01*
X11766Y13635D01*
X11755Y13580D01*
X11766Y13525D01*
X11797Y13479D01*
X11843Y13448D01*
X11898Y13437D01*
X11953Y13448D01*
X11999Y13479D01*
X12030Y13525D01*
X12041Y13580D01*
X12030Y13635D01*
X11999Y13681D01*
X11953Y13712D01*
X11898Y13723D01*
D02*
G37*
G36*
X30210Y13673D02*
X30155Y13662D01*
X30109Y13631D01*
X30078Y13585D01*
X30067Y13530D01*
X30078Y13475D01*
X30109Y13429D01*
X30155Y13398D01*
X30210Y13387D01*
X30265Y13398D01*
X30311Y13429D01*
X30342Y13475D01*
X30353Y13530D01*
X30342Y13585D01*
X30311Y13631D01*
X30265Y13662D01*
X30210Y13673D01*
D02*
G37*
G36*
X29190D02*
X29135Y13662D01*
X29089Y13631D01*
X29058Y13585D01*
X29047Y13530D01*
X29058Y13475D01*
X29089Y13429D01*
X29135Y13398D01*
X29190Y13387D01*
X29245Y13398D01*
X29291Y13429D01*
X29322Y13475D01*
X29333Y13530D01*
X29322Y13585D01*
X29291Y13631D01*
X29245Y13662D01*
X29190Y13673D01*
D02*
G37*
G36*
X37991Y13444D02*
Y13110D01*
X38326D01*
X38324Y13126D01*
X38279Y13234D01*
X38208Y13326D01*
X38115Y13398D01*
X38007Y13442D01*
X37991Y13444D01*
D02*
G37*
G36*
X37792D02*
X37776Y13442D01*
X37668Y13398D01*
X37575Y13326D01*
X37504Y13234D01*
X37459Y13126D01*
X37457Y13110D01*
X37792D01*
Y13444D01*
D02*
G37*
G36*
X32059Y13336D02*
X31794D01*
Y13071D01*
X32059D01*
Y13336D01*
D02*
G37*
G36*
X31594D02*
X31329D01*
Y13071D01*
X31594D01*
Y13336D01*
D02*
G37*
G36*
X28100Y13120D02*
X28045Y13109D01*
X27999Y13078D01*
X27968Y13032D01*
X27957Y12977D01*
X27968Y12923D01*
X27999Y12877D01*
X28045Y12846D01*
X28100Y12835D01*
X28155Y12846D01*
X28201Y12877D01*
X28232Y12923D01*
X28243Y12977D01*
X28232Y13032D01*
X28201Y13078D01*
X28155Y13109D01*
X28100Y13120D01*
D02*
G37*
G36*
X25750D02*
X25695Y13109D01*
X25649Y13078D01*
X25618Y13032D01*
X25607Y12977D01*
X25618Y12923D01*
X25649Y12877D01*
X25695Y12846D01*
X25750Y12835D01*
X25805Y12846D01*
X25851Y12877D01*
X25882Y12923D01*
X25893Y12977D01*
X25882Y13032D01*
X25851Y13078D01*
X25805Y13109D01*
X25750Y13120D01*
D02*
G37*
G36*
X32059Y12871D02*
X31794D01*
Y12606D01*
X32059D01*
Y12871D01*
D02*
G37*
G36*
X31594D02*
X31329D01*
Y12606D01*
X31594D01*
Y12871D01*
D02*
G37*
G36*
X29726Y13340D02*
X29630Y13327D01*
X29542Y13290D01*
X29465Y13232D01*
X29407Y13155D01*
X29370Y13067D01*
X29358Y12971D01*
X29370Y12876D01*
X29407Y12787D01*
X29465Y12711D01*
X29542Y12653D01*
X29630Y12616D01*
X29726Y12603D01*
X29821Y12616D01*
X29910Y12653D01*
X29986Y12711D01*
X30045Y12787D01*
X30081Y12876D01*
X30094Y12971D01*
X30081Y13067D01*
X30045Y13155D01*
X29986Y13232D01*
X29910Y13290D01*
X29821Y13327D01*
X29726Y13340D01*
D02*
G37*
G36*
X38326Y12910D02*
X37991D01*
Y12576D01*
X38007Y12578D01*
X38115Y12622D01*
X38208Y12694D01*
X38279Y12786D01*
X38324Y12894D01*
X38326Y12910D01*
D02*
G37*
G36*
X37792D02*
X37457D01*
X37459Y12894D01*
X37504Y12786D01*
X37575Y12694D01*
X37668Y12622D01*
X37776Y12578D01*
X37792Y12576D01*
Y12910D01*
D02*
G37*
G36*
X42272Y13454D02*
X41385D01*
Y12566D01*
X42272D01*
Y13454D01*
D02*
G37*
G36*
X39860Y13458D02*
X39744Y13442D01*
X39636Y13398D01*
X39544Y13326D01*
X39472Y13234D01*
X39428Y13126D01*
X39412Y13010D01*
X39428Y12894D01*
X39472Y12786D01*
X39544Y12694D01*
X39636Y12622D01*
X39744Y12578D01*
X39860Y12562D01*
X39976Y12578D01*
X40084Y12622D01*
X40176Y12694D01*
X40248Y12786D01*
X40292Y12894D01*
X40308Y13010D01*
X40292Y13126D01*
X40248Y13234D01*
X40176Y13326D01*
X40084Y13398D01*
X39976Y13442D01*
X39860Y13458D01*
D02*
G37*
G36*
X30210Y12563D02*
X30155Y12552D01*
X30109Y12521D01*
X30078Y12475D01*
X30067Y12420D01*
X30078Y12365D01*
X30109Y12319D01*
X30155Y12288D01*
X30210Y12277D01*
X30265Y12288D01*
X30311Y12319D01*
X30342Y12365D01*
X30353Y12420D01*
X30342Y12475D01*
X30311Y12521D01*
X30265Y12552D01*
X30210Y12563D01*
D02*
G37*
G36*
X29190D02*
X29135Y12552D01*
X29089Y12521D01*
X29058Y12475D01*
X29047Y12420D01*
X29058Y12365D01*
X29089Y12319D01*
X29135Y12288D01*
X29190Y12277D01*
X29245Y12288D01*
X29291Y12319D01*
X29322Y12365D01*
X29333Y12420D01*
X29322Y12475D01*
X29291Y12521D01*
X29245Y12552D01*
X29190Y12563D01*
D02*
G37*
G36*
X28100Y12378D02*
X28045Y12367D01*
X27999Y12336D01*
X27968Y12290D01*
X27957Y12235D01*
X27968Y12180D01*
X27999Y12134D01*
X28045Y12103D01*
X28100Y12092D01*
X28155Y12103D01*
X28201Y12134D01*
X28232Y12180D01*
X28243Y12235D01*
X28232Y12290D01*
X28201Y12336D01*
X28155Y12367D01*
X28100Y12378D01*
D02*
G37*
G36*
X27317D02*
X27262Y12367D01*
X27216Y12336D01*
X27185Y12290D01*
X27174Y12235D01*
X27185Y12180D01*
X27216Y12134D01*
X27262Y12103D01*
X27317Y12092D01*
X27371Y12103D01*
X27418Y12134D01*
X27449Y12180D01*
X27459Y12235D01*
X27449Y12290D01*
X27418Y12336D01*
X27371Y12367D01*
X27317Y12378D01*
D02*
G37*
G36*
X26533D02*
X26479Y12367D01*
X26432Y12336D01*
X26401Y12290D01*
X26391Y12235D01*
X26401Y12180D01*
X26432Y12134D01*
X26479Y12103D01*
X26533Y12092D01*
X26588Y12103D01*
X26634Y12134D01*
X26665Y12180D01*
X26676Y12235D01*
X26665Y12290D01*
X26634Y12336D01*
X26588Y12367D01*
X26533Y12378D01*
D02*
G37*
G36*
X25750D02*
X25695Y12367D01*
X25649Y12336D01*
X25618Y12290D01*
X25607Y12235D01*
X25618Y12180D01*
X25649Y12134D01*
X25695Y12103D01*
X25750Y12092D01*
X25805Y12103D01*
X25851Y12134D01*
X25882Y12180D01*
X25893Y12235D01*
X25882Y12290D01*
X25851Y12336D01*
X25805Y12367D01*
X25750Y12378D01*
D02*
G37*
%LPD*%
G36*
X29169Y37523D02*
X29232Y37497D01*
X29300Y37488D01*
X29368Y37497D01*
X29387Y37505D01*
X29550Y37341D01*
Y36107D01*
X29435D01*
Y35788D01*
X29435Y35721D01*
X29346Y35672D01*
X29340Y35675D01*
X29184Y35831D01*
Y36107D01*
X29069D01*
Y37474D01*
X29169Y37523D01*
X29169Y37523D01*
D02*
G37*
G36*
X32838Y27712D02*
X32785Y27612D01*
X29260D01*
X29260Y27612D01*
X29217Y27604D01*
X29181Y27579D01*
X29181Y27579D01*
X28544Y26942D01*
X27394D01*
X27392Y26944D01*
Y27306D01*
X27392Y27306D01*
X27384Y27349D01*
X27359Y27385D01*
X27359Y27386D01*
X27291Y27453D01*
X27255Y27478D01*
X27212Y27486D01*
X27212Y27486D01*
X27008D01*
X27008Y27486D01*
X26965Y27478D01*
X26929Y27453D01*
X26929Y27453D01*
X26861Y27385D01*
X26836Y27349D01*
X26828Y27306D01*
X26828Y27306D01*
Y26944D01*
X26826Y26942D01*
X25386D01*
X24749Y27579D01*
X24713Y27604D01*
X24670Y27612D01*
X24670Y27612D01*
X23879D01*
X23865Y27628D01*
X23911Y27728D01*
X32828D01*
X32838Y27712D01*
D02*
G37*
G36*
X29110Y20554D02*
X25800Y20554D01*
X25800Y20554D01*
X25762Y20538D01*
X24978Y19754D01*
X23322D01*
X23307Y19770D01*
Y20948D01*
X23291Y20986D01*
X23258Y20999D01*
X23255Y21276D01*
X24573Y22594D01*
X29110D01*
Y20554D01*
D02*
G37*
G36*
X23180Y21002D02*
X22555D01*
X22517Y20986D01*
X22501Y20948D01*
X22501Y19035D01*
X19619Y19035D01*
X19583Y19070D01*
X19609Y22430D01*
X23180Y22430D01*
Y21002D01*
D02*
G37*
G36*
X25980Y18780D02*
Y18772D01*
X27300D01*
Y18780D01*
X27589D01*
Y18772D01*
X28909D01*
Y18780D01*
X29120D01*
X29120Y17090D01*
X25050Y17090D01*
X25050Y18780D01*
X25980D01*
D02*
G37*
G36*
X18980Y14740D02*
X14450Y14740D01*
X14450Y16460D01*
X18980Y16460D01*
X18980Y14740D01*
D02*
G37*
%LPC*%
G36*
X46901Y25158D02*
X46785Y25147D01*
X46673Y25113D01*
X46569Y25057D01*
X46479Y24983D01*
X46405Y24893D01*
X46350Y24790D01*
X46316Y24678D01*
X46304Y24561D01*
X46316Y24445D01*
X46350Y24333D01*
X46405Y24230D01*
X46479Y24140D01*
X46569Y24065D01*
X46673Y24010D01*
X46785Y23976D01*
X46901Y23965D01*
X47017Y23976D01*
X47129Y24010D01*
X47232Y24065D01*
X47323Y24140D01*
X47397Y24230D01*
X47452Y24333D01*
X47486Y24445D01*
X47498Y24561D01*
X47486Y24678D01*
X47452Y24790D01*
X47397Y24893D01*
X47323Y24983D01*
X47232Y25057D01*
X47129Y25113D01*
X47017Y25147D01*
X46901Y25158D01*
D02*
G37*
G36*
X45270Y20963D02*
X45194Y20953D01*
X45124Y20923D01*
X45063Y20877D01*
X45017Y20816D01*
X44987Y20746D01*
X44977Y20670D01*
X44987Y20594D01*
X45017Y20524D01*
X45063Y20463D01*
X45124Y20417D01*
X45194Y20387D01*
X45270Y20378D01*
X45346Y20387D01*
X45416Y20417D01*
X45477Y20463D01*
X45523Y20524D01*
X45553Y20594D01*
X45563Y20670D01*
X45553Y20746D01*
X45523Y20816D01*
X45477Y20877D01*
X45416Y20923D01*
X45346Y20953D01*
X45270Y20963D01*
D02*
G37*
G36*
X48280Y20888D02*
X48204Y20878D01*
X48134Y20849D01*
X48073Y20803D01*
X48027Y20742D01*
X47997Y20672D01*
X47987Y20596D01*
X47997Y20520D01*
X48027Y20450D01*
X48073Y20389D01*
X48134Y20343D01*
X48204Y20313D01*
X48280Y20303D01*
X48356Y20313D01*
X48426Y20343D01*
X48487Y20389D01*
X48533Y20450D01*
X48563Y20520D01*
X48573Y20596D01*
X48563Y20672D01*
X48533Y20742D01*
X48487Y20803D01*
X48426Y20849D01*
X48356Y20878D01*
X48280Y20888D01*
D02*
G37*
G36*
X47495Y21218D02*
X46307D01*
Y20031D01*
X47495D01*
Y21218D01*
D02*
G37*
G36*
X47680Y20022D02*
X47604Y20013D01*
X47534Y19983D01*
X47473Y19937D01*
X47427Y19876D01*
X47397Y19806D01*
X47387Y19730D01*
X47397Y19654D01*
X47427Y19584D01*
X47473Y19523D01*
X47534Y19477D01*
X47604Y19447D01*
X47680Y19438D01*
X47756Y19447D01*
X47826Y19477D01*
X47887Y19523D01*
X47933Y19584D01*
X47963Y19654D01*
X47972Y19730D01*
X47963Y19806D01*
X47933Y19876D01*
X47887Y19937D01*
X47826Y19983D01*
X47756Y20013D01*
X47680Y20022D01*
D02*
G37*
G36*
X46150D02*
X46074Y20013D01*
X46004Y19983D01*
X45943Y19937D01*
X45897Y19876D01*
X45867Y19806D01*
X45858Y19730D01*
X45867Y19654D01*
X45897Y19584D01*
X45943Y19523D01*
X46004Y19477D01*
X46074Y19447D01*
X46150Y19438D01*
X46226Y19447D01*
X46296Y19477D01*
X46357Y19523D01*
X46403Y19584D01*
X46433Y19654D01*
X46442Y19730D01*
X46433Y19806D01*
X46403Y19876D01*
X46357Y19937D01*
X46296Y19983D01*
X46226Y20013D01*
X46150Y20022D01*
D02*
G37*
G36*
X48400Y19223D02*
X48324Y19213D01*
X48254Y19183D01*
X48193Y19137D01*
X48147Y19076D01*
X48117Y19006D01*
X48108Y18930D01*
X48117Y18854D01*
X48147Y18784D01*
X48193Y18723D01*
X48254Y18677D01*
X48324Y18647D01*
X48400Y18637D01*
X48476Y18647D01*
X48546Y18677D01*
X48607Y18723D01*
X48653Y18784D01*
X48683Y18854D01*
X48692Y18930D01*
X48683Y19006D01*
X48653Y19076D01*
X48607Y19137D01*
X48546Y19183D01*
X48476Y19213D01*
X48400Y19223D01*
D02*
G37*
G36*
X47450Y18238D02*
X47374Y18228D01*
X47304Y18199D01*
X47243Y18153D01*
X47197Y18092D01*
X47167Y18021D01*
X47158Y17946D01*
X47167Y17870D01*
X47197Y17800D01*
X47243Y17739D01*
X47304Y17692D01*
X47374Y17663D01*
X47450Y17653D01*
X47526Y17663D01*
X47596Y17692D01*
X47657Y17739D01*
X47703Y17800D01*
X47733Y17870D01*
X47743Y17946D01*
X47733Y18021D01*
X47703Y18092D01*
X47657Y18153D01*
X47596Y18199D01*
X47526Y18228D01*
X47450Y18238D01*
D02*
G37*
G36*
X46390Y18223D02*
X46314Y18213D01*
X46244Y18183D01*
X46183Y18137D01*
X46137Y18076D01*
X46107Y18006D01*
X46097Y17930D01*
X46107Y17854D01*
X46137Y17784D01*
X46183Y17723D01*
X46244Y17677D01*
X46314Y17647D01*
X46390Y17637D01*
X46466Y17647D01*
X46536Y17677D01*
X46597Y17723D01*
X46643Y17784D01*
X46673Y17854D01*
X46683Y17930D01*
X46673Y18006D01*
X46643Y18076D01*
X46597Y18137D01*
X46536Y18183D01*
X46466Y18213D01*
X46390Y18223D01*
D02*
G37*
G36*
X48360Y17563D02*
X48284Y17553D01*
X48214Y17523D01*
X48153Y17477D01*
X48107Y17416D01*
X48077Y17346D01*
X48067Y17270D01*
X48077Y17194D01*
X48107Y17124D01*
X48153Y17063D01*
X48214Y17017D01*
X48284Y16987D01*
X48360Y16977D01*
X48436Y16987D01*
X48506Y17017D01*
X48567Y17063D01*
X48613Y17124D01*
X48643Y17194D01*
X48653Y17270D01*
X48643Y17346D01*
X48613Y17416D01*
X48567Y17477D01*
X48506Y17523D01*
X48436Y17553D01*
X48360Y17563D01*
D02*
G37*
G36*
X45230Y17383D02*
X45154Y17373D01*
X45084Y17343D01*
X45023Y17297D01*
X44977Y17236D01*
X44947Y17166D01*
X44938Y17090D01*
X44947Y17014D01*
X44977Y16944D01*
X45023Y16883D01*
X45084Y16837D01*
X45154Y16807D01*
X45230Y16797D01*
X45306Y16807D01*
X45376Y16837D01*
X45437Y16883D01*
X45483Y16944D01*
X45513Y17014D01*
X45522Y17090D01*
X45513Y17166D01*
X45483Y17236D01*
X45437Y17297D01*
X45376Y17343D01*
X45306Y17373D01*
X45230Y17383D01*
D02*
G37*
G36*
X47365Y17439D02*
X46335D01*
Y16409D01*
X47365D01*
Y17439D01*
D02*
G37*
%LPD*%
D18*
X30290Y25860D02*
X30650D01*
X29938D02*
X30290D01*
X30280Y26230D02*
Y26470D01*
X30330Y26520D02*
X30639D01*
X31090Y29000D02*
X31119Y29029D01*
X34670Y28485D02*
X35070D01*
X34260D02*
X34670D01*
X34259Y28483D02*
X34260Y28485D01*
X34660Y27815D02*
X35070D01*
X34260D02*
X34660D01*
Y28130D01*
X34259Y27814D02*
X34260Y27815D01*
X30650Y25860D02*
X30659Y25851D01*
X29929D02*
X29938Y25860D01*
X31803Y29360D02*
Y29745D01*
Y28956D02*
Y29360D01*
X31793Y29350D02*
X31803Y29360D01*
X31520Y29350D02*
X31793D01*
X31134Y28956D02*
X31150Y28940D01*
X31090Y29000D02*
X31134Y28956D01*
X31119Y29029D02*
Y29350D01*
Y29730D02*
X31134Y29745D01*
X31119Y29350D02*
Y29730D01*
X29969Y26520D02*
X30330D01*
X31119Y35900D02*
X31130Y35911D01*
X32635Y23855D02*
Y24200D01*
X31140Y24860D02*
Y25390D01*
Y24860D02*
X31476D01*
X30809D02*
X31140D01*
X24636Y36220D02*
Y36616D01*
Y35766D02*
Y36220D01*
X24636Y36219D01*
X25061D01*
X23966Y36200D02*
Y36616D01*
Y35766D02*
Y36200D01*
X23965Y36199D02*
X23966Y36200D01*
X23561Y36199D02*
X23965D01*
X21456Y36300D02*
X21890D01*
X21456D02*
Y36689D01*
Y35836D02*
Y36300D01*
X20320D02*
X20780D01*
Y36696D01*
Y35843D02*
Y36300D01*
X32577Y25777D02*
X32800Y26000D01*
X32577Y25512D02*
Y25777D01*
X32575Y24850D02*
Y25511D01*
X33246Y25512D02*
Y25934D01*
X33245Y24850D02*
Y25511D01*
X33245Y24200D02*
Y24850D01*
X30809Y23707D02*
X30815Y23700D01*
X30809Y23707D02*
Y24191D01*
X31500Y23700D02*
Y24167D01*
X31476Y24191D02*
X31500Y24167D01*
X30809Y24191D02*
X30815Y24184D01*
X15115Y23084D02*
Y23515D01*
Y22654D02*
Y23084D01*
X15784Y23074D02*
Y23515D01*
Y22654D02*
Y23074D01*
X15780Y23070D02*
X15784Y23074D01*
X15111Y22650D02*
X15115Y22654D01*
X15780Y22650D02*
X15784Y22654D01*
D89*
X30660Y38157D02*
D03*
Y36700D02*
D03*
X26800Y38128D02*
D03*
Y36672D02*
D03*
D93*
X12770Y24497D02*
D03*
X46901Y20624D02*
D03*
D109*
X32635Y24200D02*
D03*
X33245D02*
D03*
D110*
X31476Y24191D02*
D03*
Y24860D02*
D03*
X30680Y26515D02*
D03*
Y25845D02*
D03*
X34259Y27814D02*
D03*
Y28483D02*
D03*
X30809Y24191D02*
D03*
Y24860D02*
D03*
X35080Y27815D02*
D03*
Y28485D02*
D03*
X29880Y25845D02*
D03*
Y26515D02*
D03*
D113*
X32577Y25512D02*
D03*
X33246D02*
D03*
X32575Y24850D02*
D03*
X33245D02*
D03*
X31803Y28956D02*
D03*
X31134D02*
D03*
X31803Y29745D02*
D03*
X31134D02*
D03*
X15111Y22650D02*
D03*
X15780D02*
D03*
X15115Y23515D02*
D03*
X15784D02*
D03*
X24636Y36616D02*
D03*
X23966D02*
D03*
X24646Y35756D02*
D03*
X23976D02*
D03*
X21449Y36696D02*
D03*
X20780D02*
D03*
X21456Y35836D02*
D03*
X20786D02*
D03*
D114*
X28247Y20166D02*
D03*
Y21347D02*
D03*
X17909Y16868D02*
D03*
Y15687D02*
D03*
X16300Y16868D02*
D03*
Y15687D02*
D03*
X16309Y17827D02*
D03*
Y19008D02*
D03*
X17917Y17807D02*
D03*
Y18988D02*
D03*
X28249Y19127D02*
D03*
Y17946D02*
D03*
X26640Y19127D02*
D03*
Y17946D02*
D03*
Y20167D02*
D03*
Y21348D02*
D03*
D117*
X30280Y26470D02*
X30330Y26520D01*
X32575Y25511D02*
X32577Y25512D01*
D118*
X32900Y27100D02*
X33316Y26684D01*
X29790Y27100D02*
X32900D01*
X25140Y26190D02*
X26790D01*
X27368D02*
X27560D01*
X27368D02*
X27570D01*
X33239Y35739D02*
X34250Y36750D01*
X32719Y35739D02*
X33239D01*
X28880Y26190D02*
X29790Y27100D01*
X27300Y26258D02*
X27368Y26190D01*
X27300Y26258D02*
Y26446D01*
X27232Y26514D02*
X27300Y26446D01*
X27028Y26514D02*
X27232D01*
X26960Y26446D02*
X27028Y26514D01*
X26960Y26258D02*
Y26446D01*
X26892Y26190D02*
X26960Y26258D01*
X26790Y26190D02*
X26892D01*
X24230Y27100D02*
X25140Y26190D01*
X23710Y27100D02*
X24230D01*
X27570Y26190D02*
X28880D01*
X33000Y27500D02*
X33500Y27000D01*
X29260Y27500D02*
X33000D01*
X28590Y26830D02*
X29260Y27500D01*
X27510Y26830D02*
X28590D01*
X25340D02*
X26770D01*
X27348D02*
X27510D01*
X27280Y26898D02*
X27348Y26830D01*
X27280Y26898D02*
Y27306D01*
X27212Y27374D02*
X27280Y27306D01*
X27008Y27374D02*
X27212D01*
X26940Y27306D02*
X27008Y27374D01*
X26940Y26898D02*
Y27306D01*
X26872Y26830D02*
X26940Y26898D01*
X26770Y26830D02*
X26872D01*
X24670Y27500D02*
X25340Y26830D01*
X23710Y27500D02*
X24670D01*
X33190Y25990D02*
X33246Y25934D01*
X33245Y25511D02*
X33246Y25512D01*
X33245Y24850D02*
X33245Y24850D01*
X31030Y28380D02*
X32800D01*
X31710Y23440D02*
X31890Y23620D01*
X18960Y23440D02*
X31710D01*
X18950Y23450D02*
X18960Y23440D01*
X31890Y23620D02*
Y26560D01*
X18980Y22970D02*
X31810Y22970D01*
X32170Y23330D01*
X32961Y27840D02*
X33212Y27588D01*
X23720Y27840D02*
X32961D01*
X33212Y27586D02*
X33698Y27100D01*
X33212Y27586D02*
Y27588D01*
X32170Y23330D02*
Y26540D01*
X31020Y28370D02*
X31030Y28380D01*
X30850Y28140D02*
X33260D01*
X29050Y30340D02*
X31020Y28370D01*
X26190Y32800D02*
X30850Y28140D01*
X23961Y32800D02*
X26190D01*
X33260Y28140D02*
X33400Y28000D01*
X29911Y33000D02*
X33168Y29744D01*
X27300Y33000D02*
X29911D01*
X27800Y37672D02*
Y37750D01*
X26800Y36672D02*
X27800Y37672D01*
X26800Y35620D02*
Y36672D01*
Y35620D02*
X27160Y35260D01*
X27740D01*
X28716Y34284D01*
X28800Y37750D02*
X28957Y37594D01*
Y35900D02*
Y37594D01*
Y35900D02*
X29444Y35413D01*
Y34300D02*
Y35413D01*
X29300Y37750D02*
X29663Y37388D01*
Y35900D02*
Y37388D01*
Y35900D02*
X30172Y35390D01*
Y34300D02*
Y35390D01*
X29800Y37750D02*
X30660Y36890D01*
Y36700D02*
Y36890D01*
Y35500D02*
Y36700D01*
Y35500D02*
X30900Y35260D01*
Y34300D02*
Y35260D01*
X33500Y27000D02*
X33515D01*
X33698Y27100D02*
X34657D01*
D130*
X46850Y14956D02*
D03*
X29726Y12971D02*
D03*
X47430Y33546D02*
D03*
D131*
X46850Y16924D02*
D03*
X47430Y35514D02*
D03*
D132*
X16010Y38860D02*
D03*
Y36860D02*
D03*
X14010D02*
D03*
Y38860D02*
D03*
D133*
X43070Y29870D02*
D03*
D134*
Y33870D02*
D03*
Y36870D02*
D03*
X39070Y29870D02*
D03*
Y33870D02*
D03*
Y36870D02*
D03*
D135*
X42160Y18163D02*
D03*
Y15289D02*
D03*
D136*
X12770Y22529D02*
D03*
Y20560D02*
D03*
X46901Y22593D02*
D03*
Y24561D02*
D03*
X39860Y13010D02*
D03*
X37891D02*
D03*
D137*
X21671Y39116D02*
D03*
X20671D02*
D03*
X24791Y39126D02*
D03*
X23791D02*
D03*
D138*
X27800Y37750D02*
D03*
Y38250D02*
D03*
X28300Y37750D02*
D03*
Y38250D02*
D03*
X28800Y37750D02*
D03*
Y38250D02*
D03*
X29300Y37750D02*
D03*
Y38250D02*
D03*
X29800Y37750D02*
D03*
Y38250D02*
D03*
D139*
X34657Y38891D02*
D03*
X32512D02*
D03*
D140*
X34539Y37698D02*
D03*
X32630D02*
D03*
D141*
X41828Y13010D02*
D03*
D142*
X31694Y12971D02*
D03*
D143*
X11800Y38420D02*
D03*
X11910Y11840D02*
D03*
X48150D02*
D03*
Y38420D02*
D03*
D144*
X30815Y23700D02*
D03*
X20363Y30720D02*
D03*
X20683Y31030D02*
D03*
Y30720D02*
D03*
X20363Y31030D02*
D03*
X18920Y34990D02*
D03*
X18600Y35300D02*
D03*
Y34990D02*
D03*
X18920Y35300D02*
D03*
X26320Y35180D02*
D03*
X26640Y35490D02*
D03*
Y35180D02*
D03*
X26320Y35490D02*
D03*
X33316Y26684D02*
D03*
X16027Y27960D02*
D03*
X16024Y28270D02*
D03*
X15440Y27337D02*
D03*
X30530Y29380D02*
D03*
X47620Y32910D02*
D03*
X48270Y34030D02*
D03*
X48410Y33030D02*
D03*
X45310Y32950D02*
D03*
X44130Y32890D02*
D03*
X43190Y32360D02*
D03*
X42250Y32970D02*
D03*
X43920Y34390D02*
D03*
X42090D02*
D03*
X43420Y35870D02*
D03*
X42050Y36910D02*
D03*
X43510Y37720D02*
D03*
X47460Y36160D02*
D03*
X45620Y35690D02*
D03*
X45460Y36780D02*
D03*
X15620Y20500D02*
D03*
X39240Y17490D02*
D03*
X29300Y38761D02*
D03*
X16880Y38267D02*
D03*
X17249Y39400D02*
D03*
X14990D02*
D03*
X13260Y35850D02*
D03*
X13040Y29370D02*
D03*
X13790Y31990D02*
D03*
X13810Y33050D02*
D03*
X14030Y26832D02*
D03*
X14070Y27530D02*
D03*
Y28090D02*
D03*
X15770Y26880D02*
D03*
X16104D02*
D03*
X14798Y28450D02*
D03*
X14323Y28474D02*
D03*
X14320Y29080D02*
D03*
X14340Y29600D02*
D03*
X13820Y29680D02*
D03*
X13830Y30235D02*
D03*
X15930Y30400D02*
D03*
X15560Y30500D02*
D03*
X14150Y30650D02*
D03*
X14210Y31215D02*
D03*
X14600Y31590D02*
D03*
X14610Y32181D02*
D03*
Y32870D02*
D03*
X14620Y33320D02*
D03*
X14180Y33780D02*
D03*
X14030Y34200D02*
D03*
X14040Y34770D02*
D03*
X14080Y35350D02*
D03*
X14110Y35920D02*
D03*
X16750Y35750D02*
D03*
X16690Y34330D02*
D03*
X15640Y31130D02*
D03*
X16660Y31128D02*
D03*
X16420Y31360D02*
D03*
X16633Y31680D02*
D03*
X17127Y31740D02*
D03*
X17310Y32060D02*
D03*
X17290Y32670D02*
D03*
X17250Y33160D02*
D03*
X16630Y33330D02*
D03*
X15780D02*
D03*
X15740Y31770D02*
D03*
X15440Y31370D02*
D03*
Y32080D02*
D03*
Y33040D02*
D03*
Y33613D02*
D03*
X15750Y33960D02*
D03*
X16030Y34310D02*
D03*
Y34821D02*
D03*
Y35380D02*
D03*
Y35890D02*
D03*
X15400Y36214D02*
D03*
X14560D02*
D03*
X14380Y37940D02*
D03*
X15625D02*
D03*
X37460Y11260D02*
D03*
X43125Y12500D02*
D03*
X42500Y11250D02*
D03*
X41250D02*
D03*
X40000Y26250D02*
D03*
X40625Y25000D02*
D03*
X40000Y23750D02*
D03*
X40625Y22500D02*
D03*
Y20000D02*
D03*
X40350Y17510D02*
D03*
X40625Y12500D02*
D03*
X40000Y11250D02*
D03*
X38750Y26250D02*
D03*
X39375Y25000D02*
D03*
X38750Y23750D02*
D03*
X39375Y22500D02*
D03*
Y20000D02*
D03*
X38750Y18750D02*
D03*
Y16250D02*
D03*
X39375Y15000D02*
D03*
X38660Y13010D02*
D03*
X38750Y11250D02*
D03*
X37500Y26250D02*
D03*
X38125Y25000D02*
D03*
X37500Y21250D02*
D03*
X38125Y20000D02*
D03*
Y17500D02*
D03*
Y15000D02*
D03*
X37891Y13800D02*
D03*
X37910Y12140D02*
D03*
X36875Y22500D02*
D03*
X36250Y21250D02*
D03*
Y18750D02*
D03*
Y16250D02*
D03*
X36875Y15000D02*
D03*
X36250Y13750D02*
D03*
X37100Y13025D02*
D03*
X36250Y11250D02*
D03*
X35625Y37500D02*
D03*
X35000Y36250D02*
D03*
X11920Y20530D02*
D03*
X35000Y33750D02*
D03*
X35625Y32500D02*
D03*
X35000Y26250D02*
D03*
X35625Y25000D02*
D03*
Y22500D02*
D03*
X35000Y21250D02*
D03*
Y18750D02*
D03*
Y16250D02*
D03*
Y13750D02*
D03*
X35625Y12500D02*
D03*
X35000Y11250D02*
D03*
X34375Y35000D02*
D03*
X34020Y33730D02*
D03*
X34375Y32500D02*
D03*
X33873Y30950D02*
D03*
X34375Y25000D02*
D03*
X33750Y23750D02*
D03*
X34375Y22500D02*
D03*
X34090Y20240D02*
D03*
X34375Y17500D02*
D03*
X33750Y16250D02*
D03*
X34375Y15000D02*
D03*
X33750Y13750D02*
D03*
X34375Y12500D02*
D03*
X33750Y11250D02*
D03*
X33125Y35000D02*
D03*
X32500Y33750D02*
D03*
Y31250D02*
D03*
X33125Y22500D02*
D03*
X33240Y20220D02*
D03*
X33125Y17500D02*
D03*
X32500Y16250D02*
D03*
X33125Y15000D02*
D03*
Y12500D02*
D03*
X32414Y12960D02*
D03*
X24280Y34824D02*
D03*
X31640Y37488D02*
D03*
X31140Y36390D02*
D03*
X31875Y35000D02*
D03*
X31450Y33630D02*
D03*
X31875Y32500D02*
D03*
X31250Y31250D02*
D03*
X31323Y26280D02*
D03*
X30369Y24191D02*
D03*
X31875Y22500D02*
D03*
X31250Y21250D02*
D03*
X31875Y20000D02*
D03*
X31250Y16250D02*
D03*
X31875Y15000D02*
D03*
X31710Y13650D02*
D03*
X31250Y11250D02*
D03*
X30000Y38750D02*
D03*
X31070Y38140D02*
D03*
X30000Y36250D02*
D03*
X30625Y35000D02*
D03*
Y22500D02*
D03*
X30000Y21250D02*
D03*
X30625Y20000D02*
D03*
X30000Y18750D02*
D03*
X30625Y17500D02*
D03*
X30000Y16250D02*
D03*
X30625Y15000D02*
D03*
X30000Y11250D02*
D03*
X28750Y38750D02*
D03*
X27970Y35890D02*
D03*
X28750Y28750D02*
D03*
X29375Y20000D02*
D03*
Y17500D02*
D03*
X28750Y16250D02*
D03*
X29375Y15000D02*
D03*
X28750Y11250D02*
D03*
X27800Y38750D02*
D03*
X27500Y36300D02*
D03*
Y33750D02*
D03*
X28125Y32500D02*
D03*
Y30000D02*
D03*
X27500Y28750D02*
D03*
Y23750D02*
D03*
Y16250D02*
D03*
X28125Y15000D02*
D03*
X27500Y11250D02*
D03*
X21150Y34880D02*
D03*
X26370Y38140D02*
D03*
X26250Y36250D02*
D03*
Y33750D02*
D03*
X26875Y32500D02*
D03*
X26250Y31250D02*
D03*
X26875Y30000D02*
D03*
X26250Y28750D02*
D03*
Y23750D02*
D03*
Y16250D02*
D03*
X26875Y15000D02*
D03*
X26250Y11250D02*
D03*
X25625Y37500D02*
D03*
X25000Y36250D02*
D03*
X25625Y30000D02*
D03*
Y25000D02*
D03*
X25000Y23750D02*
D03*
Y16250D02*
D03*
X25625Y15000D02*
D03*
X25000Y13750D02*
D03*
Y11250D02*
D03*
X24300Y37500D02*
D03*
X24375Y30000D02*
D03*
X23750Y26250D02*
D03*
X24375Y25000D02*
D03*
X23750Y23750D02*
D03*
X24375Y17500D02*
D03*
Y15000D02*
D03*
X24400Y12960D02*
D03*
X23187Y12250D02*
D03*
X23750Y11250D02*
D03*
X22500Y38750D02*
D03*
X23125Y37500D02*
D03*
X22500Y36250D02*
D03*
X23125Y35000D02*
D03*
X22500Y33750D02*
D03*
X23125Y32500D02*
D03*
X22500Y26250D02*
D03*
X23125Y25000D02*
D03*
X22500Y23750D02*
D03*
X23194Y14700D02*
D03*
Y13730D02*
D03*
X22500Y11250D02*
D03*
X21160Y38670D02*
D03*
X21875Y37500D02*
D03*
Y34960D02*
D03*
X21250Y28750D02*
D03*
Y26250D02*
D03*
X21875Y25000D02*
D03*
X21250Y23750D02*
D03*
Y18750D02*
D03*
X21875Y17500D02*
D03*
X22056Y14530D02*
D03*
X21250Y13750D02*
D03*
X21930Y12950D02*
D03*
X21250Y11250D02*
D03*
X19880Y38770D02*
D03*
X20625Y35000D02*
D03*
Y25000D02*
D03*
X20000Y23750D02*
D03*
Y18750D02*
D03*
X20625Y17500D02*
D03*
X20000Y16250D02*
D03*
X20625Y15000D02*
D03*
X20000Y13750D02*
D03*
X20625Y12500D02*
D03*
X20000Y11250D02*
D03*
X18750Y38750D02*
D03*
X19375Y37500D02*
D03*
X18750Y36250D02*
D03*
Y33750D02*
D03*
X19375Y32500D02*
D03*
X18750Y31250D02*
D03*
X13580Y20570D02*
D03*
X19375Y22500D02*
D03*
X18750Y21250D02*
D03*
X19375Y20000D02*
D03*
Y17500D02*
D03*
Y15000D02*
D03*
X18750Y13750D02*
D03*
X19375Y12500D02*
D03*
X18750Y11250D02*
D03*
X17500Y38750D02*
D03*
X18125Y37500D02*
D03*
X17500Y36250D02*
D03*
Y33750D02*
D03*
X18125Y32500D02*
D03*
Y25000D02*
D03*
X17500Y23750D02*
D03*
Y13750D02*
D03*
X18125Y12500D02*
D03*
X17500Y11250D02*
D03*
X16875Y37500D02*
D03*
Y35000D02*
D03*
X16250Y33750D02*
D03*
X16875Y25000D02*
D03*
X16250Y23750D02*
D03*
X16409Y21410D02*
D03*
X16250Y13750D02*
D03*
X16875Y12500D02*
D03*
X31680Y12290D02*
D03*
X15000Y38750D02*
D03*
X15625Y37500D02*
D03*
Y32500D02*
D03*
Y30000D02*
D03*
X15000Y26250D02*
D03*
X15625Y25000D02*
D03*
X15640Y21410D02*
D03*
X15000Y13750D02*
D03*
X15625Y12500D02*
D03*
X21450Y16260D02*
D03*
X14375Y37500D02*
D03*
Y35000D02*
D03*
X13750Y33750D02*
D03*
X14375Y32500D02*
D03*
X13750Y31250D02*
D03*
X14375Y30000D02*
D03*
X13750Y28750D02*
D03*
Y26250D02*
D03*
X14375Y25000D02*
D03*
X13750Y23750D02*
D03*
X14375Y22500D02*
D03*
X13750Y13750D02*
D03*
X21730Y12020D02*
D03*
X12500Y36250D02*
D03*
X13125Y35000D02*
D03*
X12500Y33750D02*
D03*
X13125Y32500D02*
D03*
X12500Y31250D02*
D03*
X13125Y30000D02*
D03*
X12500Y28750D02*
D03*
X13125Y27500D02*
D03*
X12500Y26250D02*
D03*
Y23750D02*
D03*
X12780Y21336D02*
D03*
X12790Y19770D02*
D03*
X11250Y36250D02*
D03*
X11875Y35000D02*
D03*
X11250Y33750D02*
D03*
X11875Y32500D02*
D03*
X11250Y31250D02*
D03*
X11875Y30000D02*
D03*
X11250Y28750D02*
D03*
X11875Y27500D02*
D03*
X11250Y26250D02*
D03*
X11875Y25000D02*
D03*
X11250Y23750D02*
D03*
X11875Y22500D02*
D03*
X11250Y21250D02*
D03*
Y16250D02*
D03*
Y13750D02*
D03*
X29190Y12420D02*
D03*
X30210D02*
D03*
Y13530D02*
D03*
X29190D02*
D03*
X25750Y12977D02*
D03*
X27317Y13715D02*
D03*
X28100Y12977D02*
D03*
X27317Y12235D02*
D03*
X25750D02*
D03*
X26533D02*
D03*
X28100D02*
D03*
Y13715D02*
D03*
X25750Y13720D02*
D03*
X26533Y13715D02*
D03*
X32719Y35739D02*
D03*
X49120Y32270D02*
D03*
X47960Y32250D02*
D03*
X34453Y31450D02*
D03*
X30290Y25860D02*
D03*
X30280Y26230D02*
D03*
X34670Y28485D02*
D03*
X34660Y28130D02*
D03*
X31119Y29350D02*
D03*
X31520D02*
D03*
X13590Y15750D02*
D03*
X12890Y16100D02*
D03*
X24240Y18480D02*
D03*
X12890Y16800D02*
D03*
X12540Y17150D02*
D03*
X22840Y19530D02*
D03*
X23540Y18830D02*
D03*
X13940Y15750D02*
D03*
X12540Y16100D02*
D03*
Y17500D02*
D03*
Y16450D02*
D03*
X23890Y18480D02*
D03*
X23190Y19180D02*
D03*
X24240Y18830D02*
D03*
X12540Y16800D02*
D03*
X23540Y18130D02*
D03*
X13240Y16450D02*
D03*
X24240Y18130D02*
D03*
X13590Y16450D02*
D03*
X23890Y19180D02*
D03*
X22840Y20580D02*
D03*
X13940Y16450D02*
D03*
X13240Y16100D02*
D03*
X24240Y19180D02*
D03*
X22840Y19880D02*
D03*
X23540Y19180D02*
D03*
X12540Y17850D02*
D03*
X13240Y16800D02*
D03*
X23540Y18480D02*
D03*
X22840Y20230D02*
D03*
Y18480D02*
D03*
X13940Y16800D02*
D03*
X12890Y16450D02*
D03*
X23890Y18130D02*
D03*
X13940Y16100D02*
D03*
X23190Y18480D02*
D03*
X13590Y16100D02*
D03*
X22840Y19180D02*
D03*
Y18830D02*
D03*
X12540Y18200D02*
D03*
X13590Y16800D02*
D03*
X23190Y18830D02*
D03*
X13240Y15750D02*
D03*
X23890Y18830D02*
D03*
X13850Y17670D02*
D03*
X13550Y18570D02*
D03*
X13850Y18270D02*
D03*
X13250D02*
D03*
X14150Y17970D02*
D03*
X13250Y18570D02*
D03*
Y17670D02*
D03*
X13850Y18570D02*
D03*
X13550Y17670D02*
D03*
X14150Y18270D02*
D03*
Y17670D02*
D03*
X13850Y17970D02*
D03*
X14150Y18570D02*
D03*
X13550Y17970D02*
D03*
Y18270D02*
D03*
X13250Y17970D02*
D03*
X17370Y29219D02*
D03*
X16520D02*
D03*
Y28760D02*
D03*
X16955D02*
D03*
X16953Y29219D02*
D03*
X16520Y29660D02*
D03*
X31570Y35882D02*
D03*
X29589Y22491D02*
D03*
X33650Y20670D02*
D03*
X31525Y15565D02*
D03*
X35875D02*
D03*
X39740Y16700D02*
D03*
Y21770D02*
D03*
X37860Y22827D02*
D03*
X35912Y23032D02*
D03*
X30260Y38180D02*
D03*
X27210Y38140D02*
D03*
X34956Y29392D02*
D03*
X34741Y35739D02*
D03*
X32850Y37090D02*
D03*
X32221Y35392D02*
D03*
X24305Y37035D02*
D03*
X21125Y37095D02*
D03*
X40830Y16390D02*
D03*
X20720Y21390D02*
D03*
X21295D02*
D03*
X21870D02*
D03*
X20720Y20727D02*
D03*
X21295D02*
D03*
X21870D02*
D03*
X20720Y20073D02*
D03*
X21295D02*
D03*
X21870D02*
D03*
X20720Y19420D02*
D03*
X21295D02*
D03*
X21870D02*
D03*
X11580Y16970D02*
D03*
X11005D02*
D03*
X10430D02*
D03*
X11580Y17623D02*
D03*
X11005D02*
D03*
X10430D02*
D03*
X11580Y18277D02*
D03*
X11005D02*
D03*
X10430D02*
D03*
X11580Y18940D02*
D03*
X11005D02*
D03*
X10430D02*
D03*
X17390Y28760D02*
D03*
Y29660D02*
D03*
X16955D02*
D03*
X20539Y28781D02*
D03*
X42980Y22670D02*
D03*
X44552Y18960D02*
D03*
X32635Y23855D02*
D03*
X22830Y15869D02*
D03*
X22201D02*
D03*
X25840Y32390D02*
D03*
X22503Y32357D02*
D03*
X22970Y28960D02*
D03*
X22686Y26754D02*
D03*
X20890Y26770D02*
D03*
X26720Y23800D02*
D03*
X31290Y19996D02*
D03*
X35833Y19270D02*
D03*
X35820Y19940D02*
D03*
X37665Y24745D02*
D03*
X23561Y36199D02*
D03*
X21890Y36300D02*
D03*
X20320D02*
D03*
X48700Y35570D02*
D03*
X46340Y35160D02*
D03*
Y36070D02*
D03*
X44630Y36220D02*
D03*
Y37320D02*
D03*
X44320Y33700D02*
D03*
X44990Y32210D02*
D03*
X46190D02*
D03*
X45450Y29744D02*
D03*
X46600Y29760D02*
D03*
X49200Y29730D02*
D03*
X47970Y29760D02*
D03*
X48930Y33520D02*
D03*
X45750Y21580D02*
D03*
X45920Y22540D02*
D03*
X44448Y22570D02*
D03*
X48500Y23700D02*
D03*
X48630Y21980D02*
D03*
X44170Y21560D02*
D03*
X48500Y14970D02*
D03*
X46840Y15930D02*
D03*
X45290Y15050D02*
D03*
X45270Y20670D02*
D03*
X48400Y18930D02*
D03*
X45230Y17090D02*
D03*
X48360Y17270D02*
D03*
X46390Y17930D02*
D03*
X47450Y17946D02*
D03*
X48280Y20596D02*
D03*
X46150Y19730D02*
D03*
X47680D02*
D03*
X33190Y25990D02*
D03*
X32800Y26000D02*
D03*
X26030Y17450D02*
D03*
X26590Y17449D02*
D03*
X27150Y17450D02*
D03*
X27710Y17449D02*
D03*
X28270D02*
D03*
X28830Y17450D02*
D03*
X26050Y21890D02*
D03*
X26610D02*
D03*
X27170D02*
D03*
X27730D02*
D03*
X28290D02*
D03*
X28850Y21903D02*
D03*
X24440Y20870D02*
D03*
Y20570D02*
D03*
Y20270D02*
D03*
Y19970D02*
D03*
X24140Y20870D02*
D03*
Y20570D02*
D03*
Y20270D02*
D03*
Y19970D02*
D03*
X23840Y20870D02*
D03*
Y20570D02*
D03*
Y20270D02*
D03*
Y19970D02*
D03*
X23540Y20870D02*
D03*
Y20570D02*
D03*
Y20270D02*
D03*
Y19970D02*
D03*
X26050Y19650D02*
D03*
X26435D02*
D03*
X26820D02*
D03*
X27205D02*
D03*
X27650D02*
D03*
X28050D02*
D03*
X28450D02*
D03*
X28850D02*
D03*
X25192Y18115D02*
D03*
X25246Y18635D02*
D03*
X25561D02*
D03*
X25877D02*
D03*
X26190Y18600D02*
D03*
X25768Y18357D02*
D03*
X18697Y30440D02*
D03*
X18370Y30430D02*
D03*
X18050Y30220D02*
D03*
X32800Y28380D02*
D03*
X18500Y15101D02*
D03*
X17940Y15100D02*
D03*
X17380D02*
D03*
X16820Y15101D02*
D03*
X16260Y15100D02*
D03*
X15700Y15101D02*
D03*
X15476Y16021D02*
D03*
X15900Y16300D02*
D03*
X15585D02*
D03*
X15269D02*
D03*
X14954D02*
D03*
X16880Y23049D02*
D03*
X18091Y20880D02*
D03*
X18510Y19563D02*
D03*
X17950D02*
D03*
X17390D02*
D03*
X16830D02*
D03*
X16270D02*
D03*
X15710D02*
D03*
X18500Y17340D02*
D03*
X18100D02*
D03*
X17700D02*
D03*
X17300D02*
D03*
X16855D02*
D03*
X16470D02*
D03*
X16085D02*
D03*
X15700D02*
D03*
X12565Y13600D02*
D03*
X11898Y13580D02*
D03*
X31500Y23700D02*
D03*
X14900Y15780D02*
D03*
X34250Y36750D02*
D03*
X15115Y23084D02*
D03*
X15784Y23074D02*
D03*
X18980Y22970D02*
D03*
X18950Y23450D02*
D03*
X23710Y27100D02*
D03*
Y27500D02*
D03*
X23720Y27840D02*
D03*
X31890Y26560D02*
D03*
X32170Y26540D02*
D03*
X31140Y25390D02*
D03*
X29050Y30340D02*
D03*
X23961Y32800D02*
D03*
X33400Y28000D02*
D03*
X27300Y33000D02*
D03*
X33168Y29744D02*
D03*
X28716Y34284D02*
D03*
X29444Y34300D02*
D03*
X30172D02*
D03*
X30900Y34300D02*
D03*
X34657Y27100D02*
D03*
X33515Y27000D02*
D03*
D145*
X31119Y35900D02*
D03*
X29663D02*
D03*
X27500D02*
D03*
X28957D02*
D03*
M02*
