G04*
G04 #@! TF.GenerationSoftware,Altium Limited,Altium Designer,18.1.4 (159)*
G04*
G04 Layer_Color=65535*
%FSLAX24Y24*%
%MOIN*%
G70*
G01*
G75*
%ADD10C,0.0098*%
%ADD11C,0.0236*%
%ADD12C,0.0000*%
%ADD13C,0.0060*%
%ADD14C,0.0039*%
%ADD15C,0.0079*%
%ADD16C,0.0050*%
%ADD17C,0.0080*%
%ADD18C,0.0300*%
%ADD19C,0.0100*%
%ADD20C,0.0078*%
%ADD21R,0.0306X0.1024*%
D10*
X31170Y25512D02*
G03*
X31170Y25512I-49J0D01*
G01*
X48769Y16924D02*
G03*
X48769Y16924I-49J0D01*
G01*
X21883Y37476D02*
G03*
X21883Y37476I-49J0D01*
G01*
X29332Y27368D02*
G03*
X29332Y27368I-49J0D01*
G01*
X33325Y18782D02*
G03*
X33325Y18782I-49J0D01*
G01*
X25332Y17613D02*
G03*
X25332Y17613I-49J0D01*
G01*
X47567Y18960D02*
G03*
X47567Y18960I-49J0D01*
G01*
X25063Y37436D02*
G03*
X25063Y37436I-49J0D01*
G01*
X31743Y11101D02*
G03*
X31743Y11101I-49J0D01*
G01*
X49349Y35514D02*
G03*
X49349Y35514I-49J0D01*
G01*
X15051Y15278D02*
G03*
X15051Y15278I-49J0D01*
G01*
D11*
X31770Y26349D02*
G03*
X31770Y26349I-118J0D01*
G01*
X29501Y26442D02*
G03*
X29501Y26442I-118J0D01*
G01*
D12*
X15751Y30015D02*
G03*
X15751Y30015I-79J0D01*
G01*
X15598Y36060D02*
G03*
X15598Y36060I-92J0D01*
G01*
X34304Y37277D02*
G03*
X34304Y37277I-50J0D01*
G01*
D13*
X33830Y35139D02*
G03*
X33590Y35139I-120J0D01*
G01*
X22102Y34796D02*
G03*
X22110Y34556I4J-120D01*
G01*
X25292Y34746D02*
G03*
X25300Y34506I4J-120D01*
G01*
X33830Y35139D02*
X33920D01*
X33590D02*
X33830D01*
X33500D02*
X33590D01*
X22101Y34796D02*
Y35136D01*
Y34216D02*
Y34796D01*
X20141Y34216D02*
Y35136D01*
X25291Y34746D02*
Y35086D01*
Y34166D02*
Y34746D01*
X23331Y34166D02*
Y35086D01*
D14*
X37486Y23901D02*
G03*
X37486Y23901I-20J0D01*
G01*
X34976Y30611D02*
G03*
X34976Y30611I-20J0D01*
G01*
X40299Y15206D02*
G03*
X40299Y15206I-20J0D01*
G01*
D15*
X38295Y17312D02*
G03*
X38295Y17312I-39J0D01*
G01*
X49780Y31151D02*
G03*
X49780Y31151I-88J0D01*
G01*
X44834Y24706D02*
G03*
X44834Y24706I-39J0D01*
G01*
X39251Y24804D02*
G03*
X39251Y24804I-39J0D01*
G01*
X31258Y25955D02*
X33699D01*
X31258Y28396D02*
X33699D01*
X31258Y25955D02*
Y28396D01*
X33699Y25955D02*
Y28396D01*
X45236Y13972D02*
Y18145D01*
Y13972D02*
X48464D01*
X45236Y18145D02*
X48464D01*
Y13972D02*
Y18145D01*
X21715Y36728D02*
Y37122D01*
X21401Y36728D02*
X21715D01*
X20534D02*
Y37122D01*
Y36728D02*
X20849D01*
X27060Y26836D02*
X29777D01*
X27060Y24395D02*
X29777D01*
Y26836D01*
X27060Y24395D02*
Y26836D01*
X34004Y19116D02*
Y19904D01*
X33296Y19116D02*
Y19904D01*
X34004D01*
X33296Y19116D02*
X34004D01*
X25062Y17530D02*
Y17707D01*
X24786Y17530D02*
X25062D01*
X22070Y17534D02*
X22345D01*
X22070D02*
Y17711D01*
X22066Y21121D02*
Y21298D01*
X22342D01*
X25051Y21122D02*
Y21299D01*
X24775D02*
X25051D01*
X45831Y18448D02*
X46356D01*
Y19472D01*
X45831D02*
X46356D01*
X38086Y22956D02*
Y23055D01*
X37801Y22956D02*
X38086D01*
Y23645D02*
Y23744D01*
X37801D02*
X38086D01*
X27127Y11700D02*
Y12389D01*
X26320Y10893D02*
X27127Y11700D01*
X26320Y15027D02*
X27127Y14220D01*
Y13531D02*
Y14220D01*
X22993Y10893D02*
X26320D01*
X22993D02*
Y12389D01*
Y13531D02*
Y15027D01*
X26320D01*
X15049Y21257D02*
X16191D01*
Y21592D01*
X15049D02*
X16191D01*
X15049Y21257D02*
Y21592D01*
X45415Y30240D02*
X49245D01*
X45415Y32220D02*
X49245D01*
X44765Y23268D02*
Y24332D01*
X44135Y23268D02*
Y24332D01*
X24895Y36688D02*
Y37082D01*
X24581Y36688D02*
X24895D01*
X23714D02*
Y37082D01*
Y36688D02*
X24029D01*
X35576Y29666D02*
Y29765D01*
X35291Y29666D02*
X35576D01*
Y30355D02*
Y30454D01*
X35291D02*
X35576D01*
X41125Y15826D02*
X41224D01*
Y15541D02*
Y15826D01*
X40436D02*
X40535D01*
X40436Y15541D02*
Y15826D01*
X32915Y11357D02*
Y14586D01*
X28742Y11357D02*
X32915D01*
X28742D02*
Y14586D01*
X32915D01*
X45816Y36735D02*
X49044D01*
Y32562D02*
Y36735D01*
X45816Y32562D02*
X49044D01*
X45816D02*
Y36735D01*
X14782Y15196D02*
Y15373D01*
X14506Y15196D02*
X14782D01*
X11789Y15200D02*
X12065D01*
X11789D02*
Y15377D01*
X11785Y18786D02*
Y18963D01*
X12061D01*
X14770Y18788D02*
Y18965D01*
X14495D02*
X14770D01*
D16*
X15034Y20858D02*
G03*
X15034Y20858I-50J0D01*
G01*
X20344Y38762D02*
G03*
X20344Y38762I-39J0D01*
G01*
X23464Y38772D02*
G03*
X23464Y38772I-39J0D01*
G01*
X15969Y30066D02*
Y30204D01*
Y28235D02*
Y28373D01*
X17938Y30066D02*
Y30204D01*
Y28235D02*
Y28373D01*
X15969Y30204D02*
X16107D01*
X15969Y28235D02*
X16107D01*
X17800Y30204D02*
X17938D01*
X17800Y28235D02*
X17938D01*
X16388Y37309D02*
Y38411D01*
X13632Y37309D02*
Y38411D01*
X38334Y18000D02*
X40146D01*
Y20560D01*
X38334D02*
X40146D01*
X38334Y18000D02*
Y20560D01*
X42495Y16077D02*
Y17376D01*
X42160Y16077D02*
X42495D01*
X41825D02*
X42160D01*
X41825D02*
Y17376D01*
X42160D01*
X42495D01*
X42160D02*
Y17829D01*
Y15624D02*
Y16077D01*
X20171Y38616D02*
Y39616D01*
X22171D01*
Y38616D02*
Y39616D01*
X20171Y38616D02*
X22171D01*
X31500Y36600D02*
Y39200D01*
X26100D02*
X31500D01*
X26100Y36600D02*
Y39200D01*
Y36600D02*
X26870D01*
Y36800D01*
X28100D01*
Y36600D02*
Y36800D01*
Y36600D02*
X29500D01*
Y36800D01*
X30730D01*
Y36600D02*
Y36800D01*
Y36600D02*
X31500D01*
X32002Y39561D02*
X35167D01*
X20446Y37876D02*
Y38176D01*
X19783Y30890D02*
X19983D01*
X14901Y28874D02*
Y28974D01*
X18363Y31150D02*
X18463D01*
X17663D02*
X17763D01*
X16963D02*
X17063D01*
X18390Y26960D02*
X18590D01*
X14965Y32760D02*
X15065D01*
X14828Y33820D02*
Y33920D01*
X16350Y25530D02*
Y25730D01*
X14830Y30765D02*
Y30865D01*
X15128Y27785D02*
X15228D01*
X15983Y32515D02*
X16083D01*
X14940Y30110D02*
Y30210D01*
X14463Y27780D02*
X14563D01*
X35130Y24570D02*
X35330D01*
X18625Y15277D02*
Y17285D01*
X17208Y15277D02*
X18625D01*
X17208D02*
Y17285D01*
X18625D01*
X17009Y15277D02*
Y17285D01*
X15591Y15277D02*
X17009D01*
X15591D02*
Y17285D01*
X17009D01*
X11830Y14390D02*
X12030D01*
X15591Y17407D02*
Y19414D01*
X17009D01*
Y17407D02*
Y19414D01*
X15591Y17407D02*
X17009D01*
X17208D02*
Y19414D01*
X18625D01*
Y17407D02*
Y19414D01*
X17208Y17407D02*
X18625D01*
X28965Y17536D02*
Y19543D01*
X27548Y17536D02*
X28965D01*
X27548D02*
Y19543D01*
X28965D01*
X27349Y17536D02*
Y19543D01*
X25931Y17536D02*
X27349D01*
X25931D02*
Y19543D01*
X27349D01*
X22101Y16690D02*
X22301D01*
X25931Y19754D02*
Y21762D01*
X27349D01*
Y19754D02*
Y21762D01*
X25931Y19754D02*
X27349D01*
X27541D02*
Y21762D01*
X28959D01*
Y19754D02*
Y21762D01*
X27541Y19754D02*
X28959D01*
X15449Y23415D02*
Y23615D01*
X15445Y22550D02*
Y22750D01*
X37450Y15690D02*
Y15990D01*
X24981Y37876D02*
Y38176D01*
X23621Y37876D02*
Y38176D01*
X21806Y37876D02*
Y38176D01*
X23291Y38626D02*
Y39626D01*
X25291D01*
Y38626D02*
Y39626D01*
X23291Y38626D02*
X25291D01*
X15970Y31030D02*
X16070D01*
X14965Y31560D02*
X15065D01*
X14901Y29465D02*
Y29565D01*
X22141Y29111D02*
Y29311D01*
Y28471D02*
Y28671D01*
X19751Y28681D02*
Y28881D01*
X20031Y26691D02*
Y26891D01*
X21866Y26654D02*
Y26854D01*
X14844Y26685D02*
Y26885D01*
X16583Y32515D02*
X16783D01*
X38000Y24220D02*
Y24420D01*
X36620Y19840D02*
Y20040D01*
Y19170D02*
Y19370D01*
X28616Y33200D02*
X28816D01*
X29344D02*
X29544D01*
X30072D02*
X30272D01*
X30800D02*
X31000D01*
X30074Y30135D02*
X30274D01*
X35300Y31350D02*
Y31550D01*
X31190Y19190D02*
X31390D01*
X32330D02*
X32530D01*
X35577Y23430D02*
Y23630D01*
X27579Y22896D02*
Y23096D01*
X29254Y22896D02*
Y23096D01*
X12470Y14390D02*
X12670D01*
X14898Y14629D02*
Y14829D01*
X13535Y14629D02*
Y14829D01*
X22730Y16700D02*
X22930D01*
X25210Y16947D02*
Y17148D01*
X23780Y16947D02*
Y17148D01*
X17240Y20780D02*
Y20980D01*
X16780Y22260D02*
X16980D01*
X25020Y32290D02*
Y32490D01*
X21701Y32257D02*
Y32457D01*
X32121Y36210D02*
X32321D01*
X39900Y22914D02*
Y24726D01*
Y22914D02*
X42460D01*
Y24726D01*
X39900D02*
X42460D01*
X25740Y35350D02*
X25940D01*
X27020D02*
X27220D01*
X19300Y35160D02*
X19500D01*
X18020D02*
X18220D01*
X21063Y30890D02*
X21263D01*
D17*
X16457Y26250D02*
X17283D01*
X16457Y27550D02*
X17283D01*
X29440Y28440D02*
Y28190D01*
X29490Y28140D01*
X29590D01*
X29640Y28190D01*
Y28440D01*
X29740Y28140D02*
X29840D01*
X29790D01*
Y28440D01*
X29740Y28390D01*
X30190Y28140D02*
X29990D01*
X30190Y28340D01*
Y28390D01*
X30140Y28440D01*
X30040D01*
X29990Y28390D01*
X44540Y17940D02*
X44440D01*
X44490D01*
Y17690D01*
X44440Y17640D01*
X44390D01*
X44340Y17690D01*
X44840Y17640D02*
X44640D01*
X44840Y17840D01*
Y17890D01*
X44790Y17940D01*
X44690D01*
X44640Y17890D01*
X19090Y30620D02*
Y30370D01*
X19140Y30320D01*
X19240D01*
X19290Y30370D01*
Y30620D01*
X19390Y30320D02*
X19490D01*
X19440D01*
Y30620D01*
X19390Y30570D01*
X34270Y35000D02*
Y34750D01*
X34320Y34700D01*
X34420D01*
X34470Y34750D01*
Y35000D01*
X34570Y34700D02*
X34670D01*
X34620D01*
Y35000D01*
X34570Y34950D01*
X34820D02*
X34870Y35000D01*
X34970D01*
X35020Y34950D01*
Y34900D01*
X34970Y34850D01*
X35020Y34800D01*
Y34750D01*
X34970Y34700D01*
X34870D01*
X34820Y34750D01*
Y34800D01*
X34870Y34850D01*
X34820Y34900D01*
Y34950D01*
X34870Y34850D02*
X34970D01*
X19850Y37100D02*
Y36800D01*
X20000D01*
X20050Y36850D01*
Y37050D01*
X20000Y37100D01*
X19850D01*
X20150Y37050D02*
X20200Y37100D01*
X20300D01*
X20350Y37050D01*
Y37000D01*
X20300Y36950D01*
X20350Y36900D01*
Y36850D01*
X20300Y36800D01*
X20200D01*
X20150Y36850D01*
Y36900D01*
X20200Y36950D01*
X20150Y37000D01*
Y37050D01*
X20200Y36950D02*
X20300D01*
X26160Y25560D02*
X26110Y25610D01*
X26010D01*
X25960Y25560D01*
Y25510D01*
X26010Y25460D01*
X26110D01*
X26160Y25410D01*
Y25360D01*
X26110Y25310D01*
X26010D01*
X25960Y25360D01*
X26260Y25610D02*
Y25310D01*
X26360Y25410D01*
X26460Y25310D01*
Y25610D01*
X26760Y25310D02*
X26560D01*
X26760Y25510D01*
Y25560D01*
X26710Y25610D01*
X26610D01*
X26560Y25560D01*
X33260Y21100D02*
Y20800D01*
X33410D01*
X33460Y20850D01*
Y21050D01*
X33410Y21100D01*
X33260D01*
X33760D02*
X33660Y21050D01*
X33560Y20950D01*
Y20850D01*
X33610Y20800D01*
X33710D01*
X33760Y20850D01*
Y20900D01*
X33710Y20950D01*
X33560D01*
X17030Y38790D02*
Y39090D01*
X17180D01*
X17230Y39040D01*
Y38940D01*
X17180Y38890D01*
X17030D01*
X17130D02*
X17230Y38790D01*
X17530Y39090D02*
X17330D01*
Y38940D01*
X17430D01*
X17330D01*
Y38790D01*
X17630Y39090D02*
X17730D01*
X17680D01*
Y38790D01*
X17630D01*
X17730D01*
X18030Y39090D02*
X17930D01*
X17880Y39040D01*
Y38840D01*
X17930Y38790D01*
X18030D01*
X18080Y38840D01*
Y39040D01*
X18030Y39090D01*
X18180Y38790D02*
X18280D01*
X18230D01*
Y39090D01*
X18180Y39040D01*
X44970Y20100D02*
Y19800D01*
X45120D01*
X45170Y19850D01*
Y20050D01*
X45120Y20100D01*
X44970D01*
X45270Y19850D02*
X45320Y19800D01*
X45420D01*
X45470Y19850D01*
Y20050D01*
X45420Y20100D01*
X45320D01*
X45270Y20050D01*
Y20000D01*
X45320Y19950D01*
X45470D01*
X38430Y22480D02*
Y22680D01*
X38380Y22730D01*
X38280D01*
X38230Y22680D01*
Y22480D01*
X38280Y22430D01*
X38380D01*
X38330Y22530D02*
X38430Y22430D01*
X38380D02*
X38430Y22480D01*
X38730Y22430D02*
X38530D01*
X38730Y22630D01*
Y22680D01*
X38680Y22730D01*
X38580D01*
X38530Y22680D01*
X19290Y36560D02*
Y36310D01*
X19340Y36260D01*
X19440D01*
X19490Y36310D01*
Y36560D01*
X19590Y36260D02*
X19690D01*
X19640D01*
Y36560D01*
X19590Y36510D01*
X19840Y36560D02*
X20040D01*
Y36510D01*
X19840Y36310D01*
Y36260D01*
X37100Y39500D02*
Y39250D01*
X37150Y39200D01*
X37250D01*
X37300Y39250D01*
Y39500D01*
X37400Y39200D02*
X37500D01*
X37450D01*
Y39500D01*
X37400Y39450D01*
X37650D02*
X37700Y39500D01*
X37800D01*
X37850Y39450D01*
Y39250D01*
X37800Y39200D01*
X37700D01*
X37650Y39250D01*
Y39450D01*
X37620Y21240D02*
Y20990D01*
X37670Y20940D01*
X37770D01*
X37820Y20990D01*
Y21240D01*
X37920Y21190D02*
X37970Y21240D01*
X38070D01*
X38120Y21190D01*
Y21140D01*
X38070Y21090D01*
X38120Y21040D01*
Y20990D01*
X38070Y20940D01*
X37970D01*
X37920Y20990D01*
Y21040D01*
X37970Y21090D01*
X37920Y21140D01*
Y21190D01*
X37970Y21090D02*
X38070D01*
X22170Y14400D02*
X22120Y14450D01*
X22020D01*
X21970Y14400D01*
Y14200D01*
X22020Y14150D01*
X22120D01*
X22170Y14200D01*
X22270Y14400D02*
X22320Y14450D01*
X22420D01*
X22470Y14400D01*
Y14350D01*
X22420Y14300D01*
X22370D01*
X22420D01*
X22470Y14250D01*
Y14200D01*
X22420Y14150D01*
X22320D01*
X22270Y14200D01*
X22720Y14150D02*
Y14450D01*
X22570Y14300D01*
X22770D01*
X31170Y17210D02*
X31120Y17260D01*
X31020D01*
X30970Y17210D01*
Y17160D01*
X31020Y17110D01*
X31120D01*
X31170Y17060D01*
Y17010D01*
X31120Y16960D01*
X31020D01*
X30970Y17010D01*
X31270Y17260D02*
Y16960D01*
X31370Y17060D01*
X31470Y16960D01*
Y17260D01*
X31570Y16960D02*
X31670D01*
X31620D01*
Y17260D01*
X31570Y17210D01*
X16200Y35340D02*
Y35090D01*
X16250Y35040D01*
X16350D01*
X16400Y35090D01*
Y35340D01*
X16700Y35040D02*
X16500D01*
X16700Y35240D01*
Y35290D01*
X16650Y35340D01*
X16550D01*
X16500Y35290D01*
X14490Y21420D02*
X14740D01*
X14790Y21470D01*
Y21570D01*
X14740Y21620D01*
X14490D01*
X14790Y21720D02*
Y21820D01*
Y21770D01*
X14490D01*
X14540Y21720D01*
X14490Y22170D02*
Y21970D01*
X14640D01*
X14590Y22070D01*
Y22120D01*
X14640Y22170D01*
X14740D01*
X14790Y22120D01*
Y22020D01*
X14740Y21970D01*
X41800Y18790D02*
Y19090D01*
X41950D01*
X42000Y19040D01*
Y18940D01*
X41950Y18890D01*
X41800D01*
X41900D02*
X42000Y18790D01*
X42100Y18840D02*
X42150Y18790D01*
X42250D01*
X42300Y18840D01*
Y19040D01*
X42250Y19090D01*
X42150D01*
X42100Y19040D01*
Y18990D01*
X42150Y18940D01*
X42300D01*
X17880Y25790D02*
Y25990D01*
X17830Y26040D01*
X17730D01*
X17680Y25990D01*
Y25790D01*
X17730Y25740D01*
X17830D01*
X17780Y25840D02*
X17880Y25740D01*
X17830D02*
X17880Y25790D01*
X17980Y25740D02*
X18080D01*
X18030D01*
Y26040D01*
X17980Y25990D01*
X11430Y26110D02*
X11330D01*
X11380D01*
Y25860D01*
X11330Y25810D01*
X11280D01*
X11230Y25860D01*
X11730Y26110D02*
X11630Y26060D01*
X11530Y25960D01*
Y25860D01*
X11580Y25810D01*
X11680D01*
X11730Y25860D01*
Y25910D01*
X11680Y25960D01*
X11530D01*
X43960Y31250D02*
Y31000D01*
X44010Y30950D01*
X44110D01*
X44160Y31000D01*
Y31250D01*
X44260Y30950D02*
X44360D01*
X44310D01*
Y31250D01*
X44260Y31200D01*
X44510Y30950D02*
X44610D01*
X44560D01*
Y31250D01*
X44510Y31200D01*
X19390Y39280D02*
X19290D01*
X19340D01*
Y39030D01*
X19290Y38980D01*
X19240D01*
X19190Y39030D01*
X19490Y39230D02*
X19540Y39280D01*
X19640D01*
X19690Y39230D01*
Y39180D01*
X19640Y39130D01*
X19690Y39080D01*
Y39030D01*
X19640Y38980D01*
X19540D01*
X19490Y39030D01*
Y39080D01*
X19540Y39130D01*
X19490Y39180D01*
Y39230D01*
X19540Y39130D02*
X19640D01*
X44090Y25390D02*
Y25140D01*
X44140Y25090D01*
X44240D01*
X44290Y25140D01*
Y25390D01*
X44590D02*
X44390D01*
Y25240D01*
X44490Y25290D01*
X44540D01*
X44590Y25240D01*
Y25140D01*
X44540Y25090D01*
X44440D01*
X44390Y25140D01*
X26260Y39650D02*
X26160D01*
X26210D01*
Y39400D01*
X26160Y39350D01*
X26110D01*
X26060Y39400D01*
X26510Y39350D02*
Y39650D01*
X26360Y39500D01*
X26560D01*
X35620Y39100D02*
X35520D01*
X35570D01*
Y38850D01*
X35520Y38800D01*
X35470D01*
X35420Y38850D01*
X35720D02*
X35770Y38800D01*
X35870D01*
X35920Y38850D01*
Y39050D01*
X35870Y39100D01*
X35770D01*
X35720Y39050D01*
Y39000D01*
X35770Y38950D01*
X35920D01*
X19790Y37680D02*
X19590D01*
Y37530D01*
X19690D01*
X19590D01*
Y37380D01*
X19890Y37680D02*
Y37380D01*
X20040D01*
X20090Y37430D01*
Y37480D01*
X20040Y37530D01*
X19890D01*
X20040D01*
X20090Y37580D01*
Y37630D01*
X20040Y37680D01*
X19890D01*
X20390D02*
X20190D01*
Y37530D01*
X20290Y37580D01*
X20340D01*
X20390Y37530D01*
Y37430D01*
X20340Y37380D01*
X20240D01*
X20190Y37430D01*
X19843Y32090D02*
X19793Y32140D01*
X19693D01*
X19643Y32090D01*
Y31890D01*
X19693Y31840D01*
X19793D01*
X19843Y31890D01*
X20143Y32140D02*
X19943D01*
Y31990D01*
X20043Y32040D01*
X20093D01*
X20143Y31990D01*
Y31890D01*
X20093Y31840D01*
X19993D01*
X19943Y31890D01*
X20443Y32140D02*
X20343Y32090D01*
X20243Y31990D01*
Y31890D01*
X20293Y31840D01*
X20393D01*
X20443Y31890D01*
Y31940D01*
X20393Y31990D01*
X20243D01*
X13860Y29070D02*
Y28770D01*
X14060D01*
X14310D02*
Y29070D01*
X14160Y28920D01*
X14360D01*
X19040Y31540D02*
X18990Y31590D01*
X18890D01*
X18840Y31540D01*
Y31340D01*
X18890Y31290D01*
X18990D01*
X19040Y31340D01*
X19140Y31290D02*
X19240D01*
X19190D01*
Y31590D01*
X19140Y31540D01*
X17700Y33330D02*
X17650Y33280D01*
Y33180D01*
X17700Y33130D01*
X17900D01*
X17950Y33180D01*
Y33280D01*
X17900Y33330D01*
X17950Y33630D02*
Y33430D01*
X17750Y33630D01*
X17700D01*
X17650Y33580D01*
Y33480D01*
X17700Y33430D01*
X17230Y33340D02*
X17180Y33290D01*
Y33190D01*
X17230Y33140D01*
X17430D01*
X17480Y33190D01*
Y33290D01*
X17430Y33340D01*
X17230Y33440D02*
X17180Y33490D01*
Y33590D01*
X17230Y33640D01*
X17280D01*
X17330Y33590D01*
Y33540D01*
Y33590D01*
X17380Y33640D01*
X17430D01*
X17480Y33590D01*
Y33490D01*
X17430Y33440D01*
X19120Y26280D02*
X19070Y26330D01*
X18970D01*
X18920Y26280D01*
Y26080D01*
X18970Y26030D01*
X19070D01*
X19120Y26080D01*
X19370Y26030D02*
Y26330D01*
X19220Y26180D01*
X19420D01*
X13260Y32810D02*
X13210Y32860D01*
X13110D01*
X13060Y32810D01*
Y32610D01*
X13110Y32560D01*
X13210D01*
X13260Y32610D01*
X13560Y32860D02*
X13360D01*
Y32710D01*
X13460Y32760D01*
X13510D01*
X13560Y32710D01*
Y32610D01*
X13510Y32560D01*
X13410D01*
X13360Y32610D01*
X13373Y33930D02*
X13323Y33980D01*
X13223D01*
X13173Y33930D01*
Y33730D01*
X13223Y33680D01*
X13323D01*
X13373Y33730D01*
X13673Y33980D02*
X13573Y33930D01*
X13473Y33830D01*
Y33730D01*
X13523Y33680D01*
X13623D01*
X13673Y33730D01*
Y33780D01*
X13623Y33830D01*
X13473D01*
X16360Y25190D02*
X16310Y25240D01*
X16210D01*
X16160Y25190D01*
Y24990D01*
X16210Y24940D01*
X16310D01*
X16360Y24990D01*
X16460Y25240D02*
X16660D01*
Y25190D01*
X16460Y24990D01*
Y24940D01*
X13200Y30900D02*
X13150Y30950D01*
X13050D01*
X13000Y30900D01*
Y30700D01*
X13050Y30650D01*
X13150D01*
X13200Y30700D01*
X13300Y30900D02*
X13350Y30950D01*
X13450D01*
X13500Y30900D01*
Y30850D01*
X13450Y30800D01*
X13500Y30750D01*
Y30700D01*
X13450Y30650D01*
X13350D01*
X13300Y30700D01*
Y30750D01*
X13350Y30800D01*
X13300Y30850D01*
Y30900D01*
X13350Y30800D02*
X13450D01*
X15330Y26230D02*
X15380Y26280D01*
Y26380D01*
X15330Y26430D01*
X15130D01*
X15080Y26380D01*
Y26280D01*
X15130Y26230D01*
Y26130D02*
X15080Y26080D01*
Y25980D01*
X15130Y25930D01*
X15330D01*
X15380Y25980D01*
Y26080D01*
X15330Y26130D01*
X15280D01*
X15230Y26080D01*
Y25930D01*
X16250Y33780D02*
X16300Y33830D01*
Y33930D01*
X16250Y33980D01*
X16050D01*
X16000Y33930D01*
Y33830D01*
X16050Y33780D01*
X16000Y33680D02*
Y33580D01*
Y33630D01*
X16300D01*
X16250Y33680D01*
Y33430D02*
X16300Y33380D01*
Y33280D01*
X16250Y33230D01*
X16050D01*
X16000Y33280D01*
Y33380D01*
X16050Y33430D01*
X16250D01*
X13930Y30260D02*
X13880Y30310D01*
X13780D01*
X13730Y30260D01*
Y30060D01*
X13780Y30010D01*
X13880D01*
X13930Y30060D01*
X14030Y30010D02*
X14130D01*
X14080D01*
Y30310D01*
X14030Y30260D01*
X14280Y30010D02*
X14380D01*
X14330D01*
Y30310D01*
X14280Y30260D01*
X13570Y27940D02*
X13520Y27990D01*
X13420D01*
X13370Y27940D01*
Y27740D01*
X13420Y27690D01*
X13520D01*
X13570Y27740D01*
X13670Y27690D02*
X13770D01*
X13720D01*
Y27990D01*
X13670Y27940D01*
X14120Y27690D02*
X13920D01*
X14120Y27890D01*
Y27940D01*
X14070Y27990D01*
X13970D01*
X13920Y27940D01*
X35120Y25600D02*
X35070Y25650D01*
X34970D01*
X34920Y25600D01*
Y25400D01*
X34970Y25350D01*
X35070D01*
X35120Y25400D01*
X35220Y25350D02*
X35320D01*
X35270D01*
Y25650D01*
X35220Y25600D01*
X35470D02*
X35520Y25650D01*
X35620D01*
X35670Y25600D01*
Y25550D01*
X35620Y25500D01*
X35570D01*
X35620D01*
X35670Y25450D01*
Y25400D01*
X35620Y25350D01*
X35520D01*
X35470Y25400D01*
X17867Y14911D02*
X17917Y14961D01*
Y15061D01*
X17867Y15111D01*
X17667D01*
X17617Y15061D01*
Y14961D01*
X17667Y14911D01*
X17617Y14611D02*
Y14811D01*
X17817Y14611D01*
X17867D01*
X17917Y14661D01*
Y14761D01*
X17867Y14811D01*
X17917Y14511D02*
Y14311D01*
X17867D01*
X17667Y14511D01*
X17617D01*
X16250Y14911D02*
X16300Y14961D01*
Y15061D01*
X16250Y15111D01*
X16050D01*
X16000Y15061D01*
Y14961D01*
X16050Y14911D01*
X16000Y14611D02*
Y14811D01*
X16200Y14611D01*
X16250D01*
X16300Y14661D01*
Y14761D01*
X16250Y14811D01*
Y14511D02*
X16300Y14461D01*
Y14361D01*
X16250Y14311D01*
X16200D01*
X16150Y14361D01*
X16100Y14311D01*
X16050D01*
X16000Y14361D01*
Y14461D01*
X16050Y14511D01*
X16100D01*
X16150Y14461D01*
X16200Y14511D01*
X16250D01*
X16150Y14461D02*
Y14361D01*
X10940Y14480D02*
X10890Y14530D01*
X10790D01*
X10740Y14480D01*
Y14280D01*
X10790Y14230D01*
X10890D01*
X10940Y14280D01*
X11240Y14230D02*
X11040D01*
X11240Y14430D01*
Y14480D01*
X11190Y14530D01*
X11090D01*
X11040Y14480D01*
X11340Y14280D02*
X11390Y14230D01*
X11490D01*
X11540Y14280D01*
Y14480D01*
X11490Y14530D01*
X11390D01*
X11340Y14480D01*
Y14430D01*
X11390Y14380D01*
X11540D01*
X16350Y19810D02*
X16300Y19761D01*
Y19661D01*
X16350Y19611D01*
X16550D01*
X16600Y19661D01*
Y19761D01*
X16550Y19810D01*
X16350Y19910D02*
X16300Y19960D01*
Y20060D01*
X16350Y20110D01*
X16400D01*
X16450Y20060D01*
Y20010D01*
Y20060D01*
X16500Y20110D01*
X16550D01*
X16600Y20060D01*
Y19960D01*
X16550Y19910D01*
X16350Y20210D02*
X16300Y20260D01*
Y20360D01*
X16350Y20410D01*
X16550D01*
X16600Y20360D01*
Y20260D01*
X16550Y20210D01*
X16350D01*
X17967Y19810D02*
X17917Y19761D01*
Y19661D01*
X17967Y19611D01*
X18167D01*
X18217Y19661D01*
Y19761D01*
X18167Y19810D01*
X17967Y19910D02*
X17917Y19960D01*
Y20060D01*
X17967Y20110D01*
X18017D01*
X18067Y20060D01*
Y20010D01*
Y20060D01*
X18117Y20110D01*
X18167D01*
X18217Y20060D01*
Y19960D01*
X18167Y19910D01*
X18217Y20210D02*
Y20310D01*
Y20260D01*
X17917D01*
X17967Y20210D01*
X28190Y17190D02*
X28240Y17240D01*
Y17339D01*
X28190Y17389D01*
X27990D01*
X27940Y17339D01*
Y17240D01*
X27990Y17190D01*
X28190Y17090D02*
X28240Y17040D01*
Y16940D01*
X28190Y16890D01*
X28140D01*
X28090Y16940D01*
Y16990D01*
Y16940D01*
X28040Y16890D01*
X27990D01*
X27940Y16940D01*
Y17040D01*
X27990Y17090D01*
X28240Y16790D02*
Y16590D01*
X28190D01*
X27990Y16790D01*
X27940D01*
X26590Y17190D02*
X26640Y17240D01*
Y17339D01*
X26590Y17389D01*
X26390D01*
X26340Y17339D01*
Y17240D01*
X26390Y17190D01*
X26590Y17090D02*
X26640Y17040D01*
Y16940D01*
X26590Y16890D01*
X26540D01*
X26490Y16940D01*
Y16990D01*
Y16940D01*
X26440Y16890D01*
X26390D01*
X26340Y16940D01*
Y17040D01*
X26390Y17090D01*
X26590Y16790D02*
X26640Y16740D01*
Y16640D01*
X26590Y16590D01*
X26540D01*
X26490Y16640D01*
X26440Y16590D01*
X26390D01*
X26340Y16640D01*
Y16740D01*
X26390Y16790D01*
X26440D01*
X26490Y16740D01*
X26540Y16790D01*
X26590D01*
X26490Y16740D02*
Y16640D01*
X21670Y16930D02*
X21720Y16980D01*
Y17080D01*
X21670Y17130D01*
X21470D01*
X21420Y17080D01*
Y16980D01*
X21470Y16930D01*
X21670Y16830D02*
X21720Y16780D01*
Y16680D01*
X21670Y16630D01*
X21620D01*
X21570Y16680D01*
Y16730D01*
Y16680D01*
X21520Y16630D01*
X21470D01*
X21420Y16680D01*
Y16780D01*
X21470Y16830D01*
Y16530D02*
X21420Y16480D01*
Y16380D01*
X21470Y16330D01*
X21670D01*
X21720Y16380D01*
Y16480D01*
X21670Y16530D01*
X21620D01*
X21570Y16480D01*
Y16330D01*
X26690Y22158D02*
X26640Y22108D01*
Y22008D01*
X26690Y21958D01*
X26890D01*
X26940Y22008D01*
Y22108D01*
X26890Y22158D01*
X26940Y22408D02*
X26640D01*
X26790Y22258D01*
Y22458D01*
X26690Y22558D02*
X26640Y22608D01*
Y22708D01*
X26690Y22758D01*
X26890D01*
X26940Y22708D01*
Y22608D01*
X26890Y22558D01*
X26690D01*
X28283Y22189D02*
X28233Y22139D01*
Y22039D01*
X28283Y21989D01*
X28483D01*
X28533Y22039D01*
Y22139D01*
X28483Y22189D01*
X28533Y22439D02*
X28233D01*
X28383Y22289D01*
Y22489D01*
X28533Y22589D02*
Y22689D01*
Y22639D01*
X28233D01*
X28283Y22589D01*
X15220Y24130D02*
X15170Y24180D01*
X15070D01*
X15020Y24130D01*
Y23930D01*
X15070Y23880D01*
X15170D01*
X15220Y23930D01*
X15470Y23880D02*
Y24180D01*
X15320Y24030D01*
X15520D01*
X15770Y23880D02*
Y24180D01*
X15620Y24030D01*
X15820D01*
X14490Y22580D02*
X14440Y22530D01*
Y22430D01*
X14490Y22380D01*
X14690D01*
X14740Y22430D01*
Y22530D01*
X14690Y22580D01*
X14740Y22830D02*
X14440D01*
X14590Y22680D01*
Y22880D01*
X14440Y23180D02*
Y22980D01*
X14590D01*
X14540Y23080D01*
Y23130D01*
X14590Y23180D01*
X14690D01*
X14740Y23130D01*
Y23030D01*
X14690Y22980D01*
X37170Y16500D02*
Y16200D01*
X37320D01*
X37370Y16250D01*
Y16450D01*
X37320Y16500D01*
X37170D01*
X37470Y16200D02*
X37570D01*
X37520D01*
Y16500D01*
X37470Y16450D01*
X23050Y37050D02*
Y36750D01*
X23200D01*
X23250Y36800D01*
Y37000D01*
X23200Y37050D01*
X23050D01*
X23350D02*
X23550D01*
Y37000D01*
X23350Y36800D01*
Y36750D01*
X25310Y37200D02*
X25110D01*
Y37050D01*
X25210D01*
X25110D01*
Y36900D01*
X25410Y37200D02*
Y36900D01*
X25560D01*
X25610Y36950D01*
Y37000D01*
X25560Y37050D01*
X25410D01*
X25560D01*
X25610Y37100D01*
Y37150D01*
X25560Y37200D01*
X25410D01*
X25910Y36900D02*
X25710D01*
X25910Y37100D01*
Y37150D01*
X25860Y37200D01*
X25760D01*
X25710Y37150D01*
X23130Y37660D02*
X22930D01*
Y37510D01*
X23030D01*
X22930D01*
Y37360D01*
X23230Y37660D02*
Y37360D01*
X23380D01*
X23430Y37410D01*
Y37460D01*
X23380Y37510D01*
X23230D01*
X23380D01*
X23430Y37560D01*
Y37610D01*
X23380Y37660D01*
X23230D01*
X23530Y37610D02*
X23580Y37660D01*
X23680D01*
X23730Y37610D01*
Y37560D01*
X23680Y37510D01*
X23630D01*
X23680D01*
X23730Y37460D01*
Y37410D01*
X23680Y37360D01*
X23580D01*
X23530Y37410D01*
X22140Y37220D02*
X21940D01*
Y37070D01*
X22040D01*
X21940D01*
Y36920D01*
X22240Y37220D02*
Y36920D01*
X22390D01*
X22440Y36970D01*
Y37020D01*
X22390Y37070D01*
X22240D01*
X22390D01*
X22440Y37120D01*
Y37170D01*
X22390Y37220D01*
X22240D01*
X22690Y36920D02*
Y37220D01*
X22540Y37070D01*
X22740D01*
X45560Y26180D02*
X45460D01*
X45510D01*
Y25930D01*
X45460Y25880D01*
X45410D01*
X45360Y25930D01*
X45660Y25880D02*
X45760D01*
X45710D01*
Y26180D01*
X45660Y26130D01*
X38200Y15130D02*
X38100D01*
X38150D01*
Y14880D01*
X38100Y14830D01*
X38050D01*
X38000Y14880D01*
X38300Y15080D02*
X38350Y15130D01*
X38450D01*
X38500Y15080D01*
Y15030D01*
X38450Y14980D01*
X38400D01*
X38450D01*
X38500Y14930D01*
Y14880D01*
X38450Y14830D01*
X38350D01*
X38300Y14880D01*
X22810Y39380D02*
X22710D01*
X22760D01*
Y39130D01*
X22710Y39080D01*
X22660D01*
X22610Y39130D01*
X22910Y39380D02*
X23110D01*
Y39330D01*
X22910Y39130D01*
Y39080D01*
X16015Y31860D02*
Y31560D01*
X16215D01*
X16315D02*
X16415D01*
X16365D01*
Y31860D01*
X16315Y31810D01*
X13130Y31720D02*
Y31420D01*
X13330D01*
X13630D02*
X13430D01*
X13630Y31620D01*
Y31670D01*
X13580Y31720D01*
X13480D01*
X13430Y31670D01*
X13820Y29670D02*
Y29370D01*
X14020D01*
X14120Y29620D02*
X14170Y29670D01*
X14270D01*
X14320Y29620D01*
Y29570D01*
X14270Y29520D01*
X14220D01*
X14270D01*
X14320Y29470D01*
Y29420D01*
X14270Y29370D01*
X14170D01*
X14120Y29420D01*
X21910Y29560D02*
Y29860D01*
X22060D01*
X22110Y29810D01*
Y29710D01*
X22060Y29660D01*
X21910D01*
X22010D02*
X22110Y29560D01*
X22210D02*
X22310D01*
X22260D01*
Y29860D01*
X22210Y29810D01*
X21940Y27910D02*
Y28210D01*
X22090D01*
X22140Y28160D01*
Y28060D01*
X22090Y28010D01*
X21940D01*
X22040D02*
X22140Y27910D01*
X22440D02*
X22240D01*
X22440Y28110D01*
Y28160D01*
X22390Y28210D01*
X22290D01*
X22240Y28160D01*
X19500Y29130D02*
Y29430D01*
X19650D01*
X19700Y29380D01*
Y29280D01*
X19650Y29230D01*
X19500D01*
X19600D02*
X19700Y29130D01*
X19800Y29380D02*
X19850Y29430D01*
X19950D01*
X20000Y29380D01*
Y29330D01*
X19950Y29280D01*
X19900D01*
X19950D01*
X20000Y29230D01*
Y29180D01*
X19950Y29130D01*
X19850D01*
X19800Y29180D01*
X19830Y27160D02*
Y27460D01*
X19980D01*
X20030Y27410D01*
Y27310D01*
X19980Y27260D01*
X19830D01*
X19930D02*
X20030Y27160D01*
X20280D02*
Y27460D01*
X20130Y27310D01*
X20330D01*
X22450Y26100D02*
Y26400D01*
X22600D01*
X22650Y26350D01*
Y26250D01*
X22600Y26200D01*
X22450D01*
X22550D02*
X22650Y26100D01*
X22950Y26400D02*
X22750D01*
Y26250D01*
X22850Y26300D01*
X22900D01*
X22950Y26250D01*
Y26150D01*
X22900Y26100D01*
X22800D01*
X22750Y26150D01*
X14250Y26140D02*
Y26440D01*
X14400D01*
X14450Y26390D01*
Y26290D01*
X14400Y26240D01*
X14250D01*
X14350D02*
X14450Y26140D01*
X14750Y26440D02*
X14650Y26390D01*
X14550Y26290D01*
Y26190D01*
X14600Y26140D01*
X14700D01*
X14750Y26190D01*
Y26240D01*
X14700Y26290D01*
X14550D01*
X16510Y33240D02*
Y33540D01*
X16660D01*
X16710Y33490D01*
Y33390D01*
X16660Y33340D01*
X16510D01*
X16610D02*
X16710Y33240D01*
X16810Y33540D02*
X17010D01*
Y33490D01*
X16810Y33290D01*
Y33240D01*
X37790Y24680D02*
Y24980D01*
X37940D01*
X37990Y24930D01*
Y24830D01*
X37940Y24780D01*
X37790D01*
X37890D02*
X37990Y24680D01*
X38090Y24930D02*
X38140Y24980D01*
X38240D01*
X38290Y24930D01*
Y24880D01*
X38240Y24830D01*
X38290Y24780D01*
Y24730D01*
X38240Y24680D01*
X38140D01*
X38090Y24730D01*
Y24780D01*
X38140Y24830D01*
X38090Y24880D01*
Y24930D01*
X38140Y24830D02*
X38240D01*
X36050Y20340D02*
Y20640D01*
X36200D01*
X36250Y20590D01*
Y20490D01*
X36200Y20440D01*
X36050D01*
X36150D02*
X36250Y20340D01*
X36350D02*
X36450D01*
X36400D01*
Y20640D01*
X36350Y20590D01*
X36600D02*
X36650Y20640D01*
X36750D01*
X36800Y20590D01*
Y20390D01*
X36750Y20340D01*
X36650D01*
X36600Y20390D01*
Y20590D01*
X36100Y18500D02*
Y18800D01*
X36250D01*
X36300Y18750D01*
Y18650D01*
X36250Y18600D01*
X36100D01*
X36200D02*
X36300Y18500D01*
X36400D02*
X36500D01*
X36450D01*
Y18800D01*
X36400Y18750D01*
X36650Y18500D02*
X36750D01*
X36700D01*
Y18800D01*
X36650Y18750D01*
X27520Y33250D02*
Y33550D01*
X27670D01*
X27720Y33500D01*
Y33400D01*
X27670Y33350D01*
X27520D01*
X27620D02*
X27720Y33250D01*
X27820D02*
X27920D01*
X27870D01*
Y33550D01*
X27820Y33500D01*
X28070D02*
X28120Y33550D01*
X28220D01*
X28270Y33500D01*
Y33450D01*
X28220Y33400D01*
X28170D01*
X28220D01*
X28270Y33350D01*
Y33300D01*
X28220Y33250D01*
X28120D01*
X28070Y33300D01*
X29040Y32150D02*
Y32450D01*
X29190D01*
X29240Y32400D01*
Y32300D01*
X29190Y32250D01*
X29040D01*
X29140D02*
X29240Y32150D01*
X29340D02*
X29440D01*
X29390D01*
Y32450D01*
X29340Y32400D01*
X29740Y32150D02*
Y32450D01*
X29590Y32300D01*
X29790D01*
X29950Y32160D02*
Y32460D01*
X30100D01*
X30150Y32410D01*
Y32310D01*
X30100Y32260D01*
X29950D01*
X30050D02*
X30150Y32160D01*
X30250D02*
X30350D01*
X30300D01*
Y32460D01*
X30250Y32410D01*
X30700Y32460D02*
X30500D01*
Y32310D01*
X30600Y32360D01*
X30650D01*
X30700Y32310D01*
Y32210D01*
X30650Y32160D01*
X30550D01*
X30500Y32210D01*
X31190Y33940D02*
Y34240D01*
X31340D01*
X31390Y34190D01*
Y34090D01*
X31340Y34040D01*
X31190D01*
X31290D02*
X31390Y33940D01*
X31490D02*
X31590D01*
X31540D01*
Y34240D01*
X31490Y34190D01*
X31940Y34240D02*
X31840Y34190D01*
X31740Y34090D01*
Y33990D01*
X31790Y33940D01*
X31890D01*
X31940Y33990D01*
Y34040D01*
X31890Y34090D01*
X31740D01*
X29980Y31040D02*
Y31340D01*
X30130D01*
X30180Y31290D01*
Y31190D01*
X30130Y31140D01*
X29980D01*
X30080D02*
X30180Y31040D01*
X30280D02*
X30380D01*
X30330D01*
Y31340D01*
X30280Y31290D01*
X30530Y31340D02*
X30730D01*
Y31290D01*
X30530Y31090D01*
Y31040D01*
X34720Y31900D02*
Y32200D01*
X34870D01*
X34920Y32150D01*
Y32050D01*
X34870Y32000D01*
X34720D01*
X34820D02*
X34920Y31900D01*
X35220D02*
X35020D01*
X35220Y32100D01*
Y32150D01*
X35170Y32200D01*
X35070D01*
X35020Y32150D01*
X35520Y31900D02*
X35320D01*
X35520Y32100D01*
Y32150D01*
X35470Y32200D01*
X35370D01*
X35320Y32150D01*
X31090Y20100D02*
Y20400D01*
X31240D01*
X31290Y20350D01*
Y20250D01*
X31240Y20200D01*
X31090D01*
X31190D02*
X31290Y20100D01*
X31590D02*
X31390D01*
X31590Y20300D01*
Y20350D01*
X31540Y20400D01*
X31440D01*
X31390Y20350D01*
X31690D02*
X31740Y20400D01*
X31840D01*
X31890Y20350D01*
Y20300D01*
X31840Y20250D01*
X31790D01*
X31840D01*
X31890Y20200D01*
Y20150D01*
X31840Y20100D01*
X31740D01*
X31690Y20150D01*
X32230Y20100D02*
Y20400D01*
X32380D01*
X32430Y20350D01*
Y20250D01*
X32380Y20200D01*
X32230D01*
X32330D02*
X32430Y20100D01*
X32730D02*
X32530D01*
X32730Y20300D01*
Y20350D01*
X32680Y20400D01*
X32580D01*
X32530Y20350D01*
X32980Y20100D02*
Y20400D01*
X32830Y20250D01*
X33030D01*
X34790Y22820D02*
Y23120D01*
X34940D01*
X34990Y23070D01*
Y22970D01*
X34940Y22920D01*
X34790D01*
X34890D02*
X34990Y22820D01*
X35290D02*
X35090D01*
X35290Y23020D01*
Y23070D01*
X35240Y23120D01*
X35140D01*
X35090Y23070D01*
X35590Y23120D02*
X35390D01*
Y22970D01*
X35490Y23020D01*
X35540D01*
X35590Y22970D01*
Y22870D01*
X35540Y22820D01*
X35440D01*
X35390Y22870D01*
X25680Y22990D02*
Y23290D01*
X25830D01*
X25880Y23240D01*
Y23140D01*
X25830Y23090D01*
X25680D01*
X25780D02*
X25880Y22990D01*
X26180D02*
X25980D01*
X26180Y23190D01*
Y23240D01*
X26130Y23290D01*
X26030D01*
X25980Y23240D01*
X26280Y23290D02*
X26480D01*
Y23240D01*
X26280Y23040D01*
Y22990D01*
X30132Y22860D02*
Y23160D01*
X30282D01*
X30332Y23110D01*
Y23010D01*
X30282Y22960D01*
X30132D01*
X30232D02*
X30332Y22860D01*
X30632D02*
X30432D01*
X30632Y23060D01*
Y23110D01*
X30582Y23160D01*
X30482D01*
X30432Y23110D01*
X30732D02*
X30782Y23160D01*
X30882D01*
X30932Y23110D01*
Y23060D01*
X30882Y23010D01*
X30932Y22960D01*
Y22910D01*
X30882Y22860D01*
X30782D01*
X30732Y22910D01*
Y22960D01*
X30782Y23010D01*
X30732Y23060D01*
Y23110D01*
X30782Y23010D02*
X30882D01*
X12880Y13340D02*
Y13640D01*
X13030D01*
X13080Y13590D01*
Y13490D01*
X13030Y13440D01*
X12880D01*
X12980D02*
X13080Y13340D01*
X13380D02*
X13180D01*
X13380Y13540D01*
Y13590D01*
X13330Y13640D01*
X13230D01*
X13180Y13590D01*
X13480Y13390D02*
X13530Y13340D01*
X13630D01*
X13680Y13390D01*
Y13590D01*
X13630Y13640D01*
X13530D01*
X13480Y13590D01*
Y13540D01*
X13530Y13490D01*
X13680D01*
X14540Y13980D02*
Y14280D01*
X14690D01*
X14740Y14230D01*
Y14130D01*
X14690Y14080D01*
X14540D01*
X14640D02*
X14740Y13980D01*
X14840Y14230D02*
X14890Y14280D01*
X14990D01*
X15040Y14230D01*
Y14180D01*
X14990Y14130D01*
X14940D01*
X14990D01*
X15040Y14080D01*
Y14030D01*
X14990Y13980D01*
X14890D01*
X14840Y14030D01*
X15140Y14230D02*
X15190Y14280D01*
X15290D01*
X15340Y14230D01*
Y14030D01*
X15290Y13980D01*
X15190D01*
X15140Y14030D01*
Y14230D01*
X13250Y13960D02*
Y14260D01*
X13400D01*
X13450Y14210D01*
Y14110D01*
X13400Y14060D01*
X13250D01*
X13350D02*
X13450Y13960D01*
X13550Y14210D02*
X13600Y14260D01*
X13700D01*
X13750Y14210D01*
Y14160D01*
X13700Y14110D01*
X13650D01*
X13700D01*
X13750Y14060D01*
Y14010D01*
X13700Y13960D01*
X13600D01*
X13550Y14010D01*
X13850Y13960D02*
X13950D01*
X13900D01*
Y14260D01*
X13850Y14210D01*
X23210Y15700D02*
Y16000D01*
X23360D01*
X23410Y15950D01*
Y15850D01*
X23360Y15800D01*
X23210D01*
X23310D02*
X23410Y15700D01*
X23510Y15950D02*
X23560Y16000D01*
X23660D01*
X23710Y15950D01*
Y15900D01*
X23660Y15850D01*
X23610D01*
X23660D01*
X23710Y15800D01*
Y15750D01*
X23660Y15700D01*
X23560D01*
X23510Y15750D01*
X24010Y15700D02*
X23810D01*
X24010Y15900D01*
Y15950D01*
X23960Y16000D01*
X23860D01*
X23810Y15950D01*
X24790Y16410D02*
Y16710D01*
X24940D01*
X24990Y16660D01*
Y16560D01*
X24940Y16510D01*
X24790D01*
X24890D02*
X24990Y16410D01*
X25090Y16660D02*
X25140Y16710D01*
X25240D01*
X25290Y16660D01*
Y16610D01*
X25240Y16560D01*
X25190D01*
X25240D01*
X25290Y16510D01*
Y16460D01*
X25240Y16410D01*
X25140D01*
X25090Y16460D01*
X25390Y16660D02*
X25440Y16710D01*
X25540D01*
X25590Y16660D01*
Y16610D01*
X25540Y16560D01*
X25490D01*
X25540D01*
X25590Y16510D01*
Y16460D01*
X25540Y16410D01*
X25440D01*
X25390Y16460D01*
X23470Y16350D02*
Y16650D01*
X23620D01*
X23670Y16600D01*
Y16500D01*
X23620Y16450D01*
X23470D01*
X23570D02*
X23670Y16350D01*
X23770Y16600D02*
X23820Y16650D01*
X23920D01*
X23970Y16600D01*
Y16550D01*
X23920Y16500D01*
X23870D01*
X23920D01*
X23970Y16450D01*
Y16400D01*
X23920Y16350D01*
X23820D01*
X23770Y16400D01*
X24220Y16350D02*
Y16650D01*
X24070Y16500D01*
X24270D01*
X17960Y21240D02*
Y21540D01*
X18110D01*
X18160Y21490D01*
Y21390D01*
X18110Y21340D01*
X17960D01*
X18060D02*
X18160Y21240D01*
X18260Y21490D02*
X18310Y21540D01*
X18410D01*
X18460Y21490D01*
Y21440D01*
X18410Y21390D01*
X18360D01*
X18410D01*
X18460Y21340D01*
Y21290D01*
X18410Y21240D01*
X18310D01*
X18260Y21290D01*
X18760Y21540D02*
X18560D01*
Y21390D01*
X18660Y21440D01*
X18710D01*
X18760Y21390D01*
Y21290D01*
X18710Y21240D01*
X18610D01*
X18560Y21290D01*
X17280Y22654D02*
Y22954D01*
X17430D01*
X17480Y22904D01*
Y22804D01*
X17430Y22754D01*
X17280D01*
X17380D02*
X17480Y22654D01*
X17580Y22904D02*
X17630Y22954D01*
X17730D01*
X17780Y22904D01*
Y22854D01*
X17730Y22804D01*
X17680D01*
X17730D01*
X17780Y22754D01*
Y22704D01*
X17730Y22654D01*
X17630D01*
X17580Y22704D01*
X18080Y22954D02*
X17980Y22904D01*
X17880Y22804D01*
Y22704D01*
X17930Y22654D01*
X18030D01*
X18080Y22704D01*
Y22754D01*
X18030Y22804D01*
X17880D01*
X24610Y32830D02*
Y33130D01*
X24760D01*
X24810Y33080D01*
Y32980D01*
X24760Y32930D01*
X24610D01*
X24710D02*
X24810Y32830D01*
X24910Y33080D02*
X24960Y33130D01*
X25060D01*
X25110Y33080D01*
Y33030D01*
X25060Y32980D01*
X25010D01*
X25060D01*
X25110Y32930D01*
Y32880D01*
X25060Y32830D01*
X24960D01*
X24910Y32880D01*
X25210Y33130D02*
X25410D01*
Y33080D01*
X25210Y32880D01*
Y32830D01*
X21150Y32920D02*
Y33220D01*
X21300D01*
X21350Y33170D01*
Y33070D01*
X21300Y33020D01*
X21150D01*
X21250D02*
X21350Y32920D01*
X21450Y33170D02*
X21500Y33220D01*
X21600D01*
X21650Y33170D01*
Y33120D01*
X21600Y33070D01*
X21550D01*
X21600D01*
X21650Y33020D01*
Y32970D01*
X21600Y32920D01*
X21500D01*
X21450Y32970D01*
X21750Y33170D02*
X21800Y33220D01*
X21900D01*
X21950Y33170D01*
Y33120D01*
X21900Y33070D01*
X21950Y33020D01*
Y32970D01*
X21900Y32920D01*
X21800D01*
X21750Y32970D01*
Y33020D01*
X21800Y33070D01*
X21750Y33120D01*
Y33170D01*
X21800Y33070D02*
X21900D01*
X31724Y34780D02*
Y35080D01*
X31874D01*
X31924Y35030D01*
Y34930D01*
X31874Y34880D01*
X31724D01*
X31824D02*
X31924Y34780D01*
X32024Y35030D02*
X32074Y35080D01*
X32174D01*
X32224Y35030D01*
Y34980D01*
X32174Y34930D01*
X32124D01*
X32174D01*
X32224Y34880D01*
Y34830D01*
X32174Y34780D01*
X32074D01*
X32024Y34830D01*
X32324D02*
X32374Y34780D01*
X32474D01*
X32524Y34830D01*
Y35030D01*
X32474Y35080D01*
X32374D01*
X32324Y35030D01*
Y34980D01*
X32374Y34930D01*
X32524D01*
X22350Y36250D02*
Y36000D01*
X22400Y35950D01*
X22500D01*
X22550Y36000D01*
Y36250D01*
X22650Y35950D02*
X22750D01*
X22700D01*
Y36250D01*
X22650Y36200D01*
X23100Y36250D02*
X23000Y36200D01*
X22900Y36100D01*
Y36000D01*
X22950Y35950D01*
X23050D01*
X23100Y36000D01*
Y36050D01*
X23050Y36100D01*
X22900D01*
X34390Y30580D02*
Y30780D01*
X34340Y30830D01*
X34240D01*
X34190Y30780D01*
Y30580D01*
X34240Y30530D01*
X34340D01*
X34290Y30630D02*
X34390Y30530D01*
X34340D02*
X34390Y30580D01*
X34640Y30530D02*
Y30830D01*
X34490Y30680D01*
X34690D01*
X39920Y15960D02*
Y16160D01*
X39870Y16210D01*
X39770D01*
X39720Y16160D01*
Y15960D01*
X39770Y15910D01*
X39870D01*
X39820Y16010D02*
X39920Y15910D01*
X39870D02*
X39920Y15960D01*
X40020Y16160D02*
X40070Y16210D01*
X40170D01*
X40220Y16160D01*
Y16110D01*
X40170Y16060D01*
X40120D01*
X40170D01*
X40220Y16010D01*
Y15960D01*
X40170Y15910D01*
X40070D01*
X40020Y15960D01*
X39420Y25260D02*
Y25010D01*
X39470Y24960D01*
X39570D01*
X39620Y25010D01*
Y25260D01*
X39720Y25210D02*
X39770Y25260D01*
X39870D01*
X39920Y25210D01*
Y25160D01*
X39870Y25110D01*
X39820D01*
X39870D01*
X39920Y25060D01*
Y25010D01*
X39870Y24960D01*
X39770D01*
X39720Y25010D01*
X28970Y15211D02*
X28870D01*
X28920D01*
Y14961D01*
X28870Y14911D01*
X28820D01*
X28770Y14961D01*
X29070Y14911D02*
X29170D01*
X29120D01*
Y15211D01*
X29070Y15161D01*
X29320D02*
X29370Y15211D01*
X29470D01*
X29520Y15161D01*
Y14961D01*
X29470Y14911D01*
X29370D01*
X29320Y14961D01*
Y15161D01*
X46050Y37360D02*
X45950D01*
X46000D01*
Y37110D01*
X45950Y37060D01*
X45900D01*
X45850Y37110D01*
X46350Y37360D02*
X46150D01*
Y37210D01*
X46250Y37260D01*
X46300D01*
X46350Y37210D01*
Y37110D01*
X46300Y37060D01*
X46200D01*
X46150Y37110D01*
X25890Y34510D02*
X25840Y34560D01*
X25740D01*
X25690Y34510D01*
Y34310D01*
X25740Y34260D01*
X25840D01*
X25890Y34310D01*
X26190Y34260D02*
X25990D01*
X26190Y34460D01*
Y34510D01*
X26140Y34560D01*
X26040D01*
X25990Y34510D01*
X26440Y34260D02*
Y34560D01*
X26290Y34410D01*
X26490D01*
X27150Y34520D02*
X27100Y34570D01*
X27000D01*
X26950Y34520D01*
Y34320D01*
X27000Y34270D01*
X27100D01*
X27150Y34320D01*
X27450Y34570D02*
X27250D01*
Y34420D01*
X27350Y34470D01*
X27400D01*
X27450Y34420D01*
Y34320D01*
X27400Y34270D01*
X27300D01*
X27250Y34320D01*
X27750Y34270D02*
X27550D01*
X27750Y34470D01*
Y34520D01*
X27700Y34570D01*
X27600D01*
X27550Y34520D01*
X19060Y34270D02*
X19010Y34320D01*
X18910D01*
X18860Y34270D01*
Y34070D01*
X18910Y34020D01*
X19010D01*
X19060Y34070D01*
X19360Y34320D02*
X19160D01*
Y34170D01*
X19260Y34220D01*
X19310D01*
X19360Y34170D01*
Y34070D01*
X19310Y34020D01*
X19210D01*
X19160Y34070D01*
X19460Y34270D02*
X19510Y34320D01*
X19610D01*
X19660Y34270D01*
Y34220D01*
X19610Y34170D01*
X19560D01*
X19610D01*
X19660Y34120D01*
Y34070D01*
X19610Y34020D01*
X19510D01*
X19460Y34070D01*
X18080Y36360D02*
X18030Y36410D01*
X17930D01*
X17880Y36360D01*
Y36160D01*
X17930Y36110D01*
X18030D01*
X18080Y36160D01*
X18380Y36410D02*
X18180D01*
Y36260D01*
X18280Y36310D01*
X18330D01*
X18380Y36260D01*
Y36160D01*
X18330Y36110D01*
X18230D01*
X18180Y36160D01*
X18630Y36110D02*
Y36410D01*
X18480Y36260D01*
X18680D01*
X22060Y30740D02*
X22010Y30790D01*
X21910D01*
X21860Y30740D01*
Y30540D01*
X21910Y30490D01*
X22010D01*
X22060Y30540D01*
X22360Y30790D02*
X22160D01*
Y30640D01*
X22260Y30690D01*
X22310D01*
X22360Y30640D01*
Y30540D01*
X22310Y30490D01*
X22210D01*
X22160Y30540D01*
X22660Y30790D02*
X22460D01*
Y30640D01*
X22560Y30690D01*
X22610D01*
X22660Y30640D01*
Y30540D01*
X22610Y30490D01*
X22510D01*
X22460Y30540D01*
X10520Y20106D02*
X10470Y20056D01*
Y19956D01*
X10520Y19906D01*
X10720D01*
X10770Y19956D01*
Y20056D01*
X10720Y20106D01*
X10620D01*
Y20006D01*
X10770Y20206D02*
X10470D01*
X10770Y20406D01*
X10470D01*
Y20506D02*
X10770D01*
Y20656D01*
X10720Y20706D01*
X10520D01*
X10470Y20656D01*
Y20506D01*
Y20806D02*
X10770D01*
Y20956D01*
X10720Y21006D01*
X10670D01*
X10620Y20956D01*
Y20806D01*
Y20956D01*
X10570Y21006D01*
X10520D01*
X10470Y20956D01*
Y20806D01*
Y21106D02*
X10770D01*
Y21306D01*
X10470Y21406D02*
X10770D01*
X10670D01*
X10470Y21606D01*
X10620Y21456D01*
X10770Y21606D01*
X10570Y23900D02*
Y24100D01*
X10470Y24000D02*
X10670D01*
X10420Y24400D02*
Y24200D01*
X10570D01*
X10520Y24300D01*
Y24350D01*
X10570Y24400D01*
X10670D01*
X10720Y24350D01*
Y24250D01*
X10670Y24200D01*
X10420Y24500D02*
X10620D01*
X10720Y24600D01*
X10620Y24700D01*
X10420D01*
X10720Y24800D02*
X10420D01*
Y24950D01*
X10470Y25000D01*
X10570D01*
X10620Y24950D01*
Y24800D01*
Y24900D02*
X10720Y25000D01*
X10420Y25300D02*
Y25100D01*
X10720D01*
Y25300D01*
X10570Y25100D02*
Y25200D01*
X10420Y25400D02*
X10720D01*
Y25549D01*
X10670Y25599D01*
X10470D01*
X10420Y25549D01*
Y25400D01*
X10450Y22104D02*
X10500D01*
X10600Y22204D01*
X10500Y22304D01*
X10450D01*
X10600Y22204D02*
X10750D01*
X10450Y22404D02*
X10750D01*
Y22604D01*
X10450Y22704D02*
X10750D01*
X10650Y22804D01*
X10750Y22904D01*
X10450D01*
X25370Y39650D02*
X25570D01*
X25670Y39500D02*
Y39800D01*
X25820D01*
X25870Y39750D01*
Y39650D01*
X25820Y39600D01*
X25670D01*
X25770D02*
X25870Y39500D01*
X22200Y39670D02*
X22400D01*
X22500Y39520D02*
Y39820D01*
X22650D01*
X22700Y39770D01*
Y39670D01*
X22650Y39620D01*
X22500D01*
X22600D02*
X22700Y39520D01*
X22790Y39670D02*
X22990D01*
X22890Y39770D02*
Y39570D01*
X23090Y39820D02*
Y39770D01*
X23190Y39670D01*
X23290Y39770D01*
Y39820D01*
X23190Y39670D02*
Y39520D01*
X19370Y39640D02*
X19570D01*
X19470Y39740D02*
Y39540D01*
X19670Y39790D02*
Y39740D01*
X19770Y39640D01*
X19870Y39740D01*
Y39790D01*
X19770Y39640D02*
Y39490D01*
X46670Y26130D02*
X46470D01*
Y25980D01*
X46570D01*
X46470D01*
Y25830D01*
X46770D02*
Y26030D01*
X46870Y26130D01*
X46970Y26030D01*
Y25830D01*
Y25980D01*
X46770D01*
X47070Y25830D02*
Y26130D01*
X47270Y25830D01*
Y26130D01*
X47670Y25830D02*
Y26130D01*
X47820D01*
X47870Y26080D01*
Y25980D01*
X47820Y25930D01*
X47670D01*
X48119Y26130D02*
X48019D01*
X47970Y26080D01*
Y25880D01*
X48019Y25830D01*
X48119D01*
X48169Y25880D01*
Y26080D01*
X48119Y26130D01*
X48269D02*
Y25830D01*
X48369Y25930D01*
X48469Y25830D01*
Y26130D01*
X48769D02*
X48569D01*
Y25830D01*
X48769D01*
X48569Y25980D02*
X48669D01*
X48869Y25830D02*
Y26130D01*
X49019D01*
X49069Y26080D01*
Y25980D01*
X49019Y25930D01*
X48869D01*
X48969D02*
X49069Y25830D01*
X31550Y10830D02*
X31500Y10880D01*
X31400D01*
X31350Y10830D01*
Y10630D01*
X31400Y10580D01*
X31500D01*
X31550Y10630D01*
Y10730D01*
X31450D01*
X31650Y10580D02*
Y10880D01*
X31850Y10580D01*
Y10880D01*
X31950D02*
Y10580D01*
X32100D01*
X32150Y10630D01*
Y10830D01*
X32100Y10880D01*
X31950D01*
X29210Y10730D02*
X29410D01*
X29310Y10830D02*
Y10630D01*
X29510Y10580D02*
X29610D01*
X29560D01*
Y10880D01*
X29510Y10830D01*
X29960Y10580D02*
X29760D01*
X29960Y10780D01*
Y10830D01*
X29910Y10880D01*
X29810D01*
X29760Y10830D01*
X30060Y10880D02*
Y10680D01*
X30160Y10580D01*
X30260Y10680D01*
Y10880D01*
X47530Y37050D02*
Y37250D01*
X47630Y37350D01*
X47730Y37250D01*
Y37050D01*
Y37200D01*
X47530D01*
X48030Y37300D02*
X47980Y37350D01*
X47880D01*
X47830Y37300D01*
Y37100D01*
X47880Y37050D01*
X47980D01*
X48030Y37100D01*
X48580Y37350D02*
X48480D01*
X48430Y37300D01*
Y37100D01*
X48480Y37050D01*
X48580D01*
X48630Y37100D01*
Y37300D01*
X48580Y37350D01*
X48730D02*
Y37100D01*
X48780Y37050D01*
X48880D01*
X48930Y37100D01*
Y37350D01*
X49030D02*
X49229D01*
X49129D01*
Y37050D01*
X49580Y32840D02*
X49380D01*
X49280Y32940D01*
X49380Y33040D01*
X49580D01*
X49430D01*
Y32840D01*
X49330Y33340D02*
X49280Y33290D01*
Y33190D01*
X49330Y33140D01*
X49530D01*
X49580Y33190D01*
Y33290D01*
X49530Y33340D01*
X49280Y33740D02*
Y33840D01*
Y33790D01*
X49580D01*
Y33740D01*
Y33840D01*
Y33990D02*
X49280D01*
X49580Y34190D01*
X49280D01*
X49310Y24190D02*
X49010D01*
Y24340D01*
X49060Y24390D01*
X49160D01*
X49210Y24340D01*
Y24190D01*
X49010Y24490D02*
X49310D01*
Y24640D01*
X49260Y24690D01*
X49210D01*
X49160Y24640D01*
Y24490D01*
Y24640D01*
X49110Y24690D01*
X49060D01*
X49010Y24640D01*
Y24490D01*
Y24790D02*
X49310D01*
Y24990D01*
X49010Y25090D02*
X49260D01*
X49310Y25140D01*
Y25240D01*
X49260Y25290D01*
X49010D01*
X49160Y22015D02*
Y22215D01*
X49010Y22315D02*
X49310D01*
Y22465D01*
X49260Y22515D01*
X49210D01*
X49160Y22465D01*
Y22315D01*
Y22465D01*
X49110Y22515D01*
X49060D01*
X49010Y22465D01*
Y22315D01*
Y22615D02*
X49310D01*
Y22815D01*
X49010Y22915D02*
X49310D01*
X49210D01*
X49010Y23115D01*
X49160Y22965D01*
X49310Y23115D01*
X49160Y19840D02*
Y20040D01*
X49060Y19940D02*
X49260D01*
X49310Y20140D02*
X49010D01*
Y20290D01*
X49060Y20340D01*
X49160D01*
X49210Y20290D01*
Y20140D01*
Y20240D02*
X49310Y20340D01*
X49010Y20640D02*
Y20440D01*
X49310D01*
Y20640D01*
X49160Y20440D02*
Y20540D01*
X49010Y20740D02*
X49310D01*
Y20890D01*
X49260Y20940D01*
X49060D01*
X49010Y20890D01*
Y20740D01*
X49060Y14200D02*
X49010Y14150D01*
Y14050D01*
X49060Y14000D01*
X49260D01*
X49310Y14050D01*
Y14150D01*
X49260Y14200D01*
X49160D01*
Y14100D01*
X49310Y14300D02*
X49010D01*
X49310Y14500D01*
X49010D01*
Y14600D02*
X49310D01*
Y14750D01*
X49260Y14800D01*
X49060D01*
X49010Y14750D01*
Y14600D01*
Y15100D02*
Y14900D01*
X49160D01*
Y15000D01*
Y14900D01*
X49310D01*
Y15200D02*
X49110D01*
X49010Y15300D01*
X49110Y15400D01*
X49310D01*
X49160D01*
Y15200D01*
X49310Y15500D02*
X49010D01*
X49310Y15699D01*
X49010D01*
X49160Y16460D02*
Y16660D01*
X49060Y16560D02*
X49260D01*
X49310Y16760D02*
Y16860D01*
Y16810D01*
X49010D01*
X49060Y16760D01*
X49310Y17210D02*
Y17010D01*
X49110Y17210D01*
X49060D01*
X49010Y17160D01*
Y17060D01*
X49060Y17010D01*
X49010Y17510D02*
Y17310D01*
X49160D01*
Y17410D01*
Y17310D01*
X49310D01*
Y17610D02*
X49110D01*
X49010Y17710D01*
X49110Y17810D01*
X49310D01*
X49160D01*
Y17610D01*
X49310Y17910D02*
X49010D01*
X49310Y18109D01*
X49010D01*
X41410Y10960D02*
X41610D01*
X41510Y11060D02*
Y10860D01*
X41710Y11110D02*
Y10810D01*
X41860D01*
X41910Y10860D01*
Y10910D01*
X41860Y10960D01*
X41710D01*
X41860D01*
X41910Y11010D01*
Y11060D01*
X41860Y11110D01*
X41710D01*
X42010Y11010D02*
Y10810D01*
Y10910D01*
X42060Y10960D01*
X42110Y11010D01*
X42160D01*
X42310Y10810D02*
Y11010D01*
X42460D01*
X42510Y10960D01*
Y10810D01*
X37160Y10960D02*
X37360D01*
X37460Y11110D02*
Y10810D01*
X37610D01*
X37660Y10860D01*
Y10910D01*
X37610Y10960D01*
X37460D01*
X37610D01*
X37660Y11010D01*
Y11060D01*
X37610Y11110D01*
X37460D01*
X37760Y10810D02*
X37860D01*
X37810D01*
Y11110D01*
X37760D01*
X38010Y11010D02*
Y10860D01*
X38060Y10810D01*
X38210D01*
Y11010D01*
X39520Y11110D02*
Y10810D01*
X39670D01*
X39720Y10860D01*
Y10910D01*
X39670Y10960D01*
X39520D01*
X39670D01*
X39720Y11010D01*
Y11060D01*
X39670Y11110D01*
X39520D01*
X39820Y10810D02*
X39920D01*
X39870D01*
Y11110D01*
X39820D01*
X40070Y10810D02*
Y11110D01*
Y10910D02*
X40220Y11010D01*
X40070Y10910D02*
X40220Y10810D01*
X43360Y11430D02*
X43660D01*
Y11580D01*
X43610Y11630D01*
X43410D01*
X43360Y11580D01*
Y11430D01*
Y11880D02*
Y11780D01*
X43410Y11730D01*
X43610D01*
X43660Y11780D01*
Y11880D01*
X43610Y11930D01*
X43410D01*
X43360Y11880D01*
Y12180D02*
Y12080D01*
X43410Y12030D01*
X43610D01*
X43660Y12080D01*
Y12180D01*
X43610Y12230D01*
X43410D01*
X43360Y12180D01*
X43660Y12330D02*
X43360D01*
Y12480D01*
X43410Y12530D01*
X43510D01*
X43560Y12480D01*
Y12330D01*
Y12430D02*
X43660Y12530D01*
X43410Y13129D02*
X43360Y13079D01*
Y12980D01*
X43410Y12930D01*
X43460D01*
X43510Y12980D01*
Y13079D01*
X43560Y13129D01*
X43610D01*
X43660Y13079D01*
Y12980D01*
X43610Y12930D01*
X43360Y13429D02*
Y13229D01*
X43660D01*
Y13429D01*
X43510Y13229D02*
Y13329D01*
X43660Y13529D02*
X43360D01*
X43660Y13729D01*
X43360D01*
X43410Y14029D02*
X43360Y13979D01*
Y13879D01*
X43410Y13829D01*
X43460D01*
X43510Y13879D01*
Y13979D01*
X43560Y14029D01*
X43610D01*
X43660Y13979D01*
Y13879D01*
X43610Y13829D01*
X43360Y14279D02*
Y14179D01*
X43410Y14129D01*
X43610D01*
X43660Y14179D01*
Y14279D01*
X43610Y14329D01*
X43410D01*
X43360Y14279D01*
X43660Y14429D02*
X43360D01*
Y14579D01*
X43410Y14629D01*
X43510D01*
X43560Y14579D01*
Y14429D01*
Y14529D02*
X43660Y14629D01*
D18*
X36450Y27300D02*
X50000D01*
X36440Y27310D02*
X36450Y27300D01*
X36440Y27310D02*
Y39800D01*
D19*
X22040Y22220D02*
Y21720D01*
X22140Y21620D01*
X22340D01*
X22440Y21720D01*
Y22220D01*
X22640Y21620D02*
X22840D01*
X22740D01*
Y22220D01*
X22640Y22120D01*
X23440Y21620D02*
Y22220D01*
X23140Y21920D01*
X23540D01*
X11749Y20009D02*
Y19510D01*
X11849Y19410D01*
X12049D01*
X12148Y19510D01*
Y20009D01*
X12348Y19410D02*
X12548D01*
X12448D01*
Y20009D01*
X12348Y19909D01*
X12848D02*
X12948Y20009D01*
X13148D01*
X13248Y19909D01*
Y19809D01*
X13148Y19709D01*
X13048D01*
X13148D01*
X13248Y19609D01*
Y19510D01*
X13148Y19410D01*
X12948D01*
X12848Y19510D01*
X40050Y39660D02*
Y39060D01*
Y39360D01*
X40450D01*
Y39660D01*
Y39060D01*
X40650Y39660D02*
X40850D01*
X40750D01*
Y39060D01*
X40650D01*
X40850D01*
X41550Y39560D02*
X41450Y39660D01*
X41250D01*
X41150Y39560D01*
Y39160D01*
X41250Y39060D01*
X41450D01*
X41550Y39160D01*
Y39360D01*
X41350D01*
X41749Y39660D02*
Y39060D01*
Y39360D01*
X42149D01*
Y39660D01*
Y39060D01*
X42949Y39660D02*
Y39260D01*
X43149Y39060D01*
X43349Y39260D01*
Y39660D01*
X43849D02*
X43649D01*
X43549Y39560D01*
Y39160D01*
X43649Y39060D01*
X43849D01*
X43949Y39160D01*
Y39560D01*
X43849Y39660D01*
X44149D02*
Y39060D01*
X44549D01*
X44748Y39660D02*
X45148D01*
X44948D01*
Y39060D01*
X45348D02*
Y39460D01*
X45548Y39660D01*
X45748Y39460D01*
Y39060D01*
Y39360D01*
X45348D01*
X46348Y39560D02*
X46248Y39660D01*
X46048D01*
X45948Y39560D01*
Y39160D01*
X46048Y39060D01*
X46248D01*
X46348Y39160D01*
Y39360D01*
X46148D01*
X46948Y39660D02*
X46548D01*
Y39060D01*
X46948D01*
X46548Y39360D02*
X46748D01*
D20*
X30355Y36008D02*
Y35973D01*
X30320Y35902D01*
X30285Y35867D01*
X30214Y35832D01*
X30074D01*
X30003Y35867D01*
X29968Y35902D01*
X29933Y35973D01*
Y36043D01*
X29968Y36113D01*
X30039Y36219D01*
X30390Y36570D01*
X29898D01*
X30707Y39530D02*
X30743Y39460D01*
X30848Y39354D01*
X30110D01*
D21*
X46203Y18960D02*
D03*
M02*
